<svg xmlns="http://www.w3.org/2000/svg" xmlns:xlink="http://www.w3.org/1999/xlink" width="200" zoomAndPan="magnify" viewBox="0 0 150 48.75" height="65" preserveAspectRatio="xMidYMid meet" version="1.0"><defs><g/><clipPath id="82d791db0a"><path d="M 126 4.234375 L 130 4.234375 L 130 15 L 126 15 Z M 126 4.234375 " clip-rule="nonzero"/></clipPath><clipPath id="188b47932e"><path d="M 126 33 L 130 33 L 130 44.527344 L 126 44.527344 Z M 126 33 " clip-rule="nonzero"/></clipPath><clipPath id="4e019d7c23"><path d="M 137 22 L 148.183594 22 L 148.183594 26 L 137 26 Z M 137 22 " clip-rule="nonzero"/></clipPath><clipPath id="33b24b3bf5"><path d="M 107.890625 22 L 119 22 L 119 26 L 107.890625 26 Z M 107.890625 22 " clip-rule="nonzero"/></clipPath></defs><g clip-path="url(#82d791db0a)"><path fill="#fa9908" d="M 129.464844 14.902344 C 129.003906 14.832031 128.523438 14.800781 128.042969 14.800781 C 127.554688 14.800781 127.078125 14.832031 126.613281 14.902344 L 128.027344 4.234375 L 128.046875 4.234375 L 129.464844 14.902344 " fill-opacity="1" fill-rule="nonzero"/></g><g clip-path="url(#188b47932e)"><path fill="#fa9908" d="M 129.464844 33.859375 L 128.046875 44.527344 L 128.027344 44.527344 L 126.613281 33.859375 C 127.078125 33.929688 127.554688 33.960938 128.042969 33.960938 C 128.523438 33.960938 129.003906 33.929688 129.464844 33.859375 " fill-opacity="1" fill-rule="nonzero"/></g><g clip-path="url(#4e019d7c23)"><path fill="#fa9908" d="M 148.175781 24.375 L 148.175781 24.386719 L 137.515625 25.804688 C 137.585938 25.34375 137.617188 24.863281 137.617188 24.378906 C 137.617188 23.898438 137.585938 23.417969 137.515625 22.957031 L 148.175781 24.375 " fill-opacity="1" fill-rule="nonzero"/></g><g clip-path="url(#33b24b3bf5)"><path fill="#fa9908" d="M 118.460938 24.378906 C 118.460938 24.863281 118.492188 25.34375 118.5625 25.804688 L 107.902344 24.386719 L 107.902344 24.375 L 118.5625 22.957031 C 118.492188 23.417969 118.460938 23.898438 118.460938 24.378906 " fill-opacity="1" fill-rule="nonzero"/></g><path fill="#fa9908" d="M 142.28125 10.140625 L 135.746094 18.683594 C 135.179688 17.917969 134.5 17.238281 133.726562 16.671875 L 142.273438 10.125 L 142.28125 10.140625 " fill-opacity="1" fill-rule="nonzero"/><path fill="#fa9908" d="M 122.347656 32.089844 L 113.804688 38.632812 L 113.796875 38.621094 L 120.328125 30.078125 C 120.898438 30.84375 121.582031 31.519531 122.347656 32.089844 " fill-opacity="1" fill-rule="nonzero"/><path fill="#fa9908" d="M 142.28125 38.621094 L 142.273438 38.632812 L 133.726562 32.089844 C 134.5 31.519531 135.179688 30.84375 135.746094 30.078125 L 142.28125 38.621094 " fill-opacity="1" fill-rule="nonzero"/><path fill="#fa9908" d="M 122.347656 16.671875 C 121.582031 17.238281 120.898438 17.917969 120.328125 18.683594 L 113.796875 10.140625 L 113.804688 10.125 L 122.347656 16.671875 " fill-opacity="1" fill-rule="nonzero"/><path fill="#fa9908" d="M 134.1875 9.769531 L 132.542969 15.925781 C 132.035156 15.648438 131.5 15.421875 130.9375 15.238281 L 134.175781 9.769531 L 134.1875 9.769531 " fill-opacity="1" fill-rule="nonzero"/><path fill="#fa9908" d="M 125.140625 33.519531 L 121.902344 38.992188 L 121.886719 38.992188 L 123.535156 32.835938 C 124.042969 33.105469 124.578125 33.339844 125.140625 33.519531 " fill-opacity="1" fill-rule="nonzero"/><path fill="#fa9908" d="M 142.644531 30.523438 L 142.640625 30.53125 L 136.492188 28.890625 C 136.769531 28.375 136.996094 27.839844 137.175781 27.277344 L 142.644531 30.523438 " fill-opacity="1" fill-rule="nonzero"/><path fill="#fa9908" d="M 119.585938 19.871094 C 119.304688 20.386719 119.082031 20.921875 118.898438 21.484375 L 113.429688 18.238281 L 113.4375 18.230469 L 119.585938 19.871094 " fill-opacity="1" fill-rule="nonzero"/><path fill="#fa9908" d="M 142.714844 18.398438 L 137.203125 21.585938 C 137.035156 21.023438 136.8125 20.480469 136.539062 19.964844 L 142.707031 18.386719 L 142.714844 18.398438 " fill-opacity="1" fill-rule="nonzero"/><path fill="#fa9908" d="M 119.535156 28.796875 L 113.371094 30.375 L 113.363281 30.359375 L 118.871094 27.175781 C 119.042969 27.738281 119.265625 28.28125 119.535156 28.796875 " fill-opacity="1" fill-rule="nonzero"/><path fill="#fa9908" d="M 134.027344 39.054688 L 134.019531 39.0625 L 130.835938 33.546875 C 131.398438 33.378906 131.9375 33.15625 132.445312 32.882812 L 134.027344 39.054688 " fill-opacity="1" fill-rule="nonzero"/><path fill="#fa9908" d="M 125.242188 15.210938 C 124.679688 15.382812 124.136719 15.605469 123.628906 15.878906 L 122.050781 9.699219 L 122.058594 9.699219 L 125.242188 15.210938 " fill-opacity="1" fill-rule="nonzero"/><path fill="#fa9908" d="M 136.03125 24.378906 C 136.03125 24.78125 136.003906 25.183594 135.945312 25.570312 C 135.878906 25.992188 135.789062 26.402344 135.664062 26.796875 C 135.511719 27.265625 135.324219 27.714844 135.09375 28.144531 C 134.914062 28.488281 134.703125 28.816406 134.472656 29.132812 C 133.996094 29.773438 133.429688 30.339844 132.785156 30.8125 C 132.453125 31.0625 132.097656 31.285156 131.71875 31.476562 C 131.292969 31.703125 130.839844 31.890625 130.371094 32.03125 C 130.003906 32.144531 129.617188 32.230469 129.230469 32.289062 C 128.84375 32.347656 128.441406 32.375 128.042969 32.375 C 127.632812 32.375 127.238281 32.347656 126.847656 32.289062 C 126.429688 32.222656 126.015625 32.125 125.621094 32.007812 C 125.152344 31.855469 124.703125 31.664062 124.28125 31.4375 C 123.9375 31.253906 123.601562 31.046875 123.292969 30.8125 C 122.652344 30.339844 122.082031 29.773438 121.605469 29.132812 C 121.355469 28.792969 121.136719 28.4375 120.945312 28.0625 C 120.71875 27.632812 120.53125 27.179688 120.390625 26.710938 C 120.277344 26.34375 120.191406 25.960938 120.128906 25.570312 C 120.074219 25.183594 120.046875 24.78125 120.046875 24.378906 C 120.046875 23.980469 120.074219 23.578125 120.128906 23.191406 C 120.199219 22.765625 120.289062 22.359375 120.414062 21.964844 C 120.566406 21.496094 120.753906 21.046875 120.984375 20.617188 C 121.164062 20.273438 121.375 19.945312 121.605469 19.628906 C 122.082031 18.988281 122.652344 18.421875 123.292969 17.945312 C 123.625 17.699219 123.980469 17.476562 124.359375 17.285156 C 124.785156 17.058594 125.238281 16.871094 125.707031 16.730469 C 126.078125 16.617188 126.457031 16.53125 126.847656 16.46875 C 127.238281 16.414062 127.632812 16.386719 128.042969 16.386719 C 128.441406 16.386719 128.84375 16.414062 129.230469 16.46875 C 129.648438 16.539062 130.058594 16.628906 130.457031 16.753906 C 130.925781 16.90625 131.371094 17.09375 131.796875 17.324219 C 132.140625 17.503906 132.476562 17.714844 132.785156 17.945312 C 133.429688 18.421875 133.996094 18.988281 134.472656 19.628906 C 134.71875 19.96875 134.941406 20.324219 135.132812 20.695312 C 135.359375 21.125 135.546875 21.578125 135.6875 22.050781 C 135.800781 22.417969 135.886719 22.800781 135.945312 23.191406 C 136.003906 23.578125 136.03125 23.980469 136.03125 24.378906 " fill-opacity="1" fill-rule="nonzero"/><g fill="#ffffff" fill-opacity="1"><g transform="translate(2.050934, 33.093932)"><g><path d="M 17.59375 -20.265625 C 17.507812 -19.835938 17.304688 -19.414062 16.984375 -19 C 16.671875 -18.59375 16.316406 -18.25 15.921875 -17.96875 C 15.878906 -17.914062 15.78125 -17.859375 15.625 -17.796875 C 15.476562 -17.734375 15.316406 -17.664062 15.140625 -17.59375 C 14.972656 -17.53125 14.804688 -17.472656 14.640625 -17.421875 C 14.472656 -17.367188 14.34375 -17.335938 14.25 -17.328125 C 14.164062 -17.304688 14.097656 -17.3125 14.046875 -17.34375 C 14.003906 -17.375 13.960938 -17.410156 13.921875 -17.453125 C 13.878906 -17.492188 13.828125 -17.53125 13.765625 -17.5625 C 13.710938 -17.601562 13.632812 -17.625 13.53125 -17.625 C 13.414062 -17.625 13.34375 -17.648438 13.3125 -17.703125 C 13.289062 -17.765625 13.304688 -17.875 13.359375 -18.03125 C 13.378906 -18.082031 13.410156 -18.148438 13.453125 -18.234375 C 13.503906 -18.328125 13.585938 -18.445312 13.703125 -18.59375 C 13.785156 -18.6875 13.851562 -18.789062 13.90625 -18.90625 C 13.96875 -19.019531 13.976562 -19.125 13.9375 -19.21875 C 13.90625 -19.320312 13.804688 -19.40625 13.640625 -19.46875 C 13.484375 -19.53125 13.226562 -19.5625 12.875 -19.5625 C 12.507812 -19.5625 12.039062 -19.515625 11.46875 -19.421875 C 10.851562 -19.335938 10.210938 -19.179688 9.546875 -18.953125 C 8.878906 -18.722656 8.226562 -18.457031 7.59375 -18.15625 C 6.96875 -17.863281 6.390625 -17.546875 5.859375 -17.203125 C 5.335938 -16.859375 4.90625 -16.523438 4.5625 -16.203125 C 4.226562 -15.878906 4.015625 -15.570312 3.921875 -15.28125 C 3.828125 -15 3.90625 -14.769531 4.15625 -14.59375 C 4.375 -14.4375 4.707031 -14.300781 5.15625 -14.1875 C 5.601562 -14.082031 6.113281 -13.984375 6.6875 -13.890625 C 7.269531 -13.804688 7.890625 -13.710938 8.546875 -13.609375 C 9.210938 -13.515625 9.875 -13.398438 10.53125 -13.265625 C 11.1875 -13.140625 11.8125 -12.976562 12.40625 -12.78125 C 13.007812 -12.582031 13.535156 -12.335938 13.984375 -12.046875 C 14.304688 -11.828125 14.578125 -11.617188 14.796875 -11.421875 C 15.015625 -11.222656 15.191406 -11.03125 15.328125 -10.84375 C 15.460938 -10.65625 15.570312 -10.46875 15.65625 -10.28125 C 15.738281 -10.101562 15.8125 -9.921875 15.875 -9.734375 C 15.90625 -9.617188 15.972656 -9.488281 16.078125 -9.34375 C 16.191406 -9.207031 16.3125 -9.039062 16.4375 -8.84375 C 16.5625 -8.65625 16.675781 -8.429688 16.78125 -8.171875 C 16.882812 -7.921875 16.953125 -7.625 16.984375 -7.28125 C 17.023438 -6.59375 16.882812 -5.941406 16.5625 -5.328125 C 16.25 -4.722656 15.84375 -4.160156 15.34375 -3.640625 C 14.84375 -3.128906 14.285156 -2.664062 13.671875 -2.25 C 13.066406 -1.84375 12.484375 -1.503906 11.921875 -1.234375 C 11.429688 -1.003906 10.910156 -0.785156 10.359375 -0.578125 C 9.816406 -0.367188 9.253906 -0.1875 8.671875 -0.03125 C 8.097656 0.113281 7.515625 0.226562 6.921875 0.3125 C 6.328125 0.40625 5.738281 0.453125 5.15625 0.453125 C 4.1875 0.453125 3.28125 0.316406 2.4375 0.046875 C 1.601562 -0.210938 0.875 -0.648438 0.25 -1.265625 C -0.0507812 -1.585938 -0.269531 -1.910156 -0.40625 -2.234375 C -0.539062 -2.566406 -0.609375 -2.894531 -0.609375 -3.21875 C -0.609375 -3.59375 -0.53125 -3.960938 -0.375 -4.328125 C -0.21875 -4.691406 -0.015625 -5.035156 0.234375 -5.359375 C 0.484375 -5.679688 0.753906 -5.96875 1.046875 -6.21875 C 1.347656 -6.46875 1.644531 -6.671875 1.9375 -6.828125 C 2.34375 -7.054688 2.765625 -7.273438 3.203125 -7.484375 C 3.640625 -7.703125 4.082031 -7.894531 4.53125 -8.0625 C 4.976562 -8.238281 5.421875 -8.378906 5.859375 -8.484375 C 6.304688 -8.597656 6.738281 -8.671875 7.15625 -8.703125 C 7.332031 -8.722656 7.554688 -8.742188 7.828125 -8.765625 C 8.097656 -8.785156 8.347656 -8.796875 8.578125 -8.796875 C 8.734375 -8.796875 8.863281 -8.753906 8.96875 -8.671875 C 9.070312 -8.597656 9.113281 -8.53125 9.09375 -8.46875 C 9.039062 -8.351562 8.945312 -8.296875 8.8125 -8.296875 C 8.6875 -8.296875 8.539062 -8.273438 8.375 -8.234375 C 8.175781 -8.179688 7.976562 -8.144531 7.78125 -8.125 C 7.582031 -8.101562 7.40625 -8.066406 7.25 -8.015625 C 6.070312 -7.742188 5.078125 -7.398438 4.265625 -6.984375 C 3.453125 -6.566406 2.800781 -6.144531 2.3125 -5.71875 C 1.832031 -5.300781 1.503906 -4.898438 1.328125 -4.515625 C 1.160156 -4.140625 1.113281 -3.859375 1.1875 -3.671875 C 1.28125 -3.390625 1.46875 -3.171875 1.75 -3.015625 C 2.03125 -2.859375 2.347656 -2.742188 2.703125 -2.671875 C 3.054688 -2.609375 3.410156 -2.570312 3.765625 -2.5625 C 4.128906 -2.550781 4.441406 -2.554688 4.703125 -2.578125 C 5.304688 -2.609375 5.976562 -2.695312 6.71875 -2.84375 C 7.457031 -2.988281 8.207031 -3.175781 8.96875 -3.40625 C 9.726562 -3.644531 10.46875 -3.925781 11.1875 -4.25 C 11.914062 -4.582031 12.554688 -4.941406 13.109375 -5.328125 C 13.671875 -5.722656 14.125 -6.144531 14.46875 -6.59375 C 14.8125 -7.039062 14.984375 -7.515625 14.984375 -8.015625 C 14.984375 -8.179688 14.957031 -8.34375 14.90625 -8.5 C 14.863281 -8.65625 14.800781 -8.820312 14.71875 -9 C 14.5625 -9.300781 14.265625 -9.554688 13.828125 -9.765625 C 13.398438 -9.984375 12.878906 -10.164062 12.265625 -10.3125 C 11.660156 -10.46875 11.003906 -10.601562 10.296875 -10.71875 C 9.585938 -10.84375 8.890625 -10.960938 8.203125 -11.078125 C 7.515625 -11.203125 6.859375 -11.34375 6.234375 -11.5 C 5.617188 -11.65625 5.097656 -11.847656 4.671875 -12.078125 C 4.191406 -12.335938 3.84375 -12.59375 3.625 -12.84375 C 3.40625 -13.101562 3.28125 -13.421875 3.25 -13.796875 C 3.238281 -13.835938 3.207031 -13.910156 3.15625 -14.015625 C 3.101562 -14.117188 3.039062 -14.226562 2.96875 -14.34375 C 2.90625 -14.457031 2.84375 -14.566406 2.78125 -14.671875 C 2.71875 -14.773438 2.671875 -14.859375 2.640625 -14.921875 C 2.472656 -15.222656 2.390625 -15.550781 2.390625 -15.90625 C 2.390625 -16.289062 2.476562 -16.691406 2.65625 -17.109375 C 2.84375 -17.523438 3.070312 -17.882812 3.34375 -18.1875 C 3.832031 -18.75 4.484375 -19.273438 5.296875 -19.765625 C 6.109375 -20.253906 6.992188 -20.675781 7.953125 -21.03125 C 8.921875 -21.394531 9.914062 -21.6875 10.9375 -21.90625 C 11.957031 -22.132812 12.921875 -22.265625 13.828125 -22.296875 C 14.203125 -22.304688 14.625 -22.28125 15.09375 -22.21875 C 15.5625 -22.15625 15.992188 -22.039062 16.390625 -21.875 C 16.785156 -21.71875 17.101562 -21.503906 17.34375 -21.234375 C 17.582031 -20.972656 17.664062 -20.648438 17.59375 -20.265625 Z M 17.59375 -20.265625 "/></g></g></g><g fill="#ffffff" fill-opacity="1"><g transform="translate(20.461606, 33.093932)"><g><path d="M 5.0625 -20.265625 C 5.070312 -20.054688 5.0625 -19.820312 5.03125 -19.5625 C 5.007812 -19.3125 4.96875 -19.066406 4.90625 -18.828125 C 4.851562 -18.585938 4.773438 -18.375 4.671875 -18.1875 C 4.578125 -18.007812 4.460938 -17.882812 4.328125 -17.8125 C 3.984375 -17.632812 3.6875 -17.546875 3.4375 -17.546875 C 3.226562 -17.546875 3.046875 -17.59375 2.890625 -17.6875 C 2.742188 -17.789062 2.597656 -17.90625 2.453125 -18.03125 C 2.242188 -18.195312 2.066406 -18.410156 1.921875 -18.671875 C 1.785156 -18.941406 1.71875 -19.203125 1.71875 -19.453125 C 1.71875 -19.648438 1.75 -19.890625 1.8125 -20.171875 C 1.882812 -20.460938 1.972656 -20.738281 2.078125 -21 C 2.179688 -21.269531 2.289062 -21.515625 2.40625 -21.734375 C 2.53125 -21.960938 2.648438 -22.117188 2.765625 -22.203125 C 2.941406 -22.347656 3.101562 -22.425781 3.25 -22.4375 C 3.40625 -22.457031 3.53125 -22.453125 3.625 -22.421875 C 3.84375 -22.367188 4.039062 -22.300781 4.21875 -22.21875 C 4.394531 -22.144531 4.539062 -22.023438 4.65625 -21.859375 C 4.78125 -21.703125 4.875 -21.492188 4.9375 -21.234375 C 5 -20.972656 5.039062 -20.648438 5.0625 -20.265625 Z M 3.78125 -13.328125 C 3.832031 -13.273438 3.867188 -13.101562 3.890625 -12.8125 C 3.921875 -12.519531 3.9375 -12.140625 3.9375 -11.671875 C 3.9375 -11.359375 3.929688 -11.019531 3.921875 -10.65625 C 3.910156 -10.300781 3.894531 -9.929688 3.875 -9.546875 C 3.863281 -9.160156 3.847656 -8.773438 3.828125 -8.390625 C 3.804688 -8.003906 3.789062 -7.632812 3.78125 -7.28125 C 3.75 -6.695312 3.726562 -6.160156 3.71875 -5.671875 C 3.71875 -5.179688 3.71875 -4.707031 3.71875 -4.25 C 3.71875 -3.65625 3.722656 -3.109375 3.734375 -2.609375 C 3.742188 -2.109375 3.75 -1.691406 3.75 -1.359375 C 3.75 -1.003906 3.734375 -0.726562 3.703125 -0.53125 C 3.679688 -0.34375 3.632812 -0.238281 3.5625 -0.21875 C 3.46875 -0.195312 3.390625 -0.148438 3.328125 -0.078125 C 3.265625 -0.015625 3.207031 0.046875 3.15625 0.109375 C 3.101562 0.171875 3.039062 0.222656 2.96875 0.265625 C 2.90625 0.316406 2.828125 0.332031 2.734375 0.3125 C 2.679688 0.300781 2.59375 0.253906 2.46875 0.171875 C 2.34375 0.0859375 2.207031 -0.0078125 2.0625 -0.125 C 1.925781 -0.25 1.796875 -0.390625 1.671875 -0.546875 C 1.546875 -0.703125 1.460938 -0.863281 1.421875 -1.03125 C 1.398438 -1.113281 1.378906 -1.273438 1.359375 -1.515625 C 1.347656 -1.765625 1.335938 -2.066406 1.328125 -2.421875 C 1.316406 -2.773438 1.304688 -3.164062 1.296875 -3.59375 C 1.285156 -4.019531 1.273438 -4.453125 1.265625 -4.890625 C 1.265625 -5.335938 1.265625 -5.769531 1.265625 -6.1875 C 1.265625 -6.613281 1.265625 -7 1.265625 -7.34375 C 1.265625 -7.875 1.28125 -8.410156 1.3125 -8.953125 C 1.351562 -9.503906 1.394531 -10.015625 1.4375 -10.484375 C 1.488281 -10.960938 1.535156 -11.378906 1.578125 -11.734375 C 1.628906 -12.097656 1.664062 -12.351562 1.6875 -12.5 C 1.726562 -12.75 1.769531 -12.941406 1.8125 -13.078125 C 1.863281 -13.222656 1.914062 -13.320312 1.96875 -13.375 C 2.03125 -13.4375 2.085938 -13.472656 2.140625 -13.484375 C 2.203125 -13.503906 2.265625 -13.519531 2.328125 -13.53125 C 2.453125 -13.550781 2.59375 -13.554688 2.75 -13.546875 C 2.914062 -13.535156 3.070312 -13.519531 3.21875 -13.5 C 3.363281 -13.476562 3.488281 -13.453125 3.59375 -13.421875 C 3.695312 -13.390625 3.757812 -13.359375 3.78125 -13.328125 Z M 3.78125 -13.328125 "/></g></g></g><g fill="#ffffff" fill-opacity="1"><g transform="translate(25.863726, 33.093932)"><g><path d="M 10.59375 -0.671875 C 10.59375 -0.546875 10.546875 -0.40625 10.453125 -0.25 C 10.367188 -0.101562 10.242188 -0.03125 10.078125 -0.03125 C 9.984375 -0.03125 9.910156 -0.0546875 9.859375 -0.109375 C 9.804688 -0.160156 9.753906 -0.1875 9.703125 -0.1875 C 9.628906 -0.1875 9.554688 -0.160156 9.484375 -0.109375 C 9.421875 -0.0546875 9.3125 -0.03125 9.15625 -0.03125 C 8.945312 -0.03125 8.769531 -0.101562 8.625 -0.25 C 8.476562 -0.40625 8.359375 -0.597656 8.265625 -0.828125 C 8.171875 -1.066406 8.097656 -1.320312 8.046875 -1.59375 C 8.003906 -1.863281 7.984375 -2.117188 7.984375 -2.359375 C 7.984375 -2.828125 8 -3.359375 8.03125 -3.953125 C 8.070312 -4.546875 8.113281 -5.15625 8.15625 -5.78125 C 8.207031 -6.40625 8.25 -7.023438 8.28125 -7.640625 C 8.320312 -8.265625 8.34375 -8.84375 8.34375 -9.375 C 8.34375 -10.082031 8.296875 -10.628906 8.203125 -11.015625 C 8.109375 -11.410156 7.941406 -11.609375 7.703125 -11.609375 C 7.472656 -11.578125 7.238281 -11.378906 7 -11.015625 C 6.757812 -10.660156 6.515625 -10.195312 6.265625 -9.625 C 6.023438 -9.0625 5.785156 -8.425781 5.546875 -7.71875 C 5.304688 -7.007812 5.070312 -6.285156 4.84375 -5.546875 C 4.625 -4.804688 4.414062 -4.085938 4.21875 -3.390625 C 4.019531 -2.691406 3.84375 -2.066406 3.6875 -1.515625 C 3.539062 -0.972656 3.410156 -0.53125 3.296875 -0.1875 C 3.179688 0.144531 3.101562 0.3125 3.0625 0.3125 C 2.976562 0.3125 2.914062 0.289062 2.875 0.25 C 2.832031 0.21875 2.789062 0.179688 2.75 0.140625 C 2.71875 0.0976562 2.675781 0.0546875 2.625 0.015625 C 2.570312 -0.015625 2.492188 -0.03125 2.390625 -0.03125 C 2.296875 -0.03125 2.234375 -0.0195312 2.203125 0 C 2.171875 0.0195312 2.132812 0.046875 2.09375 0.078125 C 2.050781 0.109375 2 0.132812 1.9375 0.15625 C 1.875 0.175781 1.765625 0.1875 1.609375 0.1875 C 1.421875 0.1875 1.238281 0.140625 1.0625 0.046875 C 0.882812 -0.046875 0.796875 -0.191406 0.796875 -0.390625 C 0.796875 -0.515625 0.816406 -0.769531 0.859375 -1.15625 C 0.898438 -1.539062 0.945312 -2.015625 1 -2.578125 C 1.0625 -3.148438 1.125 -3.785156 1.1875 -4.484375 C 1.25 -5.179688 1.304688 -5.898438 1.359375 -6.640625 C 1.421875 -7.390625 1.472656 -8.132812 1.515625 -8.875 C 1.554688 -9.625 1.578125 -10.332031 1.578125 -11 C 1.578125 -11.332031 1.570312 -11.640625 1.5625 -11.921875 C 1.550781 -12.210938 1.546875 -12.488281 1.546875 -12.75 C 1.546875 -12.8125 1.578125 -12.84375 1.640625 -12.84375 C 1.765625 -12.84375 1.859375 -12.816406 1.921875 -12.765625 C 1.992188 -12.722656 2.046875 -12.675781 2.078125 -12.625 C 2.109375 -12.570312 2.125 -12.519531 2.125 -12.46875 C 2.132812 -12.425781 2.144531 -12.40625 2.15625 -12.40625 C 2.1875 -12.40625 2.222656 -12.421875 2.265625 -12.453125 C 2.304688 -12.492188 2.347656 -12.535156 2.390625 -12.578125 C 2.441406 -12.617188 2.488281 -12.65625 2.53125 -12.6875 C 2.570312 -12.726562 2.609375 -12.75 2.640625 -12.75 L 2.796875 -12.75 C 2.953125 -12.75 3.0625 -12.769531 3.125 -12.8125 C 3.1875 -12.863281 3.226562 -12.914062 3.25 -12.96875 C 3.28125 -13.03125 3.300781 -13.082031 3.3125 -13.125 C 3.320312 -13.175781 3.351562 -13.203125 3.40625 -13.203125 C 3.4375 -13.203125 3.476562 -13.175781 3.53125 -13.125 C 3.59375 -13.082031 3.648438 -13.003906 3.703125 -12.890625 C 3.753906 -12.785156 3.800781 -12.644531 3.84375 -12.46875 C 3.882812 -12.289062 3.90625 -12.078125 3.90625 -11.828125 C 3.90625 -11.492188 3.890625 -11.070312 3.859375 -10.5625 C 3.835938 -10.0625 3.804688 -9.523438 3.765625 -8.953125 C 3.734375 -8.378906 3.703125 -7.796875 3.671875 -7.203125 C 3.648438 -6.617188 3.632812 -6.09375 3.625 -5.625 C 3.726562 -6.0625 3.859375 -6.550781 4.015625 -7.09375 C 4.179688 -7.644531 4.367188 -8.195312 4.578125 -8.75 C 4.796875 -9.3125 5.03125 -9.859375 5.28125 -10.390625 C 5.53125 -10.921875 5.796875 -11.394531 6.078125 -11.8125 C 6.367188 -12.226562 6.675781 -12.5625 7 -12.8125 C 7.320312 -13.070312 7.660156 -13.203125 8.015625 -13.203125 C 8.566406 -13.203125 9.019531 -13.097656 9.375 -12.890625 C 9.738281 -12.679688 10.023438 -12.394531 10.234375 -12.03125 C 10.441406 -11.664062 10.582031 -11.238281 10.65625 -10.75 C 10.738281 -10.269531 10.78125 -9.75 10.78125 -9.1875 C 10.78125 -8.71875 10.757812 -8.21875 10.71875 -7.6875 C 10.675781 -7.164062 10.628906 -6.644531 10.578125 -6.125 C 10.535156 -5.601562 10.492188 -5.085938 10.453125 -4.578125 C 10.421875 -4.066406 10.40625 -3.59375 10.40625 -3.15625 C 10.40625 -2.601562 10.4375 -2.109375 10.5 -1.671875 C 10.5625 -1.234375 10.59375 -0.898438 10.59375 -0.671875 Z M 10.59375 -0.671875 "/></g></g></g><g fill="#ffffff" fill-opacity="1"><g transform="translate(38.235822, 33.093932)"><g><path d="M 5.0625 -20.265625 C 5.070312 -20.054688 5.0625 -19.820312 5.03125 -19.5625 C 5.007812 -19.3125 4.96875 -19.066406 4.90625 -18.828125 C 4.851562 -18.585938 4.773438 -18.375 4.671875 -18.1875 C 4.578125 -18.007812 4.460938 -17.882812 4.328125 -17.8125 C 3.984375 -17.632812 3.6875 -17.546875 3.4375 -17.546875 C 3.226562 -17.546875 3.046875 -17.59375 2.890625 -17.6875 C 2.742188 -17.789062 2.597656 -17.90625 2.453125 -18.03125 C 2.242188 -18.195312 2.066406 -18.410156 1.921875 -18.671875 C 1.785156 -18.941406 1.71875 -19.203125 1.71875 -19.453125 C 1.71875 -19.648438 1.75 -19.890625 1.8125 -20.171875 C 1.882812 -20.460938 1.972656 -20.738281 2.078125 -21 C 2.179688 -21.269531 2.289062 -21.515625 2.40625 -21.734375 C 2.53125 -21.960938 2.648438 -22.117188 2.765625 -22.203125 C 2.941406 -22.347656 3.101562 -22.425781 3.25 -22.4375 C 3.40625 -22.457031 3.53125 -22.453125 3.625 -22.421875 C 3.84375 -22.367188 4.039062 -22.300781 4.21875 -22.21875 C 4.394531 -22.144531 4.539062 -22.023438 4.65625 -21.859375 C 4.78125 -21.703125 4.875 -21.492188 4.9375 -21.234375 C 5 -20.972656 5.039062 -20.648438 5.0625 -20.265625 Z M 3.78125 -13.328125 C 3.832031 -13.273438 3.867188 -13.101562 3.890625 -12.8125 C 3.921875 -12.519531 3.9375 -12.140625 3.9375 -11.671875 C 3.9375 -11.359375 3.929688 -11.019531 3.921875 -10.65625 C 3.910156 -10.300781 3.894531 -9.929688 3.875 -9.546875 C 3.863281 -9.160156 3.847656 -8.773438 3.828125 -8.390625 C 3.804688 -8.003906 3.789062 -7.632812 3.78125 -7.28125 C 3.75 -6.695312 3.726562 -6.160156 3.71875 -5.671875 C 3.71875 -5.179688 3.71875 -4.707031 3.71875 -4.25 C 3.71875 -3.65625 3.722656 -3.109375 3.734375 -2.609375 C 3.742188 -2.109375 3.75 -1.691406 3.75 -1.359375 C 3.75 -1.003906 3.734375 -0.726562 3.703125 -0.53125 C 3.679688 -0.34375 3.632812 -0.238281 3.5625 -0.21875 C 3.46875 -0.195312 3.390625 -0.148438 3.328125 -0.078125 C 3.265625 -0.015625 3.207031 0.046875 3.15625 0.109375 C 3.101562 0.171875 3.039062 0.222656 2.96875 0.265625 C 2.90625 0.316406 2.828125 0.332031 2.734375 0.3125 C 2.679688 0.300781 2.59375 0.253906 2.46875 0.171875 C 2.34375 0.0859375 2.207031 -0.0078125 2.0625 -0.125 C 1.925781 -0.25 1.796875 -0.390625 1.671875 -0.546875 C 1.546875 -0.703125 1.460938 -0.863281 1.421875 -1.03125 C 1.398438 -1.113281 1.378906 -1.273438 1.359375 -1.515625 C 1.347656 -1.765625 1.335938 -2.066406 1.328125 -2.421875 C 1.316406 -2.773438 1.304688 -3.164062 1.296875 -3.59375 C 1.285156 -4.019531 1.273438 -4.453125 1.265625 -4.890625 C 1.265625 -5.335938 1.265625 -5.769531 1.265625 -6.1875 C 1.265625 -6.613281 1.265625 -7 1.265625 -7.34375 C 1.265625 -7.875 1.28125 -8.410156 1.3125 -8.953125 C 1.351562 -9.503906 1.394531 -10.015625 1.4375 -10.484375 C 1.488281 -10.960938 1.535156 -11.378906 1.578125 -11.734375 C 1.628906 -12.097656 1.664062 -12.351562 1.6875 -12.5 C 1.726562 -12.75 1.769531 -12.941406 1.8125 -13.078125 C 1.863281 -13.222656 1.914062 -13.320312 1.96875 -13.375 C 2.03125 -13.4375 2.085938 -13.472656 2.140625 -13.484375 C 2.203125 -13.503906 2.265625 -13.519531 2.328125 -13.53125 C 2.453125 -13.550781 2.59375 -13.554688 2.75 -13.546875 C 2.914062 -13.535156 3.070312 -13.519531 3.21875 -13.5 C 3.363281 -13.476562 3.488281 -13.453125 3.59375 -13.421875 C 3.695312 -13.390625 3.757812 -13.359375 3.78125 -13.328125 Z M 3.78125 -13.328125 "/></g></g></g><g fill="#ffffff" fill-opacity="1"><g transform="translate(43.637941, 33.093932)"><g><path d="M 10.71875 -12.203125 C 10.75 -12.140625 10.765625 -12.078125 10.765625 -12.015625 C 10.773438 -11.953125 10.78125 -11.878906 10.78125 -11.796875 C 10.78125 -11.460938 10.601562 -11.113281 10.25 -10.75 C 9.90625 -10.394531 9.359375 -10.066406 8.609375 -9.765625 C 8.460938 -9.703125 8.328125 -9.671875 8.203125 -9.671875 C 8.046875 -9.671875 7.910156 -9.710938 7.796875 -9.796875 C 7.691406 -9.890625 7.640625 -9.984375 7.640625 -10.078125 C 7.640625 -10.140625 7.675781 -10.210938 7.75 -10.296875 C 7.832031 -10.378906 7.914062 -10.460938 8 -10.546875 C 8.09375 -10.628906 8.175781 -10.707031 8.25 -10.78125 C 8.332031 -10.851562 8.375 -10.910156 8.375 -10.953125 C 8.375 -11.023438 8.304688 -11.0625 8.171875 -11.0625 C 7.960938 -11.0625 7.695312 -11.003906 7.375 -10.890625 C 7.050781 -10.773438 6.710938 -10.617188 6.359375 -10.421875 C 6.003906 -10.234375 5.640625 -10.023438 5.265625 -9.796875 C 4.898438 -9.578125 4.570312 -9.359375 4.28125 -9.140625 C 3.988281 -8.929688 3.753906 -8.742188 3.578125 -8.578125 C 3.398438 -8.421875 3.3125 -8.304688 3.3125 -8.234375 C 3.3125 -8.191406 3.351562 -8.171875 3.4375 -8.171875 L 3.875 -8.171875 C 4.15625 -8.171875 4.515625 -8.15625 4.953125 -8.125 C 5.398438 -8.09375 5.863281 -8.03125 6.34375 -7.9375 C 6.832031 -7.851562 7.320312 -7.726562 7.8125 -7.5625 C 8.3125 -7.40625 8.753906 -7.191406 9.140625 -6.921875 C 9.523438 -6.648438 9.84375 -6.320312 10.09375 -5.9375 C 10.34375 -5.5625 10.46875 -5.109375 10.46875 -4.578125 C 10.46875 -4.304688 10.421875 -4.019531 10.328125 -3.71875 C 10.242188 -3.414062 10.085938 -3.101562 9.859375 -2.78125 C 9.640625 -2.46875 9.335938 -2.144531 8.953125 -1.8125 C 8.578125 -1.488281 8.09375 -1.171875 7.5 -0.859375 C 6.601562 -0.378906 5.769531 -0.0234375 5 0.203125 C 4.226562 0.429688 3.535156 0.546875 2.921875 0.546875 C 2.109375 0.546875 1.46875 0.363281 1 0 C 0.539062 -0.363281 0.3125 -0.878906 0.3125 -1.546875 C 0.3125 -2.046875 0.40625 -2.472656 0.59375 -2.828125 C 0.789062 -3.179688 1.015625 -3.472656 1.265625 -3.703125 C 1.523438 -3.929688 1.785156 -4.097656 2.046875 -4.203125 C 2.304688 -4.316406 2.503906 -4.378906 2.640625 -4.390625 C 2.703125 -4.390625 2.753906 -4.394531 2.796875 -4.40625 C 2.847656 -4.414062 2.898438 -4.421875 2.953125 -4.421875 C 3.046875 -4.421875 3.09375 -4.363281 3.09375 -4.25 L 3.09375 -4.09375 C 3.09375 -4.03125 3.109375 -3.972656 3.140625 -3.921875 C 3.171875 -3.878906 3.1875 -3.832031 3.1875 -3.78125 C 3.1875 -3.71875 3.109375 -3.625 2.953125 -3.5 C 2.804688 -3.382812 2.644531 -3.242188 2.46875 -3.078125 C 2.289062 -2.910156 2.125 -2.734375 1.96875 -2.546875 C 1.820312 -2.359375 1.75 -2.175781 1.75 -2 C 1.75 -1.789062 1.914062 -1.6875 2.25 -1.6875 C 2.664062 -1.6875 3.101562 -1.765625 3.5625 -1.921875 C 4.019531 -2.085938 4.46875 -2.296875 4.90625 -2.546875 C 5.351562 -2.796875 5.773438 -3.078125 6.171875 -3.390625 C 6.566406 -3.703125 6.914062 -4.007812 7.21875 -4.3125 C 7.519531 -4.613281 7.757812 -4.894531 7.9375 -5.15625 C 8.113281 -5.425781 8.203125 -5.640625 8.203125 -5.796875 C 8.203125 -5.984375 8.09375 -6.128906 7.875 -6.234375 C 7.664062 -6.347656 7.375 -6.441406 7 -6.515625 C 6.632812 -6.585938 6.207031 -6.632812 5.71875 -6.65625 C 5.238281 -6.6875 4.726562 -6.703125 4.1875 -6.703125 C 3.632812 -6.703125 3.171875 -6.675781 2.796875 -6.625 C 2.429688 -6.570312 2.207031 -6.546875 2.125 -6.546875 C 2.0625 -6.546875 1.957031 -6.550781 1.8125 -6.5625 C 1.675781 -6.582031 1.539062 -6.628906 1.40625 -6.703125 C 1.269531 -6.785156 1.148438 -6.90625 1.046875 -7.0625 C 0.941406 -7.21875 0.890625 -7.441406 0.890625 -7.734375 C 0.890625 -7.929688 0.929688 -8.148438 1.015625 -8.390625 C 1.109375 -8.640625 1.265625 -8.90625 1.484375 -9.1875 C 1.703125 -9.476562 2.003906 -9.789062 2.390625 -10.125 C 2.785156 -10.457031 3.28125 -10.800781 3.875 -11.15625 C 4.507812 -11.539062 5.101562 -11.851562 5.65625 -12.09375 C 6.207031 -12.34375 6.707031 -12.535156 7.15625 -12.671875 C 7.613281 -12.804688 8.007812 -12.894531 8.34375 -12.9375 C 8.6875 -12.988281 8.957031 -13.015625 9.15625 -13.015625 C 9.625 -13.015625 9.972656 -12.953125 10.203125 -12.828125 C 10.429688 -12.710938 10.601562 -12.503906 10.71875 -12.203125 Z M 10.71875 -12.203125 "/></g></g></g><g fill="#ffffff" fill-opacity="1"><g transform="translate(55.311487, 33.093932)"><g><path d="M 11.796875 -4.765625 C 11.796875 -4.171875 11.664062 -3.566406 11.40625 -2.953125 C 11.144531 -2.347656 10.78125 -1.796875 10.3125 -1.296875 C 9.84375 -0.796875 9.269531 -0.382812 8.59375 -0.0625 C 7.925781 0.257812 7.171875 0.421875 6.328125 0.421875 C 5.648438 0.421875 4.960938 0.273438 4.265625 -0.015625 C 3.566406 -0.304688 2.9375 -0.722656 2.375 -1.265625 C 1.8125 -1.804688 1.351562 -2.460938 1 -3.234375 C 0.65625 -4.015625 0.484375 -4.890625 0.484375 -5.859375 C 0.484375 -6.804688 0.664062 -7.707031 1.03125 -8.5625 C 1.394531 -9.414062 1.878906 -10.160156 2.484375 -10.796875 C 3.085938 -11.429688 3.773438 -11.9375 4.546875 -12.3125 C 5.316406 -12.6875 6.109375 -12.875 6.921875 -12.875 C 7.679688 -12.875 8.320312 -12.769531 8.84375 -12.5625 C 9.363281 -12.363281 9.785156 -12.125 10.109375 -11.84375 C 10.429688 -11.570312 10.660156 -11.289062 10.796875 -11 C 10.929688 -10.71875 11 -10.488281 11 -10.3125 C 11 -9.914062 10.914062 -9.59375 10.75 -9.34375 C 10.59375 -9.09375 10.40625 -8.90625 10.1875 -8.78125 C 9.976562 -8.65625 9.773438 -8.585938 9.578125 -8.578125 C 9.390625 -8.566406 9.269531 -8.597656 9.21875 -8.671875 C 9.175781 -8.710938 9.128906 -8.734375 9.078125 -8.734375 C 9.035156 -8.734375 8.988281 -8.722656 8.9375 -8.703125 C 8.882812 -8.679688 8.832031 -8.660156 8.78125 -8.640625 C 8.738281 -8.617188 8.703125 -8.617188 8.671875 -8.640625 C 8.617188 -8.660156 8.613281 -8.707031 8.65625 -8.78125 C 8.707031 -8.851562 8.734375 -8.914062 8.734375 -8.96875 C 8.734375 -9.0625 8.726562 -9.164062 8.71875 -9.28125 C 8.71875 -9.40625 8.742188 -9.535156 8.796875 -9.671875 C 8.890625 -9.859375 8.925781 -10.0625 8.90625 -10.28125 C 8.894531 -10.507812 8.820312 -10.71875 8.6875 -10.90625 C 8.550781 -11.101562 8.332031 -11.269531 8.03125 -11.40625 C 7.738281 -11.539062 7.359375 -11.609375 6.890625 -11.609375 C 6.554688 -11.609375 6.160156 -11.5 5.703125 -11.28125 C 5.253906 -11.070312 4.820312 -10.734375 4.40625 -10.265625 C 4 -9.804688 3.65625 -9.222656 3.375 -8.515625 C 3.09375 -7.804688 2.953125 -6.960938 2.953125 -5.984375 C 2.953125 -5.554688 3.003906 -5.109375 3.109375 -4.640625 C 3.222656 -4.171875 3.414062 -3.738281 3.6875 -3.34375 C 3.96875 -2.957031 4.347656 -2.632812 4.828125 -2.375 C 5.304688 -2.125 5.910156 -2 6.640625 -2 C 7.128906 -2 7.578125 -2.066406 7.984375 -2.203125 C 8.390625 -2.335938 8.757812 -2.507812 9.09375 -2.71875 C 9.425781 -2.925781 9.722656 -3.148438 9.984375 -3.390625 C 10.242188 -3.640625 10.460938 -3.875 10.640625 -4.09375 C 10.816406 -4.320312 10.953125 -4.519531 11.046875 -4.6875 C 11.140625 -4.851562 11.195312 -4.957031 11.21875 -5 C 11.257812 -5.050781 11.3125 -5.085938 11.375 -5.109375 C 11.4375 -5.140625 11.5 -5.144531 11.5625 -5.125 C 11.625 -5.113281 11.675781 -5.078125 11.71875 -5.015625 C 11.769531 -4.960938 11.796875 -4.878906 11.796875 -4.765625 Z M 11.796875 -4.765625 "/></g></g></g><g fill="#ffffff" fill-opacity="1"><g transform="translate(67.90091, 33.093932)"><g><path d="M 11.859375 -6.546875 C 11.859375 -5.460938 11.703125 -4.484375 11.390625 -3.609375 C 11.078125 -2.742188 10.644531 -2.003906 10.09375 -1.390625 C 9.550781 -0.785156 8.921875 -0.316406 8.203125 0.015625 C 7.492188 0.347656 6.742188 0.515625 5.953125 0.515625 C 5.617188 0.515625 5.253906 0.472656 4.859375 0.390625 C 4.460938 0.316406 4.066406 0.191406 3.671875 0.015625 C 3.285156 -0.160156 2.90625 -0.394531 2.53125 -0.6875 C 2.15625 -0.976562 1.820312 -1.332031 1.53125 -1.75 C 1.25 -2.175781 1.019531 -2.671875 0.84375 -3.234375 C 0.675781 -3.804688 0.597656 -4.46875 0.609375 -5.21875 C 0.609375 -6.0625 0.707031 -6.832031 0.90625 -7.53125 C 1.113281 -8.226562 1.378906 -8.851562 1.703125 -9.40625 C 2.035156 -9.96875 2.410156 -10.445312 2.828125 -10.84375 C 3.242188 -11.25 3.65625 -11.585938 4.0625 -11.859375 C 4.476562 -12.140625 4.878906 -12.347656 5.265625 -12.484375 C 5.648438 -12.617188 5.976562 -12.695312 6.25 -12.71875 C 6.394531 -12.726562 6.457031 -12.710938 6.4375 -12.671875 C 6.425781 -12.628906 6.390625 -12.582031 6.328125 -12.53125 C 6.265625 -12.476562 6.210938 -12.425781 6.171875 -12.375 C 6.128906 -12.320312 6.144531 -12.289062 6.21875 -12.28125 C 6.289062 -12.257812 6.347656 -12.238281 6.390625 -12.21875 C 6.441406 -12.195312 6.492188 -12.171875 6.546875 -12.140625 L 6.671875 -12.28125 C 6.742188 -12.332031 6.8125 -12.359375 6.875 -12.359375 C 6.945312 -12.359375 7.007812 -12.347656 7.0625 -12.328125 C 7.113281 -12.316406 7.15625 -12.3125 7.1875 -12.3125 C 7.21875 -12.3125 7.238281 -12.34375 7.25 -12.40625 C 7.269531 -12.519531 7.304688 -12.582031 7.359375 -12.59375 C 7.421875 -12.613281 7.554688 -12.625 7.765625 -12.625 C 7.890625 -12.625 8.078125 -12.585938 8.328125 -12.515625 C 8.578125 -12.441406 8.851562 -12.316406 9.15625 -12.140625 C 9.46875 -11.960938 9.78125 -11.726562 10.09375 -11.4375 C 10.414062 -11.144531 10.707031 -10.769531 10.96875 -10.3125 C 11.226562 -9.863281 11.441406 -9.328125 11.609375 -8.703125 C 11.773438 -8.085938 11.859375 -7.367188 11.859375 -6.546875 Z M 6.25 -11.09375 C 5.894531 -10.882812 5.539062 -10.59375 5.1875 -10.21875 C 4.832031 -9.84375 4.507812 -9.410156 4.21875 -8.921875 C 3.9375 -8.441406 3.707031 -7.898438 3.53125 -7.296875 C 3.363281 -6.691406 3.28125 -6.0625 3.28125 -5.40625 C 3.28125 -4.6875 3.34375 -4.035156 3.46875 -3.453125 C 3.601562 -2.878906 3.789062 -2.382812 4.03125 -1.96875 C 4.28125 -1.5625 4.582031 -1.25 4.9375 -1.03125 C 5.300781 -0.8125 5.707031 -0.703125 6.15625 -0.703125 C 6.5625 -0.703125 6.960938 -0.8125 7.359375 -1.03125 C 7.765625 -1.257812 8.117188 -1.601562 8.421875 -2.0625 C 8.734375 -2.519531 8.984375 -3.082031 9.171875 -3.75 C 9.367188 -4.425781 9.46875 -5.210938 9.46875 -6.109375 C 9.46875 -7.003906 9.347656 -7.753906 9.109375 -8.359375 C 8.867188 -8.972656 8.601562 -9.46875 8.3125 -9.84375 C 8.019531 -10.226562 7.738281 -10.5 7.46875 -10.65625 C 7.195312 -10.820312 7.03125 -10.90625 6.96875 -10.90625 C 6.820312 -10.90625 6.707031 -10.90625 6.625 -10.90625 C 6.550781 -10.90625 6.425781 -10.96875 6.25 -11.09375 Z M 6.25 -11.09375 "/></g></g></g><g fill="#ffffff" fill-opacity="1"><g transform="translate(80.909462, 33.093932)"><g><path d="M 4.15625 -20.734375 C 4.15625 -20.585938 4.144531 -20.300781 4.125 -19.875 C 4.101562 -19.445312 4.078125 -18.9375 4.046875 -18.34375 C 4.015625 -17.75 3.976562 -17.097656 3.9375 -16.390625 C 3.90625 -15.679688 3.867188 -14.972656 3.828125 -14.265625 C 3.785156 -13.554688 3.75 -12.867188 3.71875 -12.203125 C 3.6875 -11.535156 3.671875 -10.957031 3.671875 -10.46875 C 3.648438 -10.164062 3.632812 -9.832031 3.625 -9.46875 C 3.625 -9.101562 3.625 -8.71875 3.625 -8.3125 C 3.625 -7.757812 3.625 -7.1875 3.625 -6.59375 C 3.632812 -6 3.644531 -5.410156 3.65625 -4.828125 C 3.664062 -4.242188 3.675781 -3.6875 3.6875 -3.15625 C 3.695312 -2.625 3.707031 -2.144531 3.71875 -1.71875 C 3.726562 -1.300781 3.734375 -0.945312 3.734375 -0.65625 C 3.742188 -0.375 3.75 -0.195312 3.75 -0.125 C 3.75 0.0195312 3.726562 0.128906 3.6875 0.203125 C 3.644531 0.285156 3.585938 0.335938 3.515625 0.359375 C 3.453125 0.390625 3.382812 0.394531 3.3125 0.375 C 3.238281 0.363281 3.175781 0.34375 3.125 0.3125 C 3.0625 0.28125 3.007812 0.242188 2.96875 0.203125 C 2.9375 0.160156 2.910156 0.128906 2.890625 0.109375 C 2.867188 0.0859375 2.847656 0.0820312 2.828125 0.09375 C 2.816406 0.101562 2.804688 0.144531 2.796875 0.21875 C 2.765625 0.488281 2.703125 0.691406 2.609375 0.828125 C 2.523438 0.960938 2.429688 1.050781 2.328125 1.09375 C 2.234375 1.144531 2.144531 1.160156 2.0625 1.140625 C 1.976562 1.117188 1.925781 1.082031 1.90625 1.03125 C 1.882812 0.976562 1.847656 0.945312 1.796875 0.9375 C 1.753906 0.925781 1.707031 0.914062 1.65625 0.90625 C 1.601562 0.90625 1.550781 0.890625 1.5 0.859375 C 1.457031 0.835938 1.429688 0.785156 1.421875 0.703125 C 1.335938 0.347656 1.285156 -0.0976562 1.265625 -0.640625 C 1.242188 -1.179688 1.234375 -1.796875 1.234375 -2.484375 C 1.234375 -3.078125 1.238281 -3.710938 1.25 -4.390625 C 1.257812 -5.078125 1.265625 -5.773438 1.265625 -6.484375 C 1.265625 -6.898438 1.265625 -7.3125 1.265625 -7.71875 C 1.265625 -8.132812 1.253906 -8.550781 1.234375 -8.96875 L 1.234375 -9.953125 C 1.234375 -10.785156 1.253906 -11.625 1.296875 -12.46875 C 1.335938 -13.3125 1.390625 -14.117188 1.453125 -14.890625 C 1.515625 -15.671875 1.582031 -16.40625 1.65625 -17.09375 C 1.726562 -17.78125 1.789062 -18.382812 1.84375 -18.90625 C 1.894531 -19.4375 1.9375 -19.867188 1.96875 -20.203125 C 2 -20.535156 2.007812 -20.738281 2 -20.8125 C 1.988281 -20.882812 1.992188 -20.9375 2.015625 -20.96875 C 2.046875 -21 2.082031 -21.015625 2.125 -21.015625 C 2.175781 -21.023438 2.226562 -21.03125 2.28125 -21.03125 C 2.332031 -21.039062 2.378906 -21.054688 2.421875 -21.078125 C 2.492188 -21.117188 2.550781 -21.128906 2.59375 -21.109375 C 2.644531 -21.097656 2.6875 -21.078125 2.71875 -21.046875 C 2.75 -21.015625 2.773438 -20.976562 2.796875 -20.9375 C 2.828125 -20.90625 2.867188 -20.890625 2.921875 -20.890625 C 2.984375 -20.898438 3.03125 -20.914062 3.0625 -20.9375 C 3.101562 -20.96875 3.132812 -20.992188 3.15625 -21.015625 C 3.1875 -21.046875 3.210938 -21.070312 3.234375 -21.09375 C 3.265625 -21.113281 3.300781 -21.117188 3.34375 -21.109375 C 3.425781 -21.085938 3.503906 -21.070312 3.578125 -21.0625 C 3.648438 -21.0625 3.6875 -21.078125 3.6875 -21.109375 C 3.707031 -21.191406 3.738281 -21.226562 3.78125 -21.21875 C 3.820312 -21.21875 3.875 -21.191406 3.9375 -21.140625 C 4 -21.085938 4.050781 -21.03125 4.09375 -20.96875 C 4.132812 -20.914062 4.15625 -20.835938 4.15625 -20.734375 Z M 4.15625 -20.734375 "/></g></g></g><g fill="#ffffff" fill-opacity="1"><g transform="translate(86.280535, 33.093932)"><g><path d="M 10.40625 -9.09375 C 10.414062 -8.738281 10.382812 -8.296875 10.3125 -7.765625 C 10.238281 -7.242188 10.15625 -6.6875 10.0625 -6.09375 C 9.96875 -5.5 9.878906 -4.890625 9.796875 -4.265625 C 9.710938 -3.648438 9.671875 -3.066406 9.671875 -2.515625 C 9.671875 -2.148438 9.695312 -1.804688 9.75 -1.484375 C 9.800781 -1.160156 9.890625 -0.878906 10.015625 -0.640625 C 10.085938 -0.503906 10.125 -0.382812 10.125 -0.28125 C 10.132812 -0.175781 10.128906 -0.0820312 10.109375 0 C 10.085938 0.0703125 10.066406 0.132812 10.046875 0.1875 C 10.023438 0.25 10.023438 0.304688 10.046875 0.359375 C 10.066406 0.410156 10.0625 0.46875 10.03125 0.53125 C 10 0.601562 9.953125 0.664062 9.890625 0.71875 C 9.828125 0.78125 9.753906 0.820312 9.671875 0.84375 C 9.597656 0.875 9.53125 0.867188 9.46875 0.828125 C 9.351562 0.753906 9.257812 0.710938 9.1875 0.703125 C 9.125 0.691406 9.066406 0.691406 9.015625 0.703125 C 8.972656 0.722656 8.929688 0.742188 8.890625 0.765625 C 8.859375 0.785156 8.816406 0.785156 8.765625 0.765625 C 8.597656 0.671875 8.410156 0.5625 8.203125 0.4375 C 7.992188 0.3125 7.859375 0.175781 7.796875 0.03125 C 7.753906 -0.03125 7.710938 -0.132812 7.671875 -0.28125 C 7.640625 -0.425781 7.609375 -0.597656 7.578125 -0.796875 C 7.554688 -0.992188 7.535156 -1.203125 7.515625 -1.421875 C 7.492188 -1.648438 7.476562 -1.875 7.46875 -2.09375 C 7.125 -1.457031 6.757812 -0.925781 6.375 -0.5 C 5.988281 -0.0703125 5.597656 0.265625 5.203125 0.515625 C 4.816406 0.773438 4.4375 0.957031 4.0625 1.0625 C 3.6875 1.164062 3.34375 1.21875 3.03125 1.21875 C 2.707031 1.21875 2.421875 1.175781 2.171875 1.09375 C 1.929688 1.007812 1.742188 0.910156 1.609375 0.796875 C 1.109375 0.285156 0.75 -0.125 0.53125 -0.4375 C 0.320312 -0.757812 0.226562 -1.019531 0.25 -1.21875 C 0.300781 -1.875 0.460938 -2.476562 0.734375 -3.03125 C 1.003906 -3.59375 1.335938 -4.109375 1.734375 -4.578125 C 2.140625 -5.054688 2.59375 -5.484375 3.09375 -5.859375 C 3.59375 -6.234375 4.101562 -6.566406 4.625 -6.859375 C 5.15625 -7.160156 5.671875 -7.410156 6.171875 -7.609375 C 6.679688 -7.816406 7.144531 -7.984375 7.5625 -8.109375 C 7.539062 -8.660156 7.515625 -9.144531 7.484375 -9.5625 C 7.460938 -9.988281 7.425781 -10.300781 7.375 -10.5 C 7.21875 -11.132812 6.976562 -11.609375 6.65625 -11.921875 C 6.332031 -12.242188 5.945312 -12.40625 5.5 -12.40625 C 5.207031 -12.40625 4.910156 -12.296875 4.609375 -12.078125 C 4.316406 -11.859375 4.050781 -11.5625 3.8125 -11.1875 C 3.582031 -10.820312 3.390625 -10.394531 3.234375 -9.90625 C 3.085938 -9.414062 3.007812 -8.90625 3 -8.375 C 3 -8.238281 3.003906 -8.109375 3.015625 -7.984375 C 3.023438 -7.859375 3.039062 -7.726562 3.0625 -7.59375 C 3.070312 -7.519531 3.046875 -7.46875 2.984375 -7.4375 C 2.929688 -7.40625 2.863281 -7.378906 2.78125 -7.359375 C 2.695312 -7.347656 2.609375 -7.335938 2.515625 -7.328125 C 2.421875 -7.316406 2.34375 -7.300781 2.28125 -7.28125 C 2.226562 -7.257812 2.1875 -7.242188 2.15625 -7.234375 C 2.125 -7.234375 2.09375 -7.238281 2.0625 -7.25 C 2.03125 -7.269531 1.988281 -7.300781 1.9375 -7.34375 C 1.894531 -7.382812 1.832031 -7.4375 1.75 -7.5 C 1.664062 -7.5625 1.578125 -7.613281 1.484375 -7.65625 C 1.398438 -7.695312 1.328125 -7.734375 1.265625 -7.765625 C 1.203125 -7.796875 1.144531 -7.820312 1.09375 -7.84375 C 1.050781 -7.875 1.03125 -7.910156 1.03125 -7.953125 C 1.03125 -8.585938 1.171875 -9.25 1.453125 -9.9375 C 1.734375 -10.625 2.113281 -11.25 2.59375 -11.8125 C 3.082031 -12.375 3.644531 -12.832031 4.28125 -13.1875 C 4.914062 -13.550781 5.585938 -13.734375 6.296875 -13.734375 C 6.878906 -13.734375 7.382812 -13.644531 7.8125 -13.46875 C 8.238281 -13.300781 8.597656 -13.078125 8.890625 -12.796875 C 9.191406 -12.515625 9.4375 -12.203125 9.625 -11.859375 C 9.820312 -11.515625 9.972656 -11.171875 10.078125 -10.828125 C 10.191406 -10.484375 10.269531 -10.15625 10.3125 -9.84375 C 10.363281 -9.539062 10.394531 -9.289062 10.40625 -9.09375 Z M 7.59375 -6.328125 C 7.28125 -6.210938 6.9375 -6.0625 6.5625 -5.875 C 6.195312 -5.695312 5.820312 -5.476562 5.4375 -5.21875 C 5.050781 -4.96875 4.664062 -4.675781 4.28125 -4.34375 C 3.894531 -4.007812 3.539062 -3.644531 3.21875 -3.25 C 2.820312 -2.78125 2.535156 -2.363281 2.359375 -2 C 2.179688 -1.632812 2.070312 -1.328125 2.03125 -1.078125 C 1.988281 -0.828125 2 -0.628906 2.0625 -0.484375 C 2.125 -0.335938 2.195312 -0.25 2.28125 -0.21875 C 2.601562 -0.09375 2.9375 -0.078125 3.28125 -0.171875 C 3.625 -0.273438 3.96875 -0.453125 4.3125 -0.703125 C 4.664062 -0.960938 5.003906 -1.269531 5.328125 -1.625 C 5.660156 -1.976562 5.96875 -2.34375 6.25 -2.71875 C 6.539062 -3.101562 6.800781 -3.476562 7.03125 -3.84375 C 7.257812 -4.207031 7.445312 -4.523438 7.59375 -4.796875 Z M 7.59375 -6.328125 "/></g></g></g><g fill="#ffffff" fill-opacity="1"><g transform="translate(40.081004, 42.393479)"><g><path d="M 2.703125 -3.078125 C 2.710938 -3.066406 2.71875 -3.050781 2.71875 -3.03125 C 2.71875 -3.019531 2.71875 -3.003906 2.71875 -2.984375 C 2.71875 -2.898438 2.671875 -2.8125 2.578125 -2.71875 C 2.492188 -2.625 2.359375 -2.539062 2.171875 -2.46875 C 2.140625 -2.445312 2.109375 -2.4375 2.078125 -2.4375 C 2.035156 -2.4375 2 -2.445312 1.96875 -2.46875 C 1.9375 -2.5 1.921875 -2.523438 1.921875 -2.546875 C 1.921875 -2.554688 1.929688 -2.570312 1.953125 -2.59375 C 1.972656 -2.613281 1.992188 -2.632812 2.015625 -2.65625 C 2.046875 -2.675781 2.066406 -2.695312 2.078125 -2.71875 C 2.097656 -2.738281 2.109375 -2.753906 2.109375 -2.765625 C 2.109375 -2.785156 2.09375 -2.796875 2.0625 -2.796875 C 2.007812 -2.796875 1.941406 -2.78125 1.859375 -2.75 C 1.773438 -2.71875 1.6875 -2.675781 1.59375 -2.625 C 1.507812 -2.582031 1.421875 -2.53125 1.328125 -2.46875 C 1.234375 -2.414062 1.148438 -2.363281 1.078125 -2.3125 C 1.003906 -2.257812 0.941406 -2.210938 0.890625 -2.171875 C 0.847656 -2.128906 0.828125 -2.097656 0.828125 -2.078125 C 0.828125 -2.066406 0.835938 -2.0625 0.859375 -2.0625 L 0.984375 -2.0625 C 1.054688 -2.0625 1.144531 -2.054688 1.25 -2.046875 C 1.363281 -2.046875 1.476562 -2.03125 1.59375 -2 C 1.71875 -1.976562 1.84375 -1.945312 1.96875 -1.90625 C 2.09375 -1.863281 2.203125 -1.804688 2.296875 -1.734375 C 2.398438 -1.671875 2.484375 -1.59375 2.546875 -1.5 C 2.609375 -1.40625 2.640625 -1.289062 2.640625 -1.15625 C 2.640625 -1.09375 2.628906 -1.019531 2.609375 -0.9375 C 2.585938 -0.863281 2.546875 -0.785156 2.484375 -0.703125 C 2.429688 -0.617188 2.359375 -0.535156 2.265625 -0.453125 C 2.171875 -0.378906 2.046875 -0.300781 1.890625 -0.21875 C 1.671875 -0.09375 1.460938 -0.00390625 1.265625 0.046875 C 1.066406 0.109375 0.890625 0.140625 0.734375 0.140625 C 0.535156 0.140625 0.375 0.09375 0.25 0 C 0.132812 -0.09375 0.078125 -0.222656 0.078125 -0.390625 C 0.078125 -0.515625 0.0976562 -0.617188 0.140625 -0.703125 C 0.191406 -0.796875 0.25 -0.875 0.3125 -0.9375 C 0.382812 -1 0.453125 -1.039062 0.515625 -1.0625 C 0.578125 -1.09375 0.628906 -1.109375 0.671875 -1.109375 C 0.679688 -1.109375 0.691406 -1.109375 0.703125 -1.109375 C 0.710938 -1.117188 0.726562 -1.125 0.75 -1.125 C 0.769531 -1.125 0.78125 -1.109375 0.78125 -1.078125 L 0.78125 -1.03125 C 0.78125 -1.019531 0.78125 -1.003906 0.78125 -0.984375 C 0.789062 -0.972656 0.796875 -0.960938 0.796875 -0.953125 C 0.796875 -0.941406 0.773438 -0.921875 0.734375 -0.890625 C 0.703125 -0.859375 0.664062 -0.820312 0.625 -0.78125 C 0.582031 -0.738281 0.539062 -0.691406 0.5 -0.640625 C 0.457031 -0.597656 0.4375 -0.550781 0.4375 -0.5 C 0.4375 -0.445312 0.476562 -0.421875 0.5625 -0.421875 C 0.664062 -0.421875 0.773438 -0.441406 0.890625 -0.484375 C 1.015625 -0.523438 1.128906 -0.578125 1.234375 -0.640625 C 1.347656 -0.703125 1.453125 -0.769531 1.546875 -0.84375 C 1.648438 -0.925781 1.738281 -1.003906 1.8125 -1.078125 C 1.894531 -1.160156 1.957031 -1.234375 2 -1.296875 C 2.050781 -1.367188 2.078125 -1.425781 2.078125 -1.46875 C 2.078125 -1.507812 2.046875 -1.546875 1.984375 -1.578125 C 1.929688 -1.609375 1.859375 -1.628906 1.765625 -1.640625 C 1.671875 -1.660156 1.5625 -1.671875 1.4375 -1.671875 C 1.320312 -1.679688 1.195312 -1.6875 1.0625 -1.6875 C 0.914062 -1.6875 0.796875 -1.679688 0.703125 -1.671875 C 0.609375 -1.660156 0.550781 -1.65625 0.53125 -1.65625 C 0.519531 -1.65625 0.492188 -1.65625 0.453125 -1.65625 C 0.421875 -1.664062 0.382812 -1.675781 0.34375 -1.6875 C 0.3125 -1.707031 0.28125 -1.738281 0.25 -1.78125 C 0.226562 -1.820312 0.21875 -1.878906 0.21875 -1.953125 C 0.21875 -2.003906 0.226562 -2.0625 0.25 -2.125 C 0.28125 -2.1875 0.320312 -2.253906 0.375 -2.328125 C 0.425781 -2.398438 0.5 -2.476562 0.59375 -2.5625 C 0.695312 -2.644531 0.828125 -2.726562 0.984375 -2.8125 C 1.140625 -2.914062 1.285156 -3 1.421875 -3.0625 C 1.566406 -3.125 1.695312 -3.171875 1.8125 -3.203125 C 1.925781 -3.234375 2.023438 -3.253906 2.109375 -3.265625 C 2.191406 -3.273438 2.257812 -3.28125 2.3125 -3.28125 C 2.425781 -3.28125 2.507812 -3.265625 2.5625 -3.234375 C 2.625 -3.210938 2.671875 -3.160156 2.703125 -3.078125 Z M 2.703125 -3.078125 "/></g></g><g transform="translate(43.028144, 42.393479)"><g><path d="M 1.140625 -3.296875 C 1.128906 -3.273438 1.125 -3.238281 1.125 -3.1875 C 1.125 -3.132812 1.117188 -3.066406 1.109375 -2.984375 C 1.222656 -3.015625 1.335938 -3.035156 1.453125 -3.046875 C 1.566406 -3.066406 1.6875 -3.078125 1.8125 -3.078125 C 1.945312 -3.078125 2.082031 -3.0625 2.21875 -3.03125 C 2.351562 -3 2.484375 -2.945312 2.609375 -2.875 C 2.691406 -2.820312 2.765625 -2.734375 2.828125 -2.609375 C 2.898438 -2.492188 2.957031 -2.367188 3 -2.234375 C 3.019531 -2.148438 3.039062 -2.054688 3.0625 -1.953125 C 3.09375 -1.859375 3.109375 -1.753906 3.109375 -1.640625 C 3.109375 -1.535156 3.09375 -1.429688 3.0625 -1.328125 C 3.039062 -1.222656 3 -1.113281 2.9375 -1 C 2.875 -0.882812 2.785156 -0.765625 2.671875 -0.640625 C 2.566406 -0.523438 2.429688 -0.410156 2.265625 -0.296875 C 2.109375 -0.171875 1.960938 -0.078125 1.828125 -0.015625 C 1.703125 0.046875 1.59375 0.0859375 1.5 0.109375 C 1.414062 0.128906 1.347656 0.140625 1.296875 0.140625 C 1.253906 0.140625 1.226562 0.132812 1.21875 0.125 C 1.195312 0.113281 1.171875 0.0820312 1.140625 0.03125 C 1.117188 -0.0078125 1.085938 -0.0507812 1.046875 -0.09375 C 1.035156 -0.113281 1.023438 -0.128906 1.015625 -0.140625 C 1.003906 -0.160156 0.992188 -0.179688 0.984375 -0.203125 C 0.972656 0.046875 0.960938 0.289062 0.953125 0.53125 C 0.953125 0.769531 0.953125 0.992188 0.953125 1.203125 C 0.953125 1.335938 0.953125 1.457031 0.953125 1.5625 C 0.960938 1.675781 0.96875 1.78125 0.96875 1.875 C 0.96875 1.90625 0.96875 1.9375 0.96875 1.96875 C 0.976562 2.007812 0.984375 2.039062 0.984375 2.0625 C 0.984375 2.09375 0.976562 2.113281 0.96875 2.125 C 0.957031 2.144531 0.9375 2.15625 0.90625 2.15625 C 0.851562 2.15625 0.8125 2.164062 0.78125 2.1875 C 0.757812 2.21875 0.726562 2.257812 0.6875 2.3125 C 0.664062 2.332031 0.644531 2.347656 0.625 2.359375 C 0.601562 2.367188 0.578125 2.367188 0.546875 2.359375 C 0.523438 2.347656 0.5 2.320312 0.46875 2.28125 C 0.445312 2.25 0.425781 2.191406 0.40625 2.109375 C 0.394531 2.078125 0.382812 2.035156 0.375 1.984375 C 0.375 1.929688 0.367188 1.867188 0.359375 1.796875 C 0.359375 1.722656 0.359375 1.628906 0.359375 1.515625 C 0.359375 1.410156 0.359375 1.285156 0.359375 1.140625 L 0.375 -0.21875 C 0.382812 -0.5625 0.398438 -0.894531 0.421875 -1.21875 C 0.441406 -1.539062 0.460938 -1.847656 0.484375 -2.140625 C 0.421875 -2.109375 0.363281 -2.085938 0.3125 -2.078125 C 0.257812 -2.066406 0.222656 -2.066406 0.203125 -2.078125 C 0.179688 -2.085938 0.164062 -2.097656 0.15625 -2.109375 C 0.144531 -2.117188 0.140625 -2.128906 0.140625 -2.140625 C 0.140625 -2.148438 0.132812 -2.160156 0.125 -2.171875 C 0.125 -2.179688 0.113281 -2.1875 0.09375 -2.1875 C 0.0820312 -2.195312 0.0664062 -2.207031 0.046875 -2.21875 C 0.0351562 -2.226562 0.0234375 -2.238281 0.015625 -2.25 C 0.015625 -2.269531 0.0195312 -2.285156 0.03125 -2.296875 C 0.0390625 -2.304688 0.0546875 -2.3125 0.078125 -2.3125 C 0.0859375 -2.3125 0.0859375 -2.316406 0.078125 -2.328125 C 0.0664062 -2.347656 0.0546875 -2.363281 0.046875 -2.375 C 0.0351562 -2.394531 0.03125 -2.421875 0.03125 -2.453125 C 0.0390625 -2.484375 0.0703125 -2.519531 0.125 -2.5625 C 0.15625 -2.582031 0.207031 -2.613281 0.28125 -2.65625 C 0.363281 -2.695312 0.460938 -2.742188 0.578125 -2.796875 C 0.609375 -3.003906 0.632812 -3.171875 0.65625 -3.296875 C 0.6875 -3.421875 0.71875 -3.5 0.75 -3.53125 C 0.757812 -3.539062 0.765625 -3.550781 0.765625 -3.5625 C 0.773438 -3.570312 0.78125 -3.582031 0.78125 -3.59375 C 0.789062 -3.601562 0.796875 -3.609375 0.796875 -3.609375 C 0.804688 -3.617188 0.820312 -3.625 0.84375 -3.625 C 0.863281 -3.632812 0.878906 -3.632812 0.890625 -3.625 C 0.910156 -3.613281 0.925781 -3.597656 0.9375 -3.578125 C 0.945312 -3.554688 0.957031 -3.535156 0.96875 -3.515625 C 0.976562 -3.503906 0.992188 -3.5 1.015625 -3.5 C 1.054688 -3.5 1.085938 -3.476562 1.109375 -3.4375 C 1.128906 -3.40625 1.140625 -3.359375 1.140625 -3.296875 Z M 1.890625 -2.53125 C 1.765625 -2.53125 1.632812 -2.515625 1.5 -2.484375 C 1.375 -2.460938 1.226562 -2.421875 1.0625 -2.359375 L 1 -0.65625 C 1.019531 -0.644531 1.046875 -0.640625 1.078125 -0.640625 C 1.109375 -0.640625 1.140625 -0.640625 1.171875 -0.640625 C 1.253906 -0.640625 1.351562 -0.648438 1.46875 -0.671875 C 1.582031 -0.703125 1.695312 -0.738281 1.8125 -0.78125 C 1.9375 -0.832031 2.054688 -0.890625 2.171875 -0.953125 C 2.285156 -1.023438 2.382812 -1.109375 2.46875 -1.203125 C 2.5625 -1.296875 2.632812 -1.394531 2.6875 -1.5 C 2.75 -1.613281 2.78125 -1.738281 2.78125 -1.875 C 2.78125 -1.957031 2.757812 -2.035156 2.71875 -2.109375 C 2.6875 -2.191406 2.632812 -2.265625 2.5625 -2.328125 C 2.488281 -2.390625 2.394531 -2.4375 2.28125 -2.46875 C 2.164062 -2.507812 2.035156 -2.53125 1.890625 -2.53125 Z M 1.890625 -2.53125 "/></g></g><g transform="translate(46.390706, 42.393479)"><g><path d="M 1.28125 -5.125 C 1.28125 -5.070312 1.273438 -5.007812 1.265625 -4.9375 C 1.265625 -4.875 1.253906 -4.8125 1.234375 -4.75 C 1.222656 -4.695312 1.203125 -4.644531 1.171875 -4.59375 C 1.148438 -4.550781 1.125 -4.519531 1.09375 -4.5 C 1.007812 -4.457031 0.929688 -4.4375 0.859375 -4.4375 C 0.804688 -4.4375 0.757812 -4.445312 0.71875 -4.46875 C 0.6875 -4.488281 0.65625 -4.515625 0.625 -4.546875 C 0.570312 -4.585938 0.523438 -4.640625 0.484375 -4.703125 C 0.453125 -4.773438 0.4375 -4.84375 0.4375 -4.90625 C 0.4375 -4.957031 0.441406 -5.019531 0.453125 -5.09375 C 0.472656 -5.164062 0.492188 -5.234375 0.515625 -5.296875 C 0.546875 -5.367188 0.578125 -5.429688 0.609375 -5.484375 C 0.640625 -5.546875 0.671875 -5.585938 0.703125 -5.609375 C 0.742188 -5.640625 0.78125 -5.65625 0.8125 -5.65625 C 0.851562 -5.664062 0.882812 -5.664062 0.90625 -5.65625 C 0.96875 -5.644531 1.019531 -5.628906 1.0625 -5.609375 C 1.113281 -5.585938 1.148438 -5.554688 1.171875 -5.515625 C 1.203125 -5.484375 1.222656 -5.429688 1.234375 -5.359375 C 1.253906 -5.296875 1.269531 -5.21875 1.28125 -5.125 Z M 0.953125 -3.359375 C 0.960938 -3.347656 0.972656 -3.304688 0.984375 -3.234375 C 0.992188 -3.160156 1 -3.066406 1 -2.953125 C 1 -2.867188 0.992188 -2.78125 0.984375 -2.6875 C 0.984375 -2.601562 0.976562 -2.507812 0.96875 -2.40625 C 0.96875 -2.3125 0.960938 -2.210938 0.953125 -2.109375 C 0.953125 -2.015625 0.953125 -1.925781 0.953125 -1.84375 C 0.941406 -1.695312 0.9375 -1.5625 0.9375 -1.4375 C 0.9375 -1.3125 0.9375 -1.191406 0.9375 -1.078125 C 0.9375 -0.921875 0.9375 -0.78125 0.9375 -0.65625 C 0.945312 -0.53125 0.953125 -0.425781 0.953125 -0.34375 C 0.953125 -0.25 0.945312 -0.175781 0.9375 -0.125 C 0.925781 -0.0820312 0.910156 -0.0625 0.890625 -0.0625 C 0.867188 -0.0507812 0.847656 -0.0351562 0.828125 -0.015625 C 0.816406 -0.00390625 0.804688 0.00390625 0.796875 0.015625 C 0.785156 0.0351562 0.769531 0.0507812 0.75 0.0625 C 0.726562 0.0820312 0.707031 0.0859375 0.6875 0.078125 C 0.675781 0.078125 0.65625 0.0664062 0.625 0.046875 C 0.59375 0.0234375 0.554688 0 0.515625 -0.03125 C 0.484375 -0.0625 0.453125 -0.0976562 0.421875 -0.140625 C 0.390625 -0.179688 0.367188 -0.222656 0.359375 -0.265625 C 0.359375 -0.285156 0.351562 -0.328125 0.34375 -0.390625 C 0.34375 -0.453125 0.335938 -0.523438 0.328125 -0.609375 C 0.328125 -0.703125 0.328125 -0.800781 0.328125 -0.90625 C 0.328125 -1.019531 0.328125 -1.128906 0.328125 -1.234375 C 0.328125 -1.347656 0.328125 -1.457031 0.328125 -1.5625 C 0.328125 -1.664062 0.328125 -1.765625 0.328125 -1.859375 C 0.328125 -1.992188 0.328125 -2.128906 0.328125 -2.265625 C 0.335938 -2.398438 0.347656 -2.523438 0.359375 -2.640625 C 0.378906 -2.765625 0.394531 -2.875 0.40625 -2.96875 C 0.414062 -3.0625 0.421875 -3.125 0.421875 -3.15625 C 0.429688 -3.21875 0.441406 -3.265625 0.453125 -3.296875 C 0.472656 -3.335938 0.488281 -3.363281 0.5 -3.375 C 0.507812 -3.394531 0.519531 -3.40625 0.53125 -3.40625 C 0.550781 -3.414062 0.570312 -3.421875 0.59375 -3.421875 C 0.625 -3.421875 0.65625 -3.421875 0.6875 -3.421875 C 0.726562 -3.421875 0.765625 -3.414062 0.796875 -3.40625 C 0.835938 -3.40625 0.875 -3.398438 0.90625 -3.390625 C 0.9375 -3.378906 0.953125 -3.367188 0.953125 -3.359375 Z M 0.953125 -3.359375 "/></g></g><g transform="translate(47.754542, 42.393479)"><g><path d="M 2.625 -2.296875 C 2.625 -2.203125 2.613281 -2.085938 2.59375 -1.953125 C 2.582031 -1.828125 2.5625 -1.6875 2.53125 -1.53125 C 2.507812 -1.382812 2.488281 -1.234375 2.46875 -1.078125 C 2.445312 -0.921875 2.4375 -0.773438 2.4375 -0.640625 C 2.4375 -0.546875 2.441406 -0.457031 2.453125 -0.375 C 2.472656 -0.289062 2.5 -0.21875 2.53125 -0.15625 C 2.550781 -0.125 2.5625 -0.09375 2.5625 -0.0625 C 2.5625 -0.0390625 2.554688 -0.0195312 2.546875 0 C 2.546875 0.0195312 2.539062 0.0351562 2.53125 0.046875 C 2.53125 0.0664062 2.53125 0.0820312 2.53125 0.09375 C 2.539062 0.101562 2.539062 0.113281 2.53125 0.125 C 2.519531 0.144531 2.503906 0.160156 2.484375 0.171875 C 2.472656 0.191406 2.457031 0.203125 2.4375 0.203125 C 2.425781 0.210938 2.410156 0.210938 2.390625 0.203125 C 2.359375 0.191406 2.332031 0.179688 2.3125 0.171875 C 2.300781 0.171875 2.289062 0.171875 2.28125 0.171875 C 2.269531 0.179688 2.257812 0.1875 2.25 0.1875 C 2.238281 0.195312 2.226562 0.195312 2.21875 0.1875 C 2.175781 0.164062 2.125 0.140625 2.0625 0.109375 C 2.007812 0.078125 1.976562 0.046875 1.96875 0.015625 C 1.957031 -0.00390625 1.945312 -0.03125 1.9375 -0.0625 C 1.925781 -0.101562 1.914062 -0.148438 1.90625 -0.203125 C 1.90625 -0.253906 1.898438 -0.304688 1.890625 -0.359375 C 1.890625 -0.421875 1.890625 -0.476562 1.890625 -0.53125 C 1.796875 -0.363281 1.703125 -0.226562 1.609375 -0.125 C 1.515625 -0.0195312 1.414062 0.0625 1.3125 0.125 C 1.21875 0.195312 1.117188 0.242188 1.015625 0.265625 C 0.921875 0.296875 0.835938 0.3125 0.765625 0.3125 C 0.679688 0.3125 0.609375 0.300781 0.546875 0.28125 C 0.484375 0.257812 0.4375 0.234375 0.40625 0.203125 C 0.28125 0.078125 0.191406 -0.0234375 0.140625 -0.109375 C 0.0859375 -0.191406 0.0625 -0.257812 0.0625 -0.3125 C 0.0703125 -0.476562 0.109375 -0.628906 0.171875 -0.765625 C 0.242188 -0.910156 0.332031 -1.039062 0.4375 -1.15625 C 0.539062 -1.28125 0.65625 -1.390625 0.78125 -1.484375 C 0.90625 -1.578125 1.035156 -1.660156 1.171875 -1.734375 C 1.304688 -1.804688 1.4375 -1.867188 1.5625 -1.921875 C 1.6875 -1.972656 1.800781 -2.015625 1.90625 -2.046875 C 1.90625 -2.191406 1.898438 -2.316406 1.890625 -2.421875 C 1.878906 -2.523438 1.867188 -2.601562 1.859375 -2.65625 C 1.816406 -2.8125 1.753906 -2.929688 1.671875 -3.015625 C 1.597656 -3.097656 1.503906 -3.140625 1.390625 -3.140625 C 1.316406 -3.140625 1.242188 -3.109375 1.171875 -3.046875 C 1.097656 -2.992188 1.03125 -2.921875 0.96875 -2.828125 C 0.90625 -2.734375 0.851562 -2.625 0.8125 -2.5 C 0.78125 -2.375 0.757812 -2.242188 0.75 -2.109375 C 0.75 -2.078125 0.75 -2.046875 0.75 -2.015625 C 0.757812 -1.984375 0.765625 -1.953125 0.765625 -1.921875 C 0.773438 -1.898438 0.769531 -1.882812 0.75 -1.875 C 0.738281 -1.863281 0.722656 -1.859375 0.703125 -1.859375 C 0.679688 -1.859375 0.65625 -1.851562 0.625 -1.84375 C 0.601562 -1.84375 0.585938 -1.84375 0.578125 -1.84375 C 0.566406 -1.832031 0.554688 -1.828125 0.546875 -1.828125 C 0.535156 -1.828125 0.523438 -1.828125 0.515625 -1.828125 C 0.515625 -1.835938 0.503906 -1.847656 0.484375 -1.859375 C 0.472656 -1.867188 0.457031 -1.878906 0.4375 -1.890625 C 0.414062 -1.910156 0.394531 -1.925781 0.375 -1.9375 C 0.351562 -1.945312 0.332031 -1.953125 0.3125 -1.953125 C 0.300781 -1.960938 0.289062 -1.96875 0.28125 -1.96875 C 0.269531 -1.976562 0.265625 -1.992188 0.265625 -2.015625 C 0.265625 -2.171875 0.296875 -2.332031 0.359375 -2.5 C 0.429688 -2.675781 0.53125 -2.835938 0.65625 -2.984375 C 0.78125 -3.128906 0.921875 -3.242188 1.078125 -3.328125 C 1.242188 -3.421875 1.414062 -3.46875 1.59375 -3.46875 C 1.738281 -3.46875 1.863281 -3.445312 1.96875 -3.40625 C 2.082031 -3.363281 2.175781 -3.304688 2.25 -3.234375 C 2.320312 -3.160156 2.378906 -3.078125 2.421875 -2.984375 C 2.472656 -2.898438 2.515625 -2.816406 2.546875 -2.734375 C 2.578125 -2.648438 2.597656 -2.566406 2.609375 -2.484375 C 2.617188 -2.410156 2.625 -2.347656 2.625 -2.296875 Z M 1.921875 -1.59375 C 1.835938 -1.570312 1.75 -1.535156 1.65625 -1.484375 C 1.5625 -1.441406 1.46875 -1.382812 1.375 -1.3125 C 1.28125 -1.25 1.179688 -1.175781 1.078125 -1.09375 C 0.984375 -1.007812 0.894531 -0.914062 0.8125 -0.8125 C 0.707031 -0.695312 0.632812 -0.59375 0.59375 -0.5 C 0.550781 -0.414062 0.523438 -0.335938 0.515625 -0.265625 C 0.503906 -0.203125 0.503906 -0.148438 0.515625 -0.109375 C 0.535156 -0.078125 0.554688 -0.0625 0.578125 -0.0625 C 0.660156 -0.03125 0.742188 -0.0234375 0.828125 -0.046875 C 0.910156 -0.0664062 0.992188 -0.109375 1.078125 -0.171875 C 1.171875 -0.242188 1.257812 -0.320312 1.34375 -0.40625 C 1.425781 -0.5 1.503906 -0.59375 1.578125 -0.6875 C 1.648438 -0.78125 1.710938 -0.875 1.765625 -0.96875 C 1.828125 -1.0625 1.878906 -1.144531 1.921875 -1.21875 Z M 1.921875 -1.59375 "/></g></g><g transform="translate(50.740873, 42.393479)"><g><path d="M 1.65625 -0.171875 C 1.8125 -0.171875 1.96875 -0.15625 2.125 -0.125 C 2.28125 -0.101562 2.421875 -0.0625 2.546875 0 C 2.671875 0.0703125 2.769531 0.164062 2.84375 0.28125 C 2.925781 0.394531 2.96875 0.535156 2.96875 0.703125 C 2.96875 0.816406 2.9375 0.9375 2.875 1.0625 C 2.820312 1.195312 2.742188 1.320312 2.640625 1.4375 C 2.546875 1.550781 2.425781 1.660156 2.28125 1.765625 C 2.144531 1.867188 2 1.957031 1.84375 2.03125 C 1.6875 2.113281 1.519531 2.175781 1.34375 2.21875 C 1.175781 2.269531 1.003906 2.296875 0.828125 2.296875 C 0.679688 2.296875 0.546875 2.28125 0.421875 2.25 C 0.304688 2.21875 0.203125 2.171875 0.109375 2.109375 C 0.015625 2.046875 -0.0546875 1.96875 -0.109375 1.875 C -0.171875 1.789062 -0.203125 1.6875 -0.203125 1.5625 C -0.203125 1.445312 -0.175781 1.332031 -0.125 1.21875 C -0.0820312 1.113281 -0.0234375 1.015625 0.046875 0.921875 C 0.128906 0.835938 0.21875 0.757812 0.3125 0.6875 C 0.414062 0.613281 0.519531 0.550781 0.625 0.5 C 0.726562 0.457031 0.832031 0.421875 0.9375 0.390625 C 1.039062 0.367188 1.132812 0.359375 1.21875 0.359375 C 1.257812 0.367188 1.285156 0.375 1.296875 0.375 C 1.316406 0.382812 1.328125 0.394531 1.328125 0.40625 C 1.328125 0.40625 1.320312 0.410156 1.3125 0.421875 C 1.3125 0.441406 1.3125 0.453125 1.3125 0.453125 C 1.3125 0.472656 1.3125 0.492188 1.3125 0.515625 C 1.320312 0.535156 1.328125 0.554688 1.328125 0.578125 C 1.328125 0.597656 1.320312 0.617188 1.3125 0.640625 C 1.3125 0.660156 1.296875 0.675781 1.265625 0.6875 C 1.148438 0.707031 1.023438 0.75 0.890625 0.8125 C 0.765625 0.875 0.644531 0.945312 0.53125 1.03125 C 0.414062 1.125 0.316406 1.21875 0.234375 1.3125 C 0.160156 1.40625 0.117188 1.503906 0.109375 1.609375 C 0.109375 1.648438 0.128906 1.679688 0.171875 1.703125 C 0.222656 1.722656 0.289062 1.734375 0.375 1.734375 C 0.46875 1.734375 0.582031 1.71875 0.71875 1.6875 C 0.863281 1.664062 1.007812 1.628906 1.15625 1.578125 C 1.300781 1.523438 1.445312 1.457031 1.59375 1.375 C 1.738281 1.300781 1.867188 1.210938 1.984375 1.109375 C 2.109375 1.015625 2.203125 0.910156 2.265625 0.796875 C 2.335938 0.691406 2.375 0.570312 2.375 0.4375 C 2.375 0.375 2.359375 0.328125 2.328125 0.296875 C 2.304688 0.265625 2.28125 0.238281 2.25 0.21875 C 2.21875 0.195312 2.179688 0.179688 2.140625 0.171875 C 2.109375 0.171875 2.082031 0.171875 2.0625 0.171875 C 1.875 0.171875 1.679688 0.179688 1.484375 0.203125 C 1.296875 0.234375 1.125 0.257812 0.96875 0.28125 C 0.8125 0.300781 0.679688 0.320312 0.578125 0.34375 C 0.472656 0.375 0.421875 0.390625 0.421875 0.390625 C 0.359375 0.390625 0.300781 0.375 0.25 0.34375 C 0.207031 0.320312 0.164062 0.289062 0.125 0.25 C 0.09375 0.21875 0.0664062 0.175781 0.046875 0.125 C 0.0351562 0.0820312 0.03125 0.0351562 0.03125 -0.015625 C 0.03125 -0.0546875 0.0507812 -0.113281 0.09375 -0.1875 C 0.144531 -0.257812 0.207031 -0.335938 0.28125 -0.421875 C 0.351562 -0.515625 0.4375 -0.601562 0.53125 -0.6875 C 0.632812 -0.769531 0.734375 -0.835938 0.828125 -0.890625 C 0.742188 -0.929688 0.664062 -0.988281 0.59375 -1.0625 C 0.519531 -1.132812 0.457031 -1.207031 0.40625 -1.28125 C 0.363281 -1.363281 0.328125 -1.445312 0.296875 -1.53125 C 0.273438 -1.613281 0.265625 -1.703125 0.265625 -1.796875 C 0.265625 -1.972656 0.289062 -2.128906 0.34375 -2.265625 C 0.394531 -2.410156 0.457031 -2.53125 0.53125 -2.625 C 0.613281 -2.726562 0.703125 -2.8125 0.796875 -2.875 C 0.898438 -2.945312 1.003906 -3.003906 1.109375 -3.046875 C 1.210938 -3.085938 1.304688 -3.117188 1.390625 -3.140625 C 1.484375 -3.160156 1.554688 -3.171875 1.609375 -3.171875 C 1.640625 -3.171875 1.664062 -3.164062 1.6875 -3.15625 C 1.707031 -3.15625 1.722656 -3.15625 1.734375 -3.15625 C 1.804688 -3.257812 1.882812 -3.367188 1.96875 -3.484375 C 2.050781 -3.597656 2.132812 -3.710938 2.21875 -3.828125 C 2.3125 -3.953125 2.40625 -4.066406 2.5 -4.171875 C 2.59375 -4.273438 2.675781 -4.367188 2.75 -4.453125 C 2.820312 -4.535156 2.882812 -4.597656 2.9375 -4.640625 C 2.988281 -4.691406 3.023438 -4.71875 3.046875 -4.71875 C 3.066406 -4.71875 3.09375 -4.703125 3.125 -4.671875 C 3.164062 -4.640625 3.203125 -4.601562 3.234375 -4.5625 C 3.265625 -4.53125 3.289062 -4.492188 3.3125 -4.453125 C 3.332031 -4.421875 3.34375 -4.398438 3.34375 -4.390625 C 3.34375 -4.378906 3.335938 -4.367188 3.328125 -4.359375 C 3.316406 -4.347656 3.3125 -4.335938 3.3125 -4.328125 C 3.3125 -4.316406 3.316406 -4.304688 3.328125 -4.296875 C 3.347656 -4.285156 3.367188 -4.273438 3.390625 -4.265625 C 3.398438 -4.253906 3.40625 -4.25 3.40625 -4.25 C 3.40625 -4.238281 3.390625 -4.21875 3.359375 -4.1875 C 3.328125 -4.164062 3.269531 -4.125 3.1875 -4.0625 C 3.113281 -4 3.015625 -3.910156 2.890625 -3.796875 C 2.773438 -3.691406 2.628906 -3.550781 2.453125 -3.375 C 2.410156 -3.332031 2.367188 -3.28125 2.328125 -3.21875 C 2.285156 -3.164062 2.238281 -3.109375 2.1875 -3.046875 C 2.25 -3.003906 2.316406 -2.953125 2.390625 -2.890625 C 2.460938 -2.835938 2.53125 -2.769531 2.59375 -2.6875 C 2.65625 -2.601562 2.703125 -2.507812 2.734375 -2.40625 C 2.773438 -2.3125 2.796875 -2.207031 2.796875 -2.09375 C 2.796875 -1.832031 2.753906 -1.617188 2.671875 -1.453125 C 2.585938 -1.285156 2.476562 -1.148438 2.34375 -1.046875 C 2.207031 -0.941406 2.054688 -0.863281 1.890625 -0.8125 C 1.734375 -0.769531 1.570312 -0.75 1.40625 -0.75 C 1.375 -0.75 1.335938 -0.75 1.296875 -0.75 C 1.265625 -0.757812 1.234375 -0.765625 1.203125 -0.765625 C 1.140625 -0.734375 1.066406 -0.6875 0.984375 -0.625 C 0.910156 -0.570312 0.835938 -0.507812 0.765625 -0.4375 C 0.691406 -0.375 0.625 -0.304688 0.5625 -0.234375 C 0.5 -0.160156 0.453125 -0.09375 0.421875 -0.03125 C 0.523438 -0.03125 0.625 -0.0351562 0.71875 -0.046875 C 0.820312 -0.0664062 0.921875 -0.0859375 1.015625 -0.109375 C 1.117188 -0.128906 1.222656 -0.144531 1.328125 -0.15625 C 1.429688 -0.164062 1.539062 -0.171875 1.65625 -0.171875 Z M 1.546875 -2.6875 C 1.546875 -2.738281 1.570312 -2.828125 1.625 -2.953125 C 1.507812 -2.910156 1.398438 -2.847656 1.296875 -2.765625 C 1.203125 -2.691406 1.117188 -2.601562 1.046875 -2.5 C 0.984375 -2.40625 0.929688 -2.300781 0.890625 -2.1875 C 0.859375 -2.070312 0.84375 -1.957031 0.84375 -1.84375 C 0.84375 -1.757812 0.851562 -1.679688 0.875 -1.609375 C 0.894531 -1.535156 0.925781 -1.46875 0.96875 -1.40625 C 1.007812 -1.351562 1.0625 -1.304688 1.125 -1.265625 C 1.195312 -1.234375 1.28125 -1.21875 1.375 -1.21875 C 1.476562 -1.21875 1.570312 -1.234375 1.65625 -1.265625 C 1.738281 -1.304688 1.8125 -1.359375 1.875 -1.421875 C 1.9375 -1.484375 1.988281 -1.550781 2.03125 -1.625 C 2.070312 -1.707031 2.101562 -1.785156 2.125 -1.859375 C 2.15625 -1.929688 2.175781 -2 2.1875 -2.0625 C 2.207031 -2.132812 2.21875 -2.1875 2.21875 -2.21875 C 2.21875 -2.375 2.191406 -2.492188 2.140625 -2.578125 C 2.085938 -2.671875 2.023438 -2.738281 1.953125 -2.78125 C 1.921875 -2.738281 1.882812 -2.695312 1.84375 -2.65625 C 1.800781 -2.613281 1.757812 -2.570312 1.71875 -2.53125 C 1.71875 -2.53125 1.710938 -2.53125 1.703125 -2.53125 C 1.691406 -2.53125 1.679688 -2.53125 1.671875 -2.53125 C 1.671875 -2.539062 1.664062 -2.546875 1.65625 -2.546875 C 1.644531 -2.546875 1.632812 -2.539062 1.625 -2.53125 C 1.625 -2.53125 1.613281 -2.53125 1.59375 -2.53125 C 1.582031 -2.53125 1.570312 -2.539062 1.5625 -2.5625 C 1.550781 -2.582031 1.546875 -2.625 1.546875 -2.6875 Z M 1.546875 -2.6875 "/></g></g><g transform="translate(53.87221, 42.393479)"><g><path d="M 1.65625 -0.171875 C 1.8125 -0.171875 1.96875 -0.15625 2.125 -0.125 C 2.28125 -0.101562 2.421875 -0.0625 2.546875 0 C 2.671875 0.0703125 2.769531 0.164062 2.84375 0.28125 C 2.925781 0.394531 2.96875 0.535156 2.96875 0.703125 C 2.96875 0.816406 2.9375 0.9375 2.875 1.0625 C 2.820312 1.195312 2.742188 1.320312 2.640625 1.4375 C 2.546875 1.550781 2.425781 1.660156 2.28125 1.765625 C 2.144531 1.867188 2 1.957031 1.84375 2.03125 C 1.6875 2.113281 1.519531 2.175781 1.34375 2.21875 C 1.175781 2.269531 1.003906 2.296875 0.828125 2.296875 C 0.679688 2.296875 0.546875 2.28125 0.421875 2.25 C 0.304688 2.21875 0.203125 2.171875 0.109375 2.109375 C 0.015625 2.046875 -0.0546875 1.96875 -0.109375 1.875 C -0.171875 1.789062 -0.203125 1.6875 -0.203125 1.5625 C -0.203125 1.445312 -0.175781 1.332031 -0.125 1.21875 C -0.0820312 1.113281 -0.0234375 1.015625 0.046875 0.921875 C 0.128906 0.835938 0.21875 0.757812 0.3125 0.6875 C 0.414062 0.613281 0.519531 0.550781 0.625 0.5 C 0.726562 0.457031 0.832031 0.421875 0.9375 0.390625 C 1.039062 0.367188 1.132812 0.359375 1.21875 0.359375 C 1.257812 0.367188 1.285156 0.375 1.296875 0.375 C 1.316406 0.382812 1.328125 0.394531 1.328125 0.40625 C 1.328125 0.40625 1.320312 0.410156 1.3125 0.421875 C 1.3125 0.441406 1.3125 0.453125 1.3125 0.453125 C 1.3125 0.472656 1.3125 0.492188 1.3125 0.515625 C 1.320312 0.535156 1.328125 0.554688 1.328125 0.578125 C 1.328125 0.597656 1.320312 0.617188 1.3125 0.640625 C 1.3125 0.660156 1.296875 0.675781 1.265625 0.6875 C 1.148438 0.707031 1.023438 0.75 0.890625 0.8125 C 0.765625 0.875 0.644531 0.945312 0.53125 1.03125 C 0.414062 1.125 0.316406 1.21875 0.234375 1.3125 C 0.160156 1.40625 0.117188 1.503906 0.109375 1.609375 C 0.109375 1.648438 0.128906 1.679688 0.171875 1.703125 C 0.222656 1.722656 0.289062 1.734375 0.375 1.734375 C 0.46875 1.734375 0.582031 1.71875 0.71875 1.6875 C 0.863281 1.664062 1.007812 1.628906 1.15625 1.578125 C 1.300781 1.523438 1.445312 1.457031 1.59375 1.375 C 1.738281 1.300781 1.867188 1.210938 1.984375 1.109375 C 2.109375 1.015625 2.203125 0.910156 2.265625 0.796875 C 2.335938 0.691406 2.375 0.570312 2.375 0.4375 C 2.375 0.375 2.359375 0.328125 2.328125 0.296875 C 2.304688 0.265625 2.28125 0.238281 2.25 0.21875 C 2.21875 0.195312 2.179688 0.179688 2.140625 0.171875 C 2.109375 0.171875 2.082031 0.171875 2.0625 0.171875 C 1.875 0.171875 1.679688 0.179688 1.484375 0.203125 C 1.296875 0.234375 1.125 0.257812 0.96875 0.28125 C 0.8125 0.300781 0.679688 0.320312 0.578125 0.34375 C 0.472656 0.375 0.421875 0.390625 0.421875 0.390625 C 0.359375 0.390625 0.300781 0.375 0.25 0.34375 C 0.207031 0.320312 0.164062 0.289062 0.125 0.25 C 0.09375 0.21875 0.0664062 0.175781 0.046875 0.125 C 0.0351562 0.0820312 0.03125 0.0351562 0.03125 -0.015625 C 0.03125 -0.0546875 0.0507812 -0.113281 0.09375 -0.1875 C 0.144531 -0.257812 0.207031 -0.335938 0.28125 -0.421875 C 0.351562 -0.515625 0.4375 -0.601562 0.53125 -0.6875 C 0.632812 -0.769531 0.734375 -0.835938 0.828125 -0.890625 C 0.742188 -0.929688 0.664062 -0.988281 0.59375 -1.0625 C 0.519531 -1.132812 0.457031 -1.207031 0.40625 -1.28125 C 0.363281 -1.363281 0.328125 -1.445312 0.296875 -1.53125 C 0.273438 -1.613281 0.265625 -1.703125 0.265625 -1.796875 C 0.265625 -1.972656 0.289062 -2.128906 0.34375 -2.265625 C 0.394531 -2.410156 0.457031 -2.53125 0.53125 -2.625 C 0.613281 -2.726562 0.703125 -2.8125 0.796875 -2.875 C 0.898438 -2.945312 1.003906 -3.003906 1.109375 -3.046875 C 1.210938 -3.085938 1.304688 -3.117188 1.390625 -3.140625 C 1.484375 -3.160156 1.554688 -3.171875 1.609375 -3.171875 C 1.640625 -3.171875 1.664062 -3.164062 1.6875 -3.15625 C 1.707031 -3.15625 1.722656 -3.15625 1.734375 -3.15625 C 1.804688 -3.257812 1.882812 -3.367188 1.96875 -3.484375 C 2.050781 -3.597656 2.132812 -3.710938 2.21875 -3.828125 C 2.3125 -3.953125 2.40625 -4.066406 2.5 -4.171875 C 2.59375 -4.273438 2.675781 -4.367188 2.75 -4.453125 C 2.820312 -4.535156 2.882812 -4.597656 2.9375 -4.640625 C 2.988281 -4.691406 3.023438 -4.71875 3.046875 -4.71875 C 3.066406 -4.71875 3.09375 -4.703125 3.125 -4.671875 C 3.164062 -4.640625 3.203125 -4.601562 3.234375 -4.5625 C 3.265625 -4.53125 3.289062 -4.492188 3.3125 -4.453125 C 3.332031 -4.421875 3.34375 -4.398438 3.34375 -4.390625 C 3.34375 -4.378906 3.335938 -4.367188 3.328125 -4.359375 C 3.316406 -4.347656 3.3125 -4.335938 3.3125 -4.328125 C 3.3125 -4.316406 3.316406 -4.304688 3.328125 -4.296875 C 3.347656 -4.285156 3.367188 -4.273438 3.390625 -4.265625 C 3.398438 -4.253906 3.40625 -4.25 3.40625 -4.25 C 3.40625 -4.238281 3.390625 -4.21875 3.359375 -4.1875 C 3.328125 -4.164062 3.269531 -4.125 3.1875 -4.0625 C 3.113281 -4 3.015625 -3.910156 2.890625 -3.796875 C 2.773438 -3.691406 2.628906 -3.550781 2.453125 -3.375 C 2.410156 -3.332031 2.367188 -3.28125 2.328125 -3.21875 C 2.285156 -3.164062 2.238281 -3.109375 2.1875 -3.046875 C 2.25 -3.003906 2.316406 -2.953125 2.390625 -2.890625 C 2.460938 -2.835938 2.53125 -2.769531 2.59375 -2.6875 C 2.65625 -2.601562 2.703125 -2.507812 2.734375 -2.40625 C 2.773438 -2.3125 2.796875 -2.207031 2.796875 -2.09375 C 2.796875 -1.832031 2.753906 -1.617188 2.671875 -1.453125 C 2.585938 -1.285156 2.476562 -1.148438 2.34375 -1.046875 C 2.207031 -0.941406 2.054688 -0.863281 1.890625 -0.8125 C 1.734375 -0.769531 1.570312 -0.75 1.40625 -0.75 C 1.375 -0.75 1.335938 -0.75 1.296875 -0.75 C 1.265625 -0.757812 1.234375 -0.765625 1.203125 -0.765625 C 1.140625 -0.734375 1.066406 -0.6875 0.984375 -0.625 C 0.910156 -0.570312 0.835938 -0.507812 0.765625 -0.4375 C 0.691406 -0.375 0.625 -0.304688 0.5625 -0.234375 C 0.5 -0.160156 0.453125 -0.09375 0.421875 -0.03125 C 0.523438 -0.03125 0.625 -0.0351562 0.71875 -0.046875 C 0.820312 -0.0664062 0.921875 -0.0859375 1.015625 -0.109375 C 1.117188 -0.128906 1.222656 -0.144531 1.328125 -0.15625 C 1.429688 -0.164062 1.539062 -0.171875 1.65625 -0.171875 Z M 1.546875 -2.6875 C 1.546875 -2.738281 1.570312 -2.828125 1.625 -2.953125 C 1.507812 -2.910156 1.398438 -2.847656 1.296875 -2.765625 C 1.203125 -2.691406 1.117188 -2.601562 1.046875 -2.5 C 0.984375 -2.40625 0.929688 -2.300781 0.890625 -2.1875 C 0.859375 -2.070312 0.84375 -1.957031 0.84375 -1.84375 C 0.84375 -1.757812 0.851562 -1.679688 0.875 -1.609375 C 0.894531 -1.535156 0.925781 -1.46875 0.96875 -1.40625 C 1.007812 -1.351562 1.0625 -1.304688 1.125 -1.265625 C 1.195312 -1.234375 1.28125 -1.21875 1.375 -1.21875 C 1.476562 -1.21875 1.570312 -1.234375 1.65625 -1.265625 C 1.738281 -1.304688 1.8125 -1.359375 1.875 -1.421875 C 1.9375 -1.484375 1.988281 -1.550781 2.03125 -1.625 C 2.070312 -1.707031 2.101562 -1.785156 2.125 -1.859375 C 2.15625 -1.929688 2.175781 -2 2.1875 -2.0625 C 2.207031 -2.132812 2.21875 -2.1875 2.21875 -2.21875 C 2.21875 -2.375 2.191406 -2.492188 2.140625 -2.578125 C 2.085938 -2.671875 2.023438 -2.738281 1.953125 -2.78125 C 1.921875 -2.738281 1.882812 -2.695312 1.84375 -2.65625 C 1.800781 -2.613281 1.757812 -2.570312 1.71875 -2.53125 C 1.71875 -2.53125 1.710938 -2.53125 1.703125 -2.53125 C 1.691406 -2.53125 1.679688 -2.53125 1.671875 -2.53125 C 1.671875 -2.539062 1.664062 -2.546875 1.65625 -2.546875 C 1.644531 -2.546875 1.632812 -2.539062 1.625 -2.53125 C 1.625 -2.53125 1.613281 -2.53125 1.59375 -2.53125 C 1.582031 -2.53125 1.570312 -2.539062 1.5625 -2.5625 C 1.550781 -2.582031 1.546875 -2.625 1.546875 -2.6875 Z M 1.546875 -2.6875 "/></g></g><g transform="translate(57.003546, 42.393479)"><g><path d="M 2.828125 -1.4375 C 2.828125 -1.40625 2.828125 -1.367188 2.828125 -1.328125 C 2.835938 -1.285156 2.84375 -1.242188 2.84375 -1.203125 C 2.84375 -1.140625 2.832031 -1.0625 2.8125 -0.96875 C 2.789062 -0.875 2.757812 -0.773438 2.71875 -0.671875 C 2.6875 -0.566406 2.632812 -0.460938 2.5625 -0.359375 C 2.5 -0.265625 2.414062 -0.175781 2.3125 -0.09375 C 2.21875 -0.0078125 2.101562 0.0546875 1.96875 0.109375 C 1.832031 0.160156 1.675781 0.1875 1.5 0.1875 C 1.34375 0.1875 1.179688 0.15625 1.015625 0.09375 C 0.859375 0.0390625 0.710938 -0.046875 0.578125 -0.171875 C 0.453125 -0.296875 0.347656 -0.453125 0.265625 -0.640625 C 0.179688 -0.835938 0.140625 -1.070312 0.140625 -1.34375 C 0.140625 -1.507812 0.160156 -1.671875 0.203125 -1.828125 C 0.242188 -1.992188 0.300781 -2.148438 0.375 -2.296875 C 0.445312 -2.441406 0.53125 -2.570312 0.625 -2.6875 C 0.726562 -2.8125 0.832031 -2.914062 0.9375 -3 C 1.050781 -3.09375 1.164062 -3.160156 1.28125 -3.203125 C 1.394531 -3.253906 1.503906 -3.28125 1.609375 -3.28125 C 1.804688 -3.28125 1.96875 -3.25 2.09375 -3.1875 C 2.21875 -3.132812 2.316406 -3.0625 2.390625 -2.96875 C 2.460938 -2.882812 2.507812 -2.789062 2.53125 -2.6875 C 2.5625 -2.582031 2.578125 -2.492188 2.578125 -2.421875 C 2.578125 -2.335938 2.554688 -2.242188 2.515625 -2.140625 C 2.484375 -2.046875 2.425781 -1.953125 2.34375 -1.859375 C 2.257812 -1.765625 2.144531 -1.6875 2 -1.625 C 1.863281 -1.570312 1.695312 -1.546875 1.5 -1.546875 C 1.382812 -1.546875 1.285156 -1.554688 1.203125 -1.578125 C 1.117188 -1.609375 1.039062 -1.644531 0.96875 -1.6875 C 0.90625 -1.738281 0.851562 -1.789062 0.8125 -1.84375 C 0.769531 -1.894531 0.734375 -1.945312 0.703125 -2 C 0.648438 -1.832031 0.625 -1.644531 0.625 -1.4375 C 0.625 -1.28125 0.644531 -1.140625 0.6875 -1.015625 C 0.726562 -0.898438 0.785156 -0.800781 0.859375 -0.71875 C 0.941406 -0.632812 1.035156 -0.570312 1.140625 -0.53125 C 1.242188 -0.488281 1.359375 -0.46875 1.484375 -0.46875 C 1.640625 -0.46875 1.773438 -0.492188 1.890625 -0.546875 C 2.015625 -0.597656 2.117188 -0.664062 2.203125 -0.75 C 2.296875 -0.832031 2.375 -0.921875 2.4375 -1.015625 C 2.5 -1.109375 2.550781 -1.191406 2.59375 -1.265625 C 2.644531 -1.347656 2.6875 -1.414062 2.71875 -1.46875 C 2.757812 -1.519531 2.796875 -1.546875 2.828125 -1.546875 C 2.835938 -1.546875 2.84375 -1.535156 2.84375 -1.515625 C 2.84375 -1.492188 2.84375 -1.476562 2.84375 -1.46875 C 2.84375 -1.457031 2.835938 -1.445312 2.828125 -1.4375 Z M 1.65625 -2.890625 C 1.601562 -2.890625 1.539062 -2.878906 1.46875 -2.859375 C 1.394531 -2.835938 1.316406 -2.800781 1.234375 -2.75 C 1.148438 -2.707031 1.066406 -2.640625 0.984375 -2.546875 C 0.910156 -2.460938 0.84375 -2.359375 0.78125 -2.234375 C 0.8125 -2.253906 0.84375 -2.269531 0.875 -2.28125 C 0.90625 -2.289062 0.925781 -2.296875 0.9375 -2.296875 C 0.9375 -2.296875 0.941406 -2.289062 0.953125 -2.28125 C 1.015625 -2.175781 1.085938 -2.101562 1.171875 -2.0625 C 1.265625 -2.019531 1.367188 -2 1.484375 -2 C 1.578125 -2 1.65625 -2.015625 1.71875 -2.046875 C 1.78125 -2.078125 1.832031 -2.113281 1.875 -2.15625 C 1.914062 -2.207031 1.941406 -2.257812 1.953125 -2.3125 C 1.972656 -2.375 1.984375 -2.429688 1.984375 -2.484375 C 1.984375 -2.597656 1.953125 -2.691406 1.890625 -2.765625 C 1.835938 -2.847656 1.757812 -2.890625 1.65625 -2.890625 Z M 1.65625 -2.890625 "/></g></g></g></svg>