<svg xmlns="http://www.w3.org/2000/svg" xmlns:xlink="http://www.w3.org/1999/xlink" width="500" zoomAndPan="magnify" viewBox="0 0 375 225" height="300" preserveAspectRatio="xMidYMid meet" version="1.0"><defs><g/><clipPath id="973c22967a"><path d="M 118.613281 62.191406 L 261.871094 62.191406 L 261.871094 104.242188 L 118.613281 104.242188 Z M 118.613281 62.191406 " clip-rule="nonzero"/></clipPath><clipPath id="d136819444"><path d="M 239 74.097656 L 277.496094 74.097656 L 277.496094 84.886719 L 239 84.886719 Z M 239 74.097656 " clip-rule="nonzero"/></clipPath><clipPath id="119a0aff27"><path d="M 101.246094 53 L 143 53 L 143 80 L 101.246094 80 Z M 101.246094 53 " clip-rule="nonzero"/></clipPath></defs><g clip-path="url(#973c22967a)"><path fill="#ff914d" d="M 220.609375 92.753906 C 216.207031 89.335938 210.097656 86.613281 204.863281 89.941406 C 202.578125 91.390625 200.925781 93.554688 198.972656 95.386719 C 197.007812 97.230469 194.644531 98.71875 192.113281 99.648438 C 189.617188 100.566406 186.945312 101.007812 184.292969 100.71875 C 181.382812 100.398438 178.886719 99.035156 176.441406 97.519531 C 171.859375 94.6875 167.160156 92.597656 161.714844 92.25 C 157.3125 91.972656 152.832031 92.925781 149.171875 95.390625 C 149.042969 94.042969 148.996094 92.6875 149.113281 91.339844 C 149.285156 89.296875 149.925781 87.335938 150.636719 85.421875 C 151.976562 81.835938 153.953125 78.644531 156.605469 75.875 C 161.195312 71.078125 167.265625 68.097656 173.664062 66.5625 C 180.195312 64.996094 187.210938 64.785156 193.855469 65.765625 C 201.363281 66.871094 208.769531 70.128906 213.777344 75.984375 C 216.300781 78.9375 217.832031 82.671875 219.121094 86.292969 C 219.941406 88.609375 220.65625 90.964844 221.332031 93.324219 C 221.089844 93.132812 220.851562 92.941406 220.609375 92.753906 Z M 261.359375 98.765625 C 258.167969 95.214844 253.433594 93.347656 248.703125 93.351562 C 246.269531 93.355469 243.863281 93.863281 241.640625 94.851562 C 240.617188 95.304688 239.660156 95.863281 238.765625 96.535156 C 237.636719 97.382812 236.6875 98.5 235.476562 99.226562 C 232.933594 100.761719 229.730469 99.402344 227.445312 98.003906 C 226.652344 97.515625 225.886719 96.976562 225.148438 96.414062 C 224.191406 92.9375 223.230469 89.464844 222.046875 86.058594 C 220.820312 82.523438 219.402344 78.910156 217.242188 75.832031 C 212.535156 69.125 204.722656 65.046875 196.851562 63.414062 C 189.644531 61.914062 181.902344 61.984375 174.691406 63.421875 C 167.671875 64.820312 160.886719 67.84375 155.644531 72.808594 C 152.4375 75.851562 149.898438 79.527344 148.28125 83.644531 C 147.390625 85.910156 146.632812 88.191406 146.339844 90.617188 C 146.0625 92.964844 146.277344 95.296875 146.597656 97.628906 C 145.171875 99.214844 143.664062 101.199219 141.683594 101.378906 C 140.019531 101.53125 138.203125 100.253906 136.828125 99.453125 C 135.417969 98.632812 134.035156 97.753906 132.5625 97.042969 C 129.960938 95.800781 127.199219 95.140625 124.351562 95.859375 C 121.878906 96.476562 119.808594 98.113281 119.046875 100.597656 C 118.507812 102.359375 121.253906 103.105469 121.789062 101.355469 C 122.40625 99.351562 124.578125 98.484375 126.519531 98.402344 C 129.125 98.296875 131.449219 99.59375 133.628906 100.871094 C 135.976562 102.253906 138.699219 104.304688 141.550781 104.242188 C 144 104.183594 145.851562 102.496094 147.4375 100.808594 C 149.152344 98.976562 150.878906 97.378906 153.21875 96.386719 C 155.351562 95.476562 157.6875 95.078125 160 95.054688 C 165.042969 95.011719 169.703125 96.710938 173.953125 99.332031 C 176.433594 100.863281 178.921875 102.449219 181.785156 103.152344 C 184.265625 103.765625 186.835938 103.777344 189.34375 103.34375 C 194.519531 102.457031 198.953125 99.585938 202.539062 95.839844 C 204.332031 93.964844 206.183594 91.867188 208.851562 91.367188 C 211.625 90.839844 214.472656 92.066406 216.777344 93.511719 C 218.863281 94.820312 220.742188 96.488281 222.679688 98.054688 C 222.960938 98.277344 223.242188 98.503906 223.527344 98.726562 C 225.605469 100.335938 227.792969 101.75 230.414062 102.402344 C 233.664062 103.214844 236.382812 102.371094 238.851562 100.191406 C 240.867188 98.40625 242.941406 97.109375 245.601562 96.53125 C 250.539062 95.449219 255.945312 97.003906 259.347656 100.78125 C 260.578125 102.148438 262.582031 100.128906 261.359375 98.765625 " fill-opacity="1" fill-rule="nonzero"/></g><path fill="#ff914d" d="M 189.683594 6.09375 C 189.589844 9.054688 189.144531 12.015625 188.722656 14.949219 C 188.128906 19.128906 187.445312 23.292969 186.761719 27.457031 C 186.234375 30.636719 185.703125 33.820312 185.183594 37 C 185.058594 35.484375 184.933594 33.972656 184.820312 32.460938 C 184.253906 25.089844 183.609375 17.71875 183.242188 10.332031 C 183.183594 9.148438 183.132812 7.964844 183.121094 6.78125 C 183.117188 6.359375 183.113281 5.9375 183.128906 5.519531 C 183.132812 5.375 183.144531 5.226562 183.152344 5.078125 C 183.152344 5.050781 183.152344 5.023438 183.152344 5 C 183.1875 4.984375 183.226562 4.964844 183.28125 4.9375 C 184.25 4.445312 185.203125 4.011719 186.246094 3.6875 C 187.050781 3.445312 188.121094 3.035156 188.941406 3.417969 C 189.90625 3.871094 189.710938 5.199219 189.683594 6.09375 Z M 189.457031 0.59375 C 187.300781 0.00390625 184.757812 1.054688 182.828125 1.953125 C 181.742188 2.453125 180.628906 3.097656 180.390625 4.34375 C 180.230469 5.179688 180.265625 6.066406 180.277344 6.910156 C 180.371094 13.957031 181.09375 21.019531 181.632812 28.042969 C 182.238281 35.917969 183.125 43.863281 183.125 51.765625 L 183.125 51.769531 C 183.125 52.609375 183.71875 53.066406 184.367188 53.136719 C 185.105469 53.175781 185.90625 52.71875 185.96875 51.765625 C 186.171875 48.667969 186.6875 45.582031 187.167969 42.515625 C 187.847656 38.144531 188.582031 33.777344 189.304688 29.410156 C 190.03125 25.023438 190.757812 20.628906 191.394531 16.226562 C 191.875 12.917969 192.402344 9.578125 192.527344 6.234375 C 192.617188 3.808594 192.121094 1.316406 189.457031 0.59375 " fill-opacity="1" fill-rule="nonzero"/><path fill="#ff914d" d="M 241.386719 18.671875 C 239.25 21.875 236.683594 24.859375 234.292969 27.878906 C 231.921875 30.867188 229.519531 33.835938 227.082031 36.773438 C 223.378906 41.242188 219.601562 45.648438 215.746094 49.992188 C 220.582031 39.972656 226.410156 30.484375 232.273438 21.019531 C 233.253906 19.433594 234.238281 17.84375 235.21875 16.253906 C 235.699219 15.46875 236.230469 14.695312 236.671875 13.882812 C 236.921875 13.414062 237.070312 12.320312 237.550781 12.078125 C 238.660156 11.507812 240.761719 13.691406 241.429688 14.398438 C 242.753906 15.800781 242.382812 17.175781 241.386719 18.671875 Z M 244.695312 14.121094 C 243.96875 12.617188 242.546875 11.414062 241.210938 10.464844 C 239.871094 9.515625 238.089844 8.785156 236.472656 9.4375 C 234.777344 10.125 234.472656 12.015625 233.605469 13.4375 C 229.4375 20.238281 225.148438 26.96875 221.121094 33.855469 C 216.714844 41.398438 212.738281 49.160156 209.410156 57.246094 C 209.097656 58.015625 209.492188 58.589844 210.078125 58.828125 C 210.578125 59.175781 211.253906 59.21875 211.789062 58.632812 C 217.566406 52.332031 223.191406 45.894531 228.660156 39.320312 C 231.390625 36.03125 234.082031 32.710938 236.730469 29.355469 C 238.09375 27.632812 239.449219 25.898438 240.789062 24.15625 C 242.007812 22.574219 243.429688 21.007812 244.375 19.234375 C 245.230469 17.621094 245.515625 15.8125 244.695312 14.121094 " fill-opacity="1" fill-rule="nonzero"/><path fill="#ff914d" d="M 271.507812 50.808594 C 270.285156 52.800781 267.914062 53.867188 265.878906 54.8125 C 263.722656 55.8125 261.515625 56.6875 259.277344 57.488281 C 251.132812 60.386719 242.699219 62.308594 234.269531 64.203125 C 236.21875 63.042969 238.191406 61.925781 240.175781 60.824219 C 245.957031 57.617188 251.824219 54.550781 257.757812 51.636719 C 260.226562 50.425781 262.703125 49.238281 265.214844 48.125 C 266.773438 47.4375 268.371094 46.699219 270.074219 46.242188 C 270.164062 46.21875 270.257812 46.199219 270.347656 46.175781 C 270.421875 46.160156 270.515625 46.144531 270.59375 46.164062 C 270.601562 46.167969 270.609375 46.171875 270.621094 46.171875 C 270.632812 46.175781 270.648438 46.175781 270.660156 46.179688 C 270.675781 46.183594 270.6875 46.1875 270.703125 46.191406 C 270.746094 46.210938 270.785156 46.226562 270.828125 46.242188 C 270.914062 46.277344 270.996094 46.324219 271.070312 46.378906 C 272.4375 47.339844 272.273438 49.554688 271.507812 50.808594 Z M 228.578125 67.859375 C 228.582031 67.855469 228.585938 67.855469 228.585938 67.855469 C 228.582031 67.859375 228.578125 67.859375 228.578125 67.859375 Z M 274.914062 48.367188 C 274.75 46.3125 273.695312 44.277344 271.691406 43.511719 C 270.238281 42.957031 268.714844 43.640625 267.347656 44.167969 C 264.945312 45.09375 262.605469 46.171875 260.277344 47.265625 C 254.015625 50.214844 247.859375 53.394531 241.777344 56.695312 C 238.640625 58.394531 235.519531 60.132812 232.457031 61.964844 C 230.382812 63.203125 228.277344 64.449219 226.402344 65.976562 C 226.394531 65.984375 226.382812 65.992188 226.375 66 C 226.367188 66.003906 226.363281 66.003906 226.355469 66.003906 C 224.574219 66.421875 225.328125 69.171875 227.113281 68.753906 C 237.632812 66.285156 248.285156 64.234375 258.539062 60.757812 C 260.984375 59.925781 263.398438 59.003906 265.773438 57.96875 C 268.027344 56.988281 270.34375 55.953125 272.214844 54.3125 C 273.925781 52.8125 275.097656 50.691406 274.914062 48.367188 " fill-opacity="1" fill-rule="nonzero"/><g clip-path="url(#d136819444)"><path fill="#ff914d" d="M 274.792969 77.21875 C 274.761719 77.222656 274.714844 77.234375 274.644531 77.257812 C 274.664062 77.742188 274.558594 78.277344 274.519531 78.738281 C 274.476562 79.273438 274.433594 79.804688 274.390625 80.335938 C 274.378906 80.4375 274.269531 81.789062 274.398438 81.722656 C 274.191406 81.878906 273.015625 81.664062 272.777344 81.636719 C 272.175781 81.570312 271.578125 81.457031 270.984375 81.34375 C 266.902344 80.589844 262.816406 79.855469 258.695312 79.332031 C 262.546875 78.8125 266.394531 78.296875 270.246094 77.777344 C 271.375 77.625 272.503906 77.460938 273.636719 77.359375 C 273.839844 77.339844 274.316406 77.371094 274.535156 77.292969 C 274.574219 77.277344 274.613281 77.265625 274.644531 77.257812 C 274.644531 77.167969 274.636719 77.082031 274.621094 76.996094 C 274.648438 77.167969 274.742188 77.210938 274.792969 77.21875 C 274.847656 77.210938 274.832031 77.222656 274.792969 77.21875 Z M 275.796875 74.574219 C 274.707031 74.222656 273.398438 74.519531 272.292969 74.652344 C 270.902344 74.824219 269.511719 75.023438 268.117188 75.210938 C 265.285156 75.59375 262.449219 75.972656 259.613281 76.355469 C 253.242188 77.214844 246.871094 78.070312 240.496094 78.929688 C 240.363281 78.949219 240.234375 78.976562 240.109375 79.019531 C 240.082031 79.027344 240.058594 79.039062 240.035156 79.046875 C 239.300781 79.363281 239.015625 80.210938 239.183594 80.878906 C 239.386719 81.363281 239.84375 81.785156 240.359375 81.789062 C 240.378906 81.792969 240.394531 81.789062 240.410156 81.789062 C 240.4375 81.789062 240.46875 81.785156 240.496094 81.785156 C 245.902344 81.242188 251.324219 81.363281 256.714844 81.949219 C 259.429688 82.246094 262.128906 82.65625 264.816406 83.117188 C 267.460938 83.566406 270.109375 84.207031 272.777344 84.488281 C 273.902344 84.605469 275.171875 84.71875 276.113281 83.976562 C 277.117188 83.195312 277.101562 81.957031 277.195312 80.789062 C 277.355469 78.886719 278.300781 75.378906 275.796875 74.574219 " fill-opacity="1" fill-rule="nonzero"/></g><path fill="#ff914d" d="M 143.9375 46.898438 C 138.671875 42.09375 133.269531 37.394531 128.203125 32.375 C 127.035156 31.21875 125.894531 30.03125 124.796875 28.804688 C 124.488281 28.457031 123.695312 27.835938 123.824219 27.328125 C 123.875 27.121094 124.496094 26.722656 124.648438 26.601562 C 125.097656 26.230469 125.5625 25.875 126.035156 25.535156 C 127.296875 24.628906 128.613281 23.808594 129.980469 23.074219 C 130.851562 22.605469 130.214844 23.027344 130.148438 22.992188 C 130.398438 23.125 130.75 23.867188 130.914062 24.105469 C 131.519531 24.972656 132.121094 25.835938 132.730469 26.699219 C 136.664062 32.289062 140.707031 37.796875 144.703125 43.34375 C 147.546875 47.289062 150.363281 51.25 153.101562 55.269531 C 150.046875 52.476562 146.992188 49.6875 143.9375 46.898438 Z M 160.554688 61.382812 C 152.265625 48.398438 142.824219 36.21875 134.015625 23.59375 C 133.171875 22.382812 132.296875 20.378906 130.675781 20.128906 C 129.101562 19.878906 127.429688 21.195312 126.171875 22 C 123.847656 23.492188 119.386719 25.945312 121.503906 29.261719 C 122.445312 30.746094 123.863281 32.03125 125.085938 33.28125 C 126.441406 34.667969 127.847656 36.015625 129.269531 37.339844 C 132.109375 39.992188 135 42.59375 137.871094 45.214844 C 144.628906 51.386719 151.382812 57.554688 158.140625 63.722656 C 159.144531 64.636719 160.507812 63.769531 160.597656 62.757812 C 160.832031 62.378906 160.871094 61.886719 160.554688 61.382812 " fill-opacity="1" fill-rule="nonzero"/><g clip-path="url(#119a0aff27)"><path fill="#ff914d" d="M 117.878906 68.308594 C 115.878906 67.621094 113.871094 66.9375 111.863281 66.265625 C 110.199219 65.710938 108.4375 65.257812 106.875 64.445312 C 105.5 63.734375 104.382812 62.730469 104.363281 61.078125 C 104.355469 60.148438 104.667969 59.214844 104.976562 58.347656 C 105.125 57.929688 105.269531 57.503906 105.46875 57.101562 C 105.601562 56.835938 105.960938 56.5 106.042969 56.238281 C 106.046875 56.21875 106.078125 56.171875 106.113281 56.132812 C 106.054688 56.101562 106.003906 56.070312 105.957031 56.039062 C 105.773438 55.898438 106.035156 56.097656 106.121094 56.117188 C 106.144531 56.085938 106.160156 56.074219 106.144531 56.113281 C 106.140625 56.121094 106.132812 56.121094 106.121094 56.117188 C 106.117188 56.125 106.113281 56.128906 106.113281 56.132812 C 106.21875 56.1875 106.335938 56.230469 106.4375 56.289062 C 106.96875 56.570312 107.496094 56.867188 108.019531 57.160156 C 109.691406 58.09375 111.347656 59.050781 113.003906 60.003906 C 116.613281 62.085938 120.226562 64.179688 123.785156 66.355469 C 125.675781 67.511719 127.417969 68.832031 129.195312 70.160156 C 131.132812 71.597656 133.113281 73.003906 135.035156 74.476562 C 129.34375 72.347656 123.625 70.289062 117.878906 68.308594 Z M 142.429688 77.546875 C 142.417969 77.234375 142.289062 76.921875 142 76.640625 C 138.808594 73.574219 135.128906 71.046875 131.59375 68.410156 C 129.652344 66.964844 127.765625 65.460938 125.707031 64.191406 C 121.859375 61.816406 117.9375 59.554688 114.019531 57.296875 C 112.300781 56.304688 110.578125 55.316406 108.84375 54.355469 C 107.507812 53.613281 106.21875 52.765625 104.6875 53.695312 C 103.222656 54.582031 102.59375 56.464844 102.089844 58 C 101.457031 59.929688 101.234375 62.015625 102.179688 63.882812 C 103.847656 67.15625 108.171875 68.035156 111.332031 69.089844 C 121.296875 72.429688 131.1875 75.996094 140.992188 79.777344 C 142.398438 80.320312 143.148438 78.550781 142.429688 77.546875 " fill-opacity="1" fill-rule="nonzero"/></g><path fill="#ff914d" d="M 129.675781 88.230469 C 129.199219 87.984375 128.730469 87.722656 128.277344 87.441406 C 128.199219 87.390625 128.042969 87.269531 127.878906 87.140625 C 128.261719 87.097656 128.664062 87.074219 129.039062 87.109375 C 130.070312 87.214844 130.613281 88.019531 131.042969 88.890625 C 130.582031 88.683594 130.125 88.460938 129.675781 88.230469 Z M 135.65625 90.699219 C 134.015625 89.824219 133.679688 87.378906 132.554688 85.996094 C 131.03125 84.128906 128.246094 83.824219 126.0625 84.617188 C 125.035156 84.988281 124.226562 85.894531 124.335938 87.042969 C 124.460938 88.375 125.640625 89.148438 126.675781 89.800781 C 129.113281 91.335938 131.859375 92.347656 134.5625 93.304688 C 135.390625 93.601562 135.996094 93.117188 136.210938 92.46875 C 136.507812 91.863281 136.417969 91.105469 135.65625 90.699219 " fill-opacity="1" fill-rule="nonzero"/><path fill="#ff914d" d="M 238.882812 87.878906 C 238.679688 88.113281 238.53125 88.402344 238.3125 88.636719 C 237.75 89.25 237.113281 89.789062 236.480469 90.328125 C 236.152344 90.609375 235.816406 90.878906 235.488281 91.164062 C 235.703125 90.195312 235.855469 89.171875 236.15625 88.234375 C 236.304688 87.769531 236.417969 87.523438 236.902344 87.414062 C 237.449219 87.285156 238.476562 87.351562 238.933594 87.796875 C 238.921875 87.828125 238.902344 87.855469 238.882812 87.878906 Z M 241.691406 86.902344 C 241.65625 86.785156 241.613281 86.679688 241.558594 86.582031 C 241.554688 86.578125 241.550781 86.570312 241.546875 86.5625 C 241.546875 86.558594 241.542969 86.558594 241.542969 86.550781 C 240.378906 84.257812 236.230469 83.792969 234.445312 85.585938 C 233.480469 86.554688 233.324219 87.941406 233.03125 89.210938 C 232.613281 91.035156 232.121094 92.863281 232.226562 94.753906 C 232.277344 95.695312 233.09375 96.351562 234.027344 96.128906 C 235.332031 95.816406 235.894531 94.875 236.722656 93.9375 C 237.363281 93.203125 238.183594 92.617188 238.921875 91.984375 C 240.324219 90.761719 242.3125 89.003906 241.691406 86.902344 " fill-opacity="1" fill-rule="nonzero"/><g fill="#fffbfc" fill-opacity="1"><g transform="translate(42.160366, 186.506865)"><g><path d="M 53.9375 -62.125 C 53.675781 -60.820312 53.0625 -59.539062 52.09375 -58.28125 C 51.125 -57.03125 50.039062 -55.960938 48.84375 -55.078125 C 48.675781 -54.910156 48.363281 -54.734375 47.90625 -54.546875 C 47.445312 -54.359375 46.953125 -54.160156 46.421875 -53.953125 C 45.898438 -53.742188 45.382812 -53.5625 44.875 -53.40625 C 44.375 -53.25 43.984375 -53.15625 43.703125 -53.125 C 43.441406 -53.0625 43.238281 -53.078125 43.09375 -53.171875 C 42.957031 -53.265625 42.820312 -53.375 42.6875 -53.5 C 42.5625 -53.625 42.410156 -53.742188 42.234375 -53.859375 C 42.066406 -53.972656 41.820312 -54.03125 41.5 -54.03125 C 41.125 -54.03125 40.894531 -54.113281 40.8125 -54.28125 C 40.738281 -54.457031 40.78125 -54.785156 40.9375 -55.265625 C 41 -55.421875 41.109375 -55.640625 41.265625 -55.921875 C 41.421875 -56.210938 41.675781 -56.582031 42.03125 -57.03125 C 42.28125 -57.3125 42.492188 -57.625 42.671875 -57.96875 C 42.847656 -58.320312 42.878906 -58.648438 42.765625 -58.953125 C 42.660156 -59.253906 42.351562 -59.5 41.84375 -59.6875 C 41.332031 -59.875 40.535156 -59.96875 39.453125 -59.96875 C 38.347656 -59.96875 36.921875 -59.828125 35.171875 -59.546875 C 33.265625 -59.296875 31.289062 -58.820312 29.25 -58.125 C 27.207031 -57.425781 25.222656 -56.613281 23.296875 -55.6875 C 21.378906 -54.769531 19.609375 -53.785156 17.984375 -52.734375 C 16.367188 -51.691406 15.046875 -50.671875 14.015625 -49.671875 C 12.984375 -48.671875 12.320312 -47.734375 12.03125 -46.859375 C 11.75 -45.984375 11.988281 -45.28125 12.75 -44.75 C 13.414062 -44.269531 14.429688 -43.863281 15.796875 -43.53125 C 17.160156 -43.195312 18.734375 -42.894531 20.515625 -42.625 C 22.296875 -42.351562 24.203125 -42.066406 26.234375 -41.765625 C 28.265625 -41.460938 30.285156 -41.101562 32.296875 -40.6875 C 34.304688 -40.28125 36.222656 -39.773438 38.046875 -39.171875 C 39.878906 -38.566406 41.492188 -37.820312 42.890625 -36.9375 C 43.867188 -36.269531 44.691406 -35.632812 45.359375 -35.03125 C 46.023438 -34.425781 46.5625 -33.832031 46.96875 -33.25 C 47.382812 -32.664062 47.71875 -32.09375 47.96875 -31.53125 C 48.226562 -30.976562 48.453125 -30.414062 48.640625 -29.84375 C 48.773438 -29.5 49.007812 -29.109375 49.34375 -28.671875 C 49.675781 -28.242188 50.03125 -27.726562 50.40625 -27.125 C 50.789062 -26.53125 51.140625 -25.84375 51.453125 -25.0625 C 51.773438 -24.28125 51.984375 -23.367188 52.078125 -22.328125 C 52.203125 -20.234375 51.78125 -18.25 50.8125 -16.375 C 49.84375 -14.5 48.585938 -12.769531 47.046875 -11.1875 C 45.515625 -9.601562 43.8125 -8.179688 41.9375 -6.921875 C 40.0625 -5.671875 38.269531 -4.632812 36.5625 -3.8125 C 35.0625 -3.082031 33.472656 -2.398438 31.796875 -1.765625 C 30.117188 -1.128906 28.390625 -0.578125 26.609375 -0.109375 C 24.828125 0.347656 23.023438 0.707031 21.203125 0.96875 C 19.378906 1.238281 17.578125 1.375 15.796875 1.375 C 12.847656 1.375 10.082031 0.96875 7.5 0.15625 C 4.914062 -0.644531 2.671875 -2 0.765625 -3.90625 C -0.160156 -4.882812 -0.828125 -5.875 -1.234375 -6.875 C -1.648438 -7.875 -1.859375 -8.867188 -1.859375 -9.859375 C -1.859375 -11.023438 -1.617188 -12.164062 -1.140625 -13.28125 C -0.660156 -14.394531 -0.0390625 -15.441406 0.71875 -16.421875 C 1.476562 -17.398438 2.316406 -18.28125 3.234375 -19.0625 C 4.148438 -19.84375 5.054688 -20.46875 5.953125 -20.9375 C 7.191406 -21.632812 8.484375 -22.304688 9.828125 -22.953125 C 11.179688 -23.609375 12.539062 -24.195312 13.90625 -24.71875 C 15.269531 -25.25 16.632812 -25.6875 18 -26.03125 C 19.363281 -26.382812 20.675781 -26.609375 21.9375 -26.703125 C 22.476562 -26.765625 23.160156 -26.828125 23.984375 -26.890625 C 24.816406 -26.953125 25.597656 -26.984375 26.328125 -26.984375 C 26.796875 -26.984375 27.1875 -26.859375 27.5 -26.609375 C 27.820312 -26.359375 27.953125 -26.132812 27.890625 -25.9375 C 27.734375 -25.59375 27.457031 -25.421875 27.0625 -25.421875 C 26.664062 -25.421875 26.195312 -25.359375 25.65625 -25.234375 C 25.050781 -25.066406 24.445312 -24.953125 23.84375 -24.890625 C 23.238281 -24.828125 22.703125 -24.71875 22.234375 -24.5625 C 18.609375 -23.738281 15.550781 -22.691406 13.0625 -21.421875 C 10.570312 -20.148438 8.585938 -18.863281 7.109375 -17.5625 C 5.640625 -16.257812 4.632812 -15.03125 4.09375 -13.875 C 3.550781 -12.71875 3.394531 -11.835938 3.625 -11.234375 C 3.9375 -10.378906 4.519531 -9.710938 5.375 -9.234375 C 6.226562 -8.753906 7.195312 -8.410156 8.28125 -8.203125 C 9.363281 -8.003906 10.457031 -7.890625 11.5625 -7.859375 C 12.675781 -7.828125 13.628906 -7.84375 14.421875 -7.90625 C 16.265625 -8 18.316406 -8.265625 20.578125 -8.703125 C 22.847656 -9.148438 25.148438 -9.738281 27.484375 -10.46875 C 29.816406 -11.195312 32.09375 -12.0625 34.3125 -13.0625 C 36.539062 -14.0625 38.507812 -15.15625 40.21875 -16.34375 C 41.9375 -17.539062 43.316406 -18.828125 44.359375 -20.203125 C 45.410156 -21.585938 45.9375 -23.039062 45.9375 -24.5625 C 45.9375 -25.070312 45.863281 -25.570312 45.71875 -26.0625 C 45.570312 -26.550781 45.375 -27.066406 45.125 -27.609375 C 44.644531 -28.523438 43.738281 -29.304688 42.40625 -29.953125 C 41.070312 -30.609375 39.476562 -31.164062 37.625 -31.625 C 35.769531 -32.082031 33.753906 -32.492188 31.578125 -32.859375 C 29.410156 -33.234375 27.269531 -33.609375 25.15625 -33.984375 C 23.039062 -34.367188 21.03125 -34.796875 19.125 -35.265625 C 17.226562 -35.742188 15.628906 -36.332031 14.328125 -37.03125 C 12.867188 -37.820312 11.796875 -38.609375 11.109375 -39.390625 C 10.429688 -40.171875 10.046875 -41.144531 9.953125 -42.3125 C 9.921875 -42.4375 9.820312 -42.65625 9.65625 -42.96875 C 9.5 -43.289062 9.316406 -43.625 9.109375 -43.96875 C 8.910156 -44.320312 8.710938 -44.65625 8.515625 -44.96875 C 8.328125 -45.289062 8.1875 -45.550781 8.09375 -45.75 C 7.582031 -46.664062 7.328125 -47.664062 7.328125 -48.75 C 7.328125 -49.945312 7.601562 -51.179688 8.15625 -52.453125 C 8.71875 -53.722656 9.410156 -54.816406 10.234375 -55.734375 C 11.753906 -57.484375 13.757812 -59.101562 16.25 -60.59375 C 18.738281 -62.082031 21.457031 -63.378906 24.40625 -64.484375 C 27.363281 -65.597656 30.40625 -66.492188 33.53125 -67.171875 C 36.65625 -67.859375 39.613281 -68.253906 42.40625 -68.359375 C 43.550781 -68.390625 44.835938 -68.304688 46.265625 -68.109375 C 47.691406 -67.921875 49.015625 -67.582031 50.234375 -67.09375 C 51.460938 -66.601562 52.441406 -65.953125 53.171875 -65.140625 C 53.898438 -64.328125 54.15625 -63.320312 53.9375 -62.125 Z M 53.9375 -62.125 "/></g></g></g><g fill="#fffbfc" fill-opacity="1"><g transform="translate(98.609116, 186.506865)"><g><path d="M 15.515625 -62.125 C 15.546875 -61.488281 15.519531 -60.78125 15.4375 -60 C 15.363281 -59.21875 15.238281 -58.460938 15.0625 -57.734375 C 14.882812 -57.003906 14.644531 -56.351562 14.34375 -55.78125 C 14.050781 -55.21875 13.695312 -54.820312 13.28125 -54.59375 C 12.226562 -54.050781 11.304688 -53.78125 10.515625 -53.78125 C 9.878906 -53.78125 9.332031 -53.929688 8.875 -54.234375 C 8.414062 -54.535156 7.960938 -54.878906 7.515625 -55.265625 C 6.878906 -55.773438 6.347656 -56.441406 5.921875 -57.265625 C 5.492188 -58.085938 5.28125 -58.878906 5.28125 -59.640625 C 5.28125 -60.242188 5.382812 -60.984375 5.59375 -61.859375 C 5.800781 -62.734375 6.0625 -63.582031 6.375 -64.40625 C 6.695312 -65.226562 7.039062 -65.976562 7.40625 -66.65625 C 7.769531 -67.34375 8.125 -67.8125 8.46875 -68.0625 C 9.007812 -68.507812 9.507812 -68.753906 9.96875 -68.796875 C 10.425781 -68.847656 10.800781 -68.828125 11.09375 -68.734375 C 11.789062 -68.578125 12.40625 -68.378906 12.9375 -68.140625 C 13.476562 -67.898438 13.929688 -67.535156 14.296875 -67.046875 C 14.660156 -66.554688 14.9375 -65.910156 15.125 -65.109375 C 15.320312 -64.316406 15.453125 -63.320312 15.515625 -62.125 Z M 11.609375 -40.84375 C 11.773438 -40.6875 11.894531 -40.160156 11.96875 -39.265625 C 12.050781 -38.378906 12.09375 -37.222656 12.09375 -35.796875 C 12.09375 -34.835938 12.078125 -33.800781 12.046875 -32.6875 C 12.015625 -31.582031 11.972656 -30.441406 11.921875 -29.265625 C 11.878906 -28.097656 11.820312 -26.914062 11.75 -25.71875 C 11.6875 -24.53125 11.640625 -23.398438 11.609375 -22.328125 C 11.515625 -20.546875 11.457031 -18.898438 11.4375 -17.390625 C 11.425781 -15.890625 11.421875 -14.441406 11.421875 -13.046875 C 11.421875 -11.203125 11.4375 -9.519531 11.46875 -8 C 11.5 -6.476562 11.515625 -5.207031 11.515625 -4.1875 C 11.515625 -3.070312 11.472656 -2.222656 11.390625 -1.640625 C 11.316406 -1.054688 11.15625 -0.734375 10.90625 -0.671875 C 10.613281 -0.609375 10.375 -0.472656 10.1875 -0.265625 C 10 -0.0546875 9.820312 0.140625 9.65625 0.328125 C 9.5 0.523438 9.316406 0.691406 9.109375 0.828125 C 8.910156 0.972656 8.664062 1.015625 8.375 0.953125 C 8.21875 0.921875 7.945312 0.773438 7.5625 0.515625 C 7.1875 0.265625 6.785156 -0.0390625 6.359375 -0.40625 C 5.929688 -0.769531 5.523438 -1.1875 5.140625 -1.65625 C 4.753906 -2.132812 4.5 -2.628906 4.375 -3.140625 C 4.3125 -3.390625 4.253906 -3.894531 4.203125 -4.65625 C 4.160156 -5.425781 4.125 -6.347656 4.09375 -7.421875 C 4.0625 -8.503906 4.03125 -9.703125 4 -11.015625 C 3.96875 -12.335938 3.941406 -13.671875 3.921875 -15.015625 C 3.910156 -16.367188 3.90625 -17.691406 3.90625 -18.984375 C 3.90625 -20.285156 3.90625 -21.460938 3.90625 -22.515625 C 3.90625 -24.128906 3.957031 -25.773438 4.0625 -27.453125 C 4.175781 -29.140625 4.304688 -30.710938 4.453125 -32.171875 C 4.597656 -33.628906 4.738281 -34.90625 4.875 -36 C 5.019531 -37.101562 5.125 -37.875 5.1875 -38.3125 C 5.3125 -39.070312 5.445312 -39.664062 5.59375 -40.09375 C 5.738281 -40.53125 5.894531 -40.84375 6.0625 -41.03125 C 6.238281 -41.21875 6.414062 -41.332031 6.59375 -41.375 C 6.769531 -41.425781 6.953125 -41.46875 7.140625 -41.5 C 7.523438 -41.570312 7.960938 -41.585938 8.453125 -41.546875 C 8.941406 -41.515625 9.40625 -41.46875 9.84375 -41.40625 C 10.289062 -41.34375 10.679688 -41.253906 11.015625 -41.140625 C 11.347656 -41.035156 11.546875 -40.9375 11.609375 -40.84375 Z M 11.609375 -40.84375 "/></g></g></g><g fill="#fffbfc" fill-opacity="1"><g transform="translate(115.172493, 186.506865)"><g><path d="M 32.46875 -2.046875 C 32.46875 -1.660156 32.332031 -1.238281 32.0625 -0.78125 C 31.789062 -0.320312 31.398438 -0.09375 30.890625 -0.09375 C 30.609375 -0.09375 30.382812 -0.171875 30.21875 -0.328125 C 30.0625 -0.492188 29.90625 -0.578125 29.75 -0.578125 C 29.53125 -0.578125 29.316406 -0.492188 29.109375 -0.328125 C 28.898438 -0.171875 28.554688 -0.09375 28.078125 -0.09375 C 27.441406 -0.09375 26.894531 -0.320312 26.4375 -0.78125 C 25.976562 -1.238281 25.601562 -1.828125 25.3125 -2.546875 C 25.03125 -3.265625 24.816406 -4.039062 24.671875 -4.875 C 24.535156 -5.71875 24.46875 -6.503906 24.46875 -7.234375 C 24.46875 -8.660156 24.519531 -10.285156 24.625 -12.109375 C 24.738281 -13.929688 24.867188 -15.800781 25.015625 -17.71875 C 25.160156 -19.644531 25.285156 -21.5625 25.390625 -23.46875 C 25.503906 -25.375 25.5625 -27.132812 25.5625 -28.75 C 25.5625 -30.90625 25.414062 -32.585938 25.125 -33.796875 C 24.84375 -35.003906 24.335938 -35.609375 23.609375 -35.609375 C 22.910156 -35.515625 22.195312 -34.910156 21.46875 -33.796875 C 20.738281 -32.679688 19.992188 -31.257812 19.234375 -29.53125 C 18.472656 -27.800781 17.722656 -25.847656 16.984375 -23.671875 C 16.253906 -21.503906 15.546875 -19.285156 14.859375 -17.015625 C 14.179688 -14.742188 13.539062 -12.535156 12.9375 -10.390625 C 12.34375 -8.253906 11.804688 -6.34375 11.328125 -4.65625 C 10.847656 -2.976562 10.429688 -1.625 10.078125 -0.59375 C 9.734375 0.4375 9.5 0.953125 9.375 0.953125 C 9.125 0.953125 8.929688 0.894531 8.796875 0.78125 C 8.671875 0.675781 8.550781 0.554688 8.4375 0.421875 C 8.332031 0.296875 8.203125 0.175781 8.046875 0.0625 C 7.890625 -0.0390625 7.648438 -0.09375 7.328125 -0.09375 C 7.046875 -0.09375 6.851562 -0.0625 6.75 0 C 6.65625 0.0625 6.546875 0.140625 6.421875 0.234375 C 6.296875 0.328125 6.140625 0.40625 5.953125 0.46875 C 5.765625 0.539062 5.429688 0.578125 4.953125 0.578125 C 4.378906 0.578125 3.8125 0.429688 3.25 0.140625 C 2.695312 -0.140625 2.421875 -0.582031 2.421875 -1.1875 C 2.421875 -1.570312 2.484375 -2.359375 2.609375 -3.546875 C 2.742188 -4.734375 2.894531 -6.191406 3.0625 -7.921875 C 3.238281 -9.648438 3.429688 -11.585938 3.640625 -13.734375 C 3.847656 -15.878906 4.035156 -18.09375 4.203125 -20.375 C 4.378906 -22.65625 4.53125 -24.9375 4.65625 -27.21875 C 4.789062 -29.507812 4.859375 -31.6875 4.859375 -33.75 C 4.859375 -34.757812 4.84375 -35.703125 4.8125 -36.578125 C 4.78125 -37.453125 4.765625 -38.285156 4.765625 -39.078125 C 4.765625 -39.265625 4.859375 -39.359375 5.046875 -39.359375 C 5.421875 -39.359375 5.710938 -39.285156 5.921875 -39.140625 C 6.128906 -39.003906 6.28125 -38.851562 6.375 -38.6875 C 6.46875 -38.53125 6.519531 -38.378906 6.53125 -38.234375 C 6.550781 -38.097656 6.578125 -38.03125 6.609375 -38.03125 C 6.710938 -38.03125 6.828125 -38.082031 6.953125 -38.1875 C 7.078125 -38.300781 7.207031 -38.421875 7.34375 -38.546875 C 7.488281 -38.679688 7.625 -38.800781 7.75 -38.90625 C 7.882812 -39.019531 8 -39.078125 8.09375 -39.078125 L 8.5625 -39.078125 C 9.039062 -39.078125 9.375 -39.148438 9.5625 -39.296875 C 9.757812 -39.441406 9.894531 -39.597656 9.96875 -39.765625 C 10.050781 -39.941406 10.109375 -40.097656 10.140625 -40.234375 C 10.171875 -40.378906 10.265625 -40.453125 10.421875 -40.453125 C 10.515625 -40.453125 10.648438 -40.378906 10.828125 -40.234375 C 11.003906 -40.097656 11.175781 -39.863281 11.34375 -39.53125 C 11.519531 -39.195312 11.671875 -38.757812 11.796875 -38.21875 C 11.929688 -37.675781 12 -37.023438 12 -36.265625 C 12 -35.253906 11.957031 -33.96875 11.875 -32.40625 C 11.789062 -30.851562 11.691406 -29.195312 11.578125 -27.4375 C 11.472656 -25.675781 11.375 -23.898438 11.28125 -22.109375 C 11.1875 -20.316406 11.125 -18.691406 11.09375 -17.234375 C 11.4375 -18.597656 11.851562 -20.113281 12.34375 -21.78125 C 12.84375 -23.445312 13.414062 -25.132812 14.0625 -26.84375 C 14.71875 -28.5625 15.425781 -30.234375 16.1875 -31.859375 C 16.945312 -33.492188 17.769531 -34.945312 18.65625 -36.21875 C 19.539062 -37.488281 20.472656 -38.507812 21.453125 -39.28125 C 22.441406 -40.0625 23.476562 -40.453125 24.5625 -40.453125 C 26.269531 -40.453125 27.671875 -40.132812 28.765625 -39.5 C 29.867188 -38.875 30.734375 -38.003906 31.359375 -36.890625 C 31.992188 -35.773438 32.429688 -34.472656 32.671875 -32.984375 C 32.910156 -31.492188 33.03125 -29.890625 33.03125 -28.171875 C 33.03125 -26.710938 32.96875 -25.179688 32.84375 -23.578125 C 32.71875 -21.984375 32.582031 -20.382812 32.4375 -18.78125 C 32.289062 -17.175781 32.160156 -15.59375 32.046875 -14.03125 C 31.941406 -12.476562 31.890625 -11.019531 31.890625 -9.65625 C 31.890625 -7.976562 31.984375 -6.460938 32.171875 -5.109375 C 32.367188 -3.765625 32.46875 -2.742188 32.46875 -2.046875 Z M 32.46875 -2.046875 "/></g></g></g><g fill="#fffbfc" fill-opacity="1"><g transform="translate(153.106441, 186.506865)"><g><path d="M 15.515625 -62.125 C 15.546875 -61.488281 15.519531 -60.78125 15.4375 -60 C 15.363281 -59.21875 15.238281 -58.460938 15.0625 -57.734375 C 14.882812 -57.003906 14.644531 -56.351562 14.34375 -55.78125 C 14.050781 -55.21875 13.695312 -54.820312 13.28125 -54.59375 C 12.226562 -54.050781 11.304688 -53.78125 10.515625 -53.78125 C 9.878906 -53.78125 9.332031 -53.929688 8.875 -54.234375 C 8.414062 -54.535156 7.960938 -54.878906 7.515625 -55.265625 C 6.878906 -55.773438 6.347656 -56.441406 5.921875 -57.265625 C 5.492188 -58.085938 5.28125 -58.878906 5.28125 -59.640625 C 5.28125 -60.242188 5.382812 -60.984375 5.59375 -61.859375 C 5.800781 -62.734375 6.0625 -63.582031 6.375 -64.40625 C 6.695312 -65.226562 7.039062 -65.976562 7.40625 -66.65625 C 7.769531 -67.34375 8.125 -67.8125 8.46875 -68.0625 C 9.007812 -68.507812 9.507812 -68.753906 9.96875 -68.796875 C 10.425781 -68.847656 10.800781 -68.828125 11.09375 -68.734375 C 11.789062 -68.578125 12.40625 -68.378906 12.9375 -68.140625 C 13.476562 -67.898438 13.929688 -67.535156 14.296875 -67.046875 C 14.660156 -66.554688 14.9375 -65.910156 15.125 -65.109375 C 15.320312 -64.316406 15.453125 -63.320312 15.515625 -62.125 Z M 11.609375 -40.84375 C 11.773438 -40.6875 11.894531 -40.160156 11.96875 -39.265625 C 12.050781 -38.378906 12.09375 -37.222656 12.09375 -35.796875 C 12.09375 -34.835938 12.078125 -33.800781 12.046875 -32.6875 C 12.015625 -31.582031 11.972656 -30.441406 11.921875 -29.265625 C 11.878906 -28.097656 11.820312 -26.914062 11.75 -25.71875 C 11.6875 -24.53125 11.640625 -23.398438 11.609375 -22.328125 C 11.515625 -20.546875 11.457031 -18.898438 11.4375 -17.390625 C 11.425781 -15.890625 11.421875 -14.441406 11.421875 -13.046875 C 11.421875 -11.203125 11.4375 -9.519531 11.46875 -8 C 11.5 -6.476562 11.515625 -5.207031 11.515625 -4.1875 C 11.515625 -3.070312 11.472656 -2.222656 11.390625 -1.640625 C 11.316406 -1.054688 11.15625 -0.734375 10.90625 -0.671875 C 10.613281 -0.609375 10.375 -0.472656 10.1875 -0.265625 C 10 -0.0546875 9.820312 0.140625 9.65625 0.328125 C 9.5 0.523438 9.316406 0.691406 9.109375 0.828125 C 8.910156 0.972656 8.664062 1.015625 8.375 0.953125 C 8.21875 0.921875 7.945312 0.773438 7.5625 0.515625 C 7.1875 0.265625 6.785156 -0.0390625 6.359375 -0.40625 C 5.929688 -0.769531 5.523438 -1.1875 5.140625 -1.65625 C 4.753906 -2.132812 4.5 -2.628906 4.375 -3.140625 C 4.3125 -3.390625 4.253906 -3.894531 4.203125 -4.65625 C 4.160156 -5.425781 4.125 -6.347656 4.09375 -7.421875 C 4.0625 -8.503906 4.03125 -9.703125 4 -11.015625 C 3.96875 -12.335938 3.941406 -13.671875 3.921875 -15.015625 C 3.910156 -16.367188 3.90625 -17.691406 3.90625 -18.984375 C 3.90625 -20.285156 3.90625 -21.460938 3.90625 -22.515625 C 3.90625 -24.128906 3.957031 -25.773438 4.0625 -27.453125 C 4.175781 -29.140625 4.304688 -30.710938 4.453125 -32.171875 C 4.597656 -33.628906 4.738281 -34.90625 4.875 -36 C 5.019531 -37.101562 5.125 -37.875 5.1875 -38.3125 C 5.3125 -39.070312 5.445312 -39.664062 5.59375 -40.09375 C 5.738281 -40.53125 5.894531 -40.84375 6.0625 -41.03125 C 6.238281 -41.21875 6.414062 -41.332031 6.59375 -41.375 C 6.769531 -41.425781 6.953125 -41.46875 7.140625 -41.5 C 7.523438 -41.570312 7.960938 -41.585938 8.453125 -41.546875 C 8.941406 -41.515625 9.40625 -41.46875 9.84375 -41.40625 C 10.289062 -41.34375 10.679688 -41.253906 11.015625 -41.140625 C 11.347656 -41.035156 11.546875 -40.9375 11.609375 -40.84375 Z M 11.609375 -40.84375 "/></g></g></g><g fill="#fffbfc" fill-opacity="1"><g transform="translate(169.669818, 186.506865)"><g><path d="M 32.84375 -37.40625 C 32.9375 -37.21875 32.988281 -37.03125 33 -36.84375 C 33.019531 -36.65625 33.03125 -36.429688 33.03125 -36.171875 C 33.03125 -35.160156 32.5 -34.097656 31.4375 -32.984375 C 30.375 -31.878906 28.703125 -30.863281 26.421875 -29.9375 C 25.941406 -29.75 25.507812 -29.65625 25.125 -29.65625 C 24.65625 -29.65625 24.253906 -29.789062 23.921875 -30.0625 C 23.585938 -30.332031 23.421875 -30.609375 23.421875 -30.890625 C 23.421875 -31.078125 23.539062 -31.296875 23.78125 -31.546875 C 24.019531 -31.804688 24.269531 -32.0625 24.53125 -32.3125 C 24.800781 -32.570312 25.054688 -32.8125 25.296875 -33.03125 C 25.535156 -33.257812 25.65625 -33.4375 25.65625 -33.5625 C 25.65625 -33.8125 25.445312 -33.9375 25.03125 -33.9375 C 24.394531 -33.9375 23.585938 -33.753906 22.609375 -33.390625 C 21.628906 -33.023438 20.585938 -32.546875 19.484375 -31.953125 C 18.390625 -31.367188 17.28125 -30.734375 16.15625 -30.046875 C 15.03125 -29.367188 14.023438 -28.703125 13.140625 -28.046875 C 12.253906 -27.398438 11.53125 -26.820312 10.96875 -26.3125 C 10.414062 -25.8125 10.140625 -25.453125 10.140625 -25.234375 C 10.140625 -25.097656 10.265625 -25.03125 10.515625 -25.03125 L 11.90625 -25.03125 C 12.757812 -25.03125 13.859375 -24.984375 15.203125 -24.890625 C 16.554688 -24.796875 17.976562 -24.613281 19.46875 -24.34375 C 20.957031 -24.070312 22.457031 -23.691406 23.96875 -23.203125 C 25.476562 -22.710938 26.828125 -22.050781 28.015625 -21.21875 C 29.203125 -20.394531 30.175781 -19.394531 30.9375 -18.21875 C 31.695312 -17.050781 32.078125 -15.660156 32.078125 -14.046875 C 32.078125 -13.210938 31.941406 -12.328125 31.671875 -11.390625 C 31.398438 -10.460938 30.921875 -9.515625 30.234375 -8.546875 C 29.554688 -7.578125 28.628906 -6.59375 27.453125 -5.59375 C 26.285156 -4.59375 24.796875 -3.601562 22.984375 -2.625 C 20.253906 -1.15625 17.707031 -0.0703125 15.34375 0.625 C 12.988281 1.320312 10.859375 1.671875 8.953125 1.671875 C 6.472656 1.671875 4.519531 1.113281 3.09375 0 C 1.664062 -1.113281 0.953125 -2.703125 0.953125 -4.765625 C 0.953125 -6.285156 1.242188 -7.582031 1.828125 -8.65625 C 2.421875 -9.738281 3.113281 -10.632812 3.90625 -11.34375 C 4.695312 -12.0625 5.488281 -12.585938 6.28125 -12.921875 C 7.070312 -13.253906 7.675781 -13.4375 8.09375 -13.46875 C 8.28125 -13.46875 8.445312 -13.484375 8.59375 -13.515625 C 8.738281 -13.546875 8.890625 -13.5625 9.046875 -13.5625 C 9.328125 -13.5625 9.46875 -13.390625 9.46875 -13.046875 L 9.46875 -12.5625 C 9.46875 -12.375 9.515625 -12.207031 9.609375 -12.0625 C 9.710938 -11.925781 9.765625 -11.773438 9.765625 -11.609375 C 9.765625 -11.421875 9.53125 -11.132812 9.0625 -10.75 C 8.601562 -10.375 8.101562 -9.929688 7.5625 -9.421875 C 7.03125 -8.910156 6.53125 -8.367188 6.0625 -7.796875 C 5.601562 -7.234375 5.375 -6.679688 5.375 -6.140625 C 5.375 -5.503906 5.882812 -5.1875 6.90625 -5.1875 C 8.175781 -5.1875 9.515625 -5.429688 10.921875 -5.921875 C 12.335938 -6.410156 13.71875 -7.035156 15.0625 -7.796875 C 16.414062 -8.566406 17.703125 -9.4375 18.921875 -10.40625 C 20.140625 -11.375 21.207031 -12.316406 22.125 -13.234375 C 23.050781 -14.148438 23.78125 -15.015625 24.3125 -15.828125 C 24.851562 -16.640625 25.125 -17.28125 25.125 -17.75 C 25.125 -18.320312 24.800781 -18.78125 24.15625 -19.125 C 23.507812 -19.476562 22.617188 -19.765625 21.484375 -19.984375 C 20.359375 -20.210938 19.050781 -20.363281 17.5625 -20.4375 C 16.070312 -20.519531 14.503906 -20.5625 12.859375 -20.5625 C 11.140625 -20.5625 9.71875 -20.484375 8.59375 -20.328125 C 7.46875 -20.171875 6.773438 -20.09375 6.515625 -20.09375 C 6.328125 -20.09375 6.019531 -20.113281 5.59375 -20.15625 C 5.164062 -20.207031 4.738281 -20.347656 4.3125 -20.578125 C 3.882812 -20.816406 3.507812 -21.175781 3.1875 -21.65625 C 2.875 -22.132812 2.71875 -22.816406 2.71875 -23.703125 C 2.71875 -24.304688 2.847656 -24.988281 3.109375 -25.75 C 3.378906 -26.507812 3.851562 -27.328125 4.53125 -28.203125 C 5.21875 -29.078125 6.15625 -30.019531 7.34375 -31.03125 C 8.539062 -32.050781 10.0625 -33.113281 11.90625 -34.21875 C 13.832031 -35.394531 15.644531 -36.351562 17.34375 -37.09375 C 19.039062 -37.84375 20.578125 -38.421875 21.953125 -38.828125 C 23.335938 -39.242188 24.550781 -39.523438 25.59375 -39.671875 C 26.644531 -39.816406 27.472656 -39.890625 28.078125 -39.890625 C 29.503906 -39.890625 30.566406 -39.707031 31.265625 -39.34375 C 31.960938 -38.976562 32.488281 -38.332031 32.84375 -37.40625 Z M 32.84375 -37.40625 "/></g></g></g><g fill="#fffbfc" fill-opacity="1"><g transform="translate(205.461943, 186.506865)"><g><path d="M 36.171875 -14.609375 C 36.171875 -12.804688 35.773438 -10.96875 34.984375 -9.09375 C 34.191406 -7.21875 33.070312 -5.507812 31.625 -3.96875 C 30.1875 -2.4375 28.4375 -1.175781 26.375 -0.1875 C 24.3125 0.789062 21.992188 1.28125 19.421875 1.28125 C 17.328125 1.28125 15.207031 0.835938 13.0625 -0.046875 C 10.925781 -0.929688 9 -2.207031 7.28125 -3.875 C 5.570312 -5.539062 4.175781 -7.5625 3.09375 -9.9375 C 2.007812 -12.320312 1.46875 -14.988281 1.46875 -17.9375 C 1.46875 -20.863281 2.03125 -23.632812 3.15625 -26.25 C 4.289062 -28.863281 5.773438 -31.144531 7.609375 -33.09375 C 9.453125 -35.050781 11.554688 -36.597656 13.921875 -37.734375 C 16.285156 -38.878906 18.722656 -39.453125 21.234375 -39.453125 C 23.546875 -39.453125 25.503906 -39.144531 27.109375 -38.53125 C 28.710938 -37.914062 30.003906 -37.1875 30.984375 -36.34375 C 31.972656 -35.5 32.679688 -34.632812 33.109375 -33.75 C 33.535156 -32.863281 33.75 -32.148438 33.75 -31.609375 C 33.75 -30.398438 33.492188 -29.414062 32.984375 -28.65625 C 32.472656 -27.894531 31.894531 -27.320312 31.25 -26.9375 C 30.601562 -26.5625 29.984375 -26.347656 29.390625 -26.296875 C 28.804688 -26.253906 28.4375 -26.359375 28.28125 -26.609375 C 28.144531 -26.734375 28.003906 -26.796875 27.859375 -26.796875 C 27.722656 -26.796875 27.570312 -26.765625 27.40625 -26.703125 C 27.25 -26.640625 27.097656 -26.578125 26.953125 -26.515625 C 26.816406 -26.453125 26.703125 -26.453125 26.609375 -26.515625 C 26.453125 -26.578125 26.441406 -26.71875 26.578125 -26.9375 C 26.722656 -27.164062 26.796875 -27.359375 26.796875 -27.515625 C 26.796875 -27.796875 26.785156 -28.117188 26.765625 -28.484375 C 26.753906 -28.847656 26.828125 -29.238281 26.984375 -29.65625 C 27.273438 -30.226562 27.394531 -30.851562 27.34375 -31.53125 C 27.300781 -32.21875 27.0625 -32.859375 26.625 -33.453125 C 26.195312 -34.054688 25.53125 -34.566406 24.625 -34.984375 C 23.726562 -35.398438 22.566406 -35.609375 21.140625 -35.609375 C 20.117188 -35.609375 18.910156 -35.273438 17.515625 -34.609375 C 16.117188 -33.941406 14.789062 -32.898438 13.53125 -31.484375 C 12.28125 -30.078125 11.21875 -28.285156 10.34375 -26.109375 C 9.476562 -23.929688 9.046875 -21.335938 9.046875 -18.328125 C 9.046875 -17.023438 9.210938 -15.660156 9.546875 -14.234375 C 9.878906 -12.804688 10.472656 -11.488281 11.328125 -10.28125 C 12.179688 -9.070312 13.335938 -8.078125 14.796875 -7.296875 C 16.265625 -6.523438 18.125 -6.140625 20.375 -6.140625 C 21.863281 -6.140625 23.234375 -6.34375 24.484375 -6.75 C 25.742188 -7.164062 26.878906 -7.691406 27.890625 -8.328125 C 28.910156 -8.960938 29.816406 -9.660156 30.609375 -10.421875 C 31.398438 -11.179688 32.066406 -11.898438 32.609375 -12.578125 C 33.148438 -13.265625 33.566406 -13.863281 33.859375 -14.375 C 34.160156 -14.882812 34.347656 -15.203125 34.421875 -15.328125 C 34.546875 -15.484375 34.703125 -15.597656 34.890625 -15.671875 C 35.078125 -15.753906 35.265625 -15.769531 35.453125 -15.71875 C 35.648438 -15.675781 35.816406 -15.566406 35.953125 -15.390625 C 36.097656 -15.222656 36.171875 -14.960938 36.171875 -14.609375 Z M 36.171875 -14.609375 "/></g></g></g><g fill="#fffbfc" fill-opacity="1"><g transform="translate(244.062233, 186.506865)"><g><path d="M 36.359375 -20.09375 C 36.359375 -16.757812 35.875 -13.757812 34.90625 -11.09375 C 33.945312 -8.425781 32.632812 -6.15625 30.96875 -4.28125 C 29.300781 -2.40625 27.367188 -0.960938 25.171875 0.046875 C 22.984375 1.066406 20.671875 1.578125 18.234375 1.578125 C 17.210938 1.578125 16.097656 1.457031 14.890625 1.21875 C 13.691406 0.976562 12.488281 0.585938 11.28125 0.046875 C 10.070312 -0.492188 8.894531 -1.207031 7.75 -2.09375 C 6.613281 -2.976562 5.597656 -4.070312 4.703125 -5.375 C 3.816406 -6.675781 3.113281 -8.195312 2.59375 -9.9375 C 2.070312 -11.6875 1.828125 -13.707031 1.859375 -16 C 1.859375 -18.59375 2.175781 -20.960938 2.8125 -23.109375 C 3.445312 -25.253906 4.265625 -27.175781 5.265625 -28.875 C 6.265625 -30.570312 7.394531 -32.035156 8.65625 -33.265625 C 9.925781 -34.503906 11.195312 -35.546875 12.46875 -36.390625 C 13.738281 -37.234375 14.957031 -37.859375 16.125 -38.265625 C 17.300781 -38.679688 18.320312 -38.921875 19.1875 -38.984375 C 19.625 -39.015625 19.816406 -38.96875 19.765625 -38.84375 C 19.722656 -38.71875 19.609375 -38.570312 19.421875 -38.40625 C 19.234375 -38.25 19.066406 -38.09375 18.921875 -37.9375 C 18.773438 -37.78125 18.832031 -37.6875 19.09375 -37.65625 C 19.3125 -37.59375 19.488281 -37.523438 19.625 -37.453125 C 19.769531 -37.390625 19.925781 -37.3125 20.09375 -37.21875 L 20.46875 -37.65625 C 20.6875 -37.8125 20.898438 -37.890625 21.109375 -37.890625 C 21.316406 -37.890625 21.5 -37.863281 21.65625 -37.8125 C 21.8125 -37.769531 21.9375 -37.75 22.03125 -37.75 C 22.132812 -37.75 22.203125 -37.84375 22.234375 -38.03125 C 22.296875 -38.382812 22.410156 -38.582031 22.578125 -38.625 C 22.753906 -38.675781 23.160156 -38.703125 23.796875 -38.703125 C 24.179688 -38.703125 24.757812 -38.585938 25.53125 -38.359375 C 26.3125 -38.140625 27.171875 -37.757812 28.109375 -37.21875 C 29.046875 -36.675781 30 -35.953125 30.96875 -35.046875 C 31.9375 -34.148438 32.820312 -33.007812 33.625 -31.625 C 34.4375 -30.25 35.09375 -28.609375 35.59375 -26.703125 C 36.101562 -24.796875 36.359375 -22.59375 36.359375 -20.09375 Z M 19.1875 -34.03125 C 18.070312 -33.363281 16.972656 -32.457031 15.890625 -31.3125 C 14.816406 -30.175781 13.84375 -28.859375 12.96875 -27.359375 C 12.09375 -25.867188 11.382812 -24.203125 10.84375 -22.359375 C 10.3125 -20.523438 10.046875 -18.59375 10.046875 -16.5625 C 10.046875 -14.375 10.242188 -12.390625 10.640625 -10.609375 C 11.035156 -8.835938 11.613281 -7.320312 12.375 -6.0625 C 13.132812 -4.8125 14.0625 -3.84375 15.15625 -3.15625 C 16.25 -2.476562 17.492188 -2.140625 18.890625 -2.140625 C 20.128906 -2.140625 21.359375 -2.488281 22.578125 -3.1875 C 23.804688 -3.882812 24.894531 -4.929688 25.84375 -6.328125 C 26.800781 -7.722656 27.570312 -9.453125 28.15625 -11.515625 C 28.738281 -13.578125 29.03125 -15.972656 29.03125 -18.703125 C 29.03125 -21.460938 28.664062 -23.78125 27.9375 -25.65625 C 27.207031 -27.53125 26.390625 -29.046875 25.484375 -30.203125 C 24.585938 -31.359375 23.722656 -32.179688 22.890625 -32.671875 C 22.066406 -33.171875 21.5625 -33.421875 21.375 -33.421875 C 20.925781 -33.421875 20.582031 -33.421875 20.34375 -33.421875 C 20.101562 -33.421875 19.71875 -33.625 19.1875 -34.03125 Z M 19.1875 -34.03125 "/></g></g></g><g fill="#fffbfc" fill-opacity="1"><g transform="translate(283.947606, 186.506865)"><g><path d="M 12.75 -63.546875 C 12.75 -63.097656 12.71875 -62.222656 12.65625 -60.921875 C 12.59375 -59.617188 12.515625 -58.054688 12.421875 -56.234375 C 12.328125 -54.410156 12.222656 -52.410156 12.109375 -50.234375 C 12.003906 -48.066406 11.882812 -45.894531 11.75 -43.71875 C 11.625 -41.539062 11.515625 -39.4375 11.421875 -37.40625 C 11.328125 -35.375 11.265625 -33.597656 11.234375 -32.078125 C 11.171875 -31.160156 11.128906 -30.144531 11.109375 -29.03125 C 11.097656 -27.925781 11.09375 -26.738281 11.09375 -25.46875 C 11.09375 -23.78125 11.097656 -22.023438 11.109375 -20.203125 C 11.128906 -18.378906 11.15625 -16.578125 11.1875 -14.796875 C 11.21875 -13.023438 11.253906 -11.320312 11.296875 -9.6875 C 11.347656 -8.050781 11.390625 -6.582031 11.421875 -5.28125 C 11.453125 -3.976562 11.472656 -2.890625 11.484375 -2.015625 C 11.503906 -1.148438 11.515625 -0.601562 11.515625 -0.375 C 11.515625 0.0625 11.441406 0.398438 11.296875 0.640625 C 11.160156 0.878906 10.988281 1.035156 10.78125 1.109375 C 10.570312 1.191406 10.359375 1.207031 10.140625 1.15625 C 9.921875 1.113281 9.726562 1.046875 9.5625 0.953125 C 9.375 0.859375 9.222656 0.742188 9.109375 0.609375 C 9.003906 0.484375 8.921875 0.390625 8.859375 0.328125 C 8.796875 0.265625 8.738281 0.25 8.6875 0.28125 C 8.632812 0.3125 8.59375 0.441406 8.5625 0.671875 C 8.46875 1.492188 8.285156 2.109375 8.015625 2.515625 C 7.742188 2.929688 7.457031 3.207031 7.15625 3.34375 C 6.863281 3.488281 6.585938 3.53125 6.328125 3.46875 C 6.078125 3.40625 5.921875 3.296875 5.859375 3.140625 C 5.796875 2.984375 5.691406 2.890625 5.546875 2.859375 C 5.398438 2.828125 5.25 2.800781 5.09375 2.78125 C 4.9375 2.769531 4.785156 2.722656 4.640625 2.640625 C 4.492188 2.554688 4.40625 2.390625 4.375 2.140625 C 4.125 1.066406 3.96875 -0.300781 3.90625 -1.96875 C 3.84375 -3.632812 3.8125 -5.515625 3.8125 -7.609375 C 3.8125 -9.421875 3.828125 -11.375 3.859375 -13.46875 C 3.890625 -15.5625 3.90625 -17.703125 3.90625 -19.890625 C 3.90625 -21.160156 3.90625 -22.421875 3.90625 -23.671875 C 3.90625 -24.929688 3.875 -26.210938 3.8125 -27.515625 L 3.8125 -30.515625 C 3.8125 -33.078125 3.875 -35.648438 4 -38.234375 C 4.125 -40.828125 4.28125 -43.3125 4.46875 -45.6875 C 4.664062 -48.070312 4.875 -50.3125 5.09375 -52.40625 C 5.3125 -54.5 5.5 -56.351562 5.65625 -57.96875 C 5.820312 -59.59375 5.953125 -60.910156 6.046875 -61.921875 C 6.140625 -62.941406 6.171875 -63.578125 6.140625 -63.828125 C 6.109375 -64.054688 6.128906 -64.21875 6.203125 -64.3125 C 6.285156 -64.40625 6.398438 -64.457031 6.546875 -64.46875 C 6.691406 -64.488281 6.84375 -64.503906 7 -64.515625 C 7.15625 -64.535156 7.296875 -64.578125 7.421875 -64.640625 C 7.648438 -64.765625 7.832031 -64.800781 7.96875 -64.75 C 8.113281 -64.707031 8.234375 -64.640625 8.328125 -64.546875 C 8.421875 -64.453125 8.503906 -64.347656 8.578125 -64.234375 C 8.660156 -64.117188 8.785156 -64.0625 8.953125 -64.0625 C 9.140625 -64.09375 9.285156 -64.148438 9.390625 -64.234375 C 9.503906 -64.316406 9.601562 -64.394531 9.6875 -64.46875 C 9.769531 -64.550781 9.847656 -64.625 9.921875 -64.6875 C 10.003906 -64.75 10.109375 -64.765625 10.234375 -64.734375 C 10.484375 -64.671875 10.726562 -64.628906 10.96875 -64.609375 C 11.207031 -64.597656 11.328125 -64.640625 11.328125 -64.734375 C 11.390625 -64.984375 11.484375 -65.097656 11.609375 -65.078125 C 11.742188 -65.066406 11.90625 -64.984375 12.09375 -64.828125 C 12.28125 -64.671875 12.4375 -64.503906 12.5625 -64.328125 C 12.6875 -64.148438 12.75 -63.890625 12.75 -63.546875 Z M 12.75 -63.546875 "/></g></g></g><g fill="#fffbfc" fill-opacity="1"><g transform="translate(300.415791, 186.506865)"><g><path d="M 31.890625 -27.890625 C 31.921875 -26.785156 31.820312 -25.429688 31.59375 -23.828125 C 31.375 -22.222656 31.125 -20.507812 30.84375 -18.6875 C 30.5625 -16.863281 30.289062 -15 30.03125 -13.09375 C 29.78125 -11.1875 29.65625 -9.394531 29.65625 -7.71875 C 29.65625 -6.601562 29.734375 -5.546875 29.890625 -4.546875 C 30.046875 -3.546875 30.316406 -2.679688 30.703125 -1.953125 C 30.921875 -1.535156 31.035156 -1.164062 31.046875 -0.84375 C 31.066406 -0.53125 31.046875 -0.253906 30.984375 -0.015625 C 30.921875 0.210938 30.859375 0.414062 30.796875 0.59375 C 30.734375 0.769531 30.734375 0.9375 30.796875 1.09375 C 30.859375 1.25 30.84375 1.429688 30.75 1.640625 C 30.65625 1.847656 30.507812 2.035156 30.3125 2.203125 C 30.125 2.378906 29.910156 2.507812 29.671875 2.59375 C 29.441406 2.675781 29.226562 2.648438 29.03125 2.515625 C 28.6875 2.296875 28.410156 2.171875 28.203125 2.140625 C 27.992188 2.109375 27.816406 2.113281 27.671875 2.15625 C 27.535156 2.207031 27.410156 2.265625 27.296875 2.328125 C 27.179688 2.390625 27.046875 2.390625 26.890625 2.328125 C 26.347656 2.046875 25.757812 1.710938 25.125 1.328125 C 24.5 0.953125 24.085938 0.539062 23.890625 0.09375 C 23.765625 -0.09375 23.644531 -0.40625 23.53125 -0.84375 C 23.425781 -1.289062 23.332031 -1.816406 23.25 -2.421875 C 23.175781 -3.023438 23.101562 -3.675781 23.03125 -4.375 C 22.96875 -5.070312 22.921875 -5.753906 22.890625 -6.421875 C 21.847656 -4.453125 20.726562 -2.816406 19.53125 -1.515625 C 18.34375 -0.222656 17.15625 0.8125 15.96875 1.59375 C 14.78125 2.375 13.601562 2.921875 12.4375 3.234375 C 11.28125 3.554688 10.226562 3.71875 9.28125 3.71875 C 8.300781 3.71875 7.4375 3.585938 6.6875 3.328125 C 5.9375 3.078125 5.359375 2.773438 4.953125 2.421875 C 3.398438 0.867188 2.296875 -0.390625 1.640625 -1.359375 C 0.992188 -2.328125 0.703125 -3.113281 0.765625 -3.71875 C 0.921875 -5.75 1.410156 -7.617188 2.234375 -9.328125 C 3.054688 -11.046875 4.085938 -12.625 5.328125 -14.0625 C 6.566406 -15.507812 7.957031 -16.8125 9.5 -17.96875 C 11.039062 -19.125 12.609375 -20.15625 14.203125 -21.0625 C 15.804688 -21.96875 17.382812 -22.726562 18.9375 -23.34375 C 20.5 -23.96875 21.914062 -24.46875 23.1875 -24.84375 C 23.113281 -26.5625 23.035156 -28.0625 22.953125 -29.34375 C 22.878906 -30.625 22.765625 -31.566406 22.609375 -32.171875 C 22.128906 -34.140625 21.394531 -35.609375 20.40625 -36.578125 C 19.425781 -37.546875 18.238281 -38.03125 16.84375 -38.03125 C 15.957031 -38.03125 15.0625 -37.695312 14.15625 -37.03125 C 13.25 -36.363281 12.429688 -35.457031 11.703125 -34.3125 C 10.972656 -33.175781 10.378906 -31.859375 9.921875 -30.359375 C 9.460938 -28.867188 9.21875 -27.300781 9.1875 -25.65625 C 9.1875 -25.238281 9.203125 -24.835938 9.234375 -24.453125 C 9.265625 -24.078125 9.3125 -23.6875 9.375 -23.28125 C 9.40625 -23.050781 9.332031 -22.890625 9.15625 -22.796875 C 8.988281 -22.703125 8.773438 -22.628906 8.515625 -22.578125 C 8.265625 -22.535156 7.992188 -22.5 7.703125 -22.46875 C 7.421875 -22.4375 7.1875 -22.390625 7 -22.328125 C 6.84375 -22.265625 6.710938 -22.222656 6.609375 -22.203125 C 6.515625 -22.191406 6.421875 -22.207031 6.328125 -22.25 C 6.234375 -22.300781 6.113281 -22.390625 5.96875 -22.515625 C 5.832031 -22.640625 5.632812 -22.796875 5.375 -22.984375 C 5.125 -23.179688 4.863281 -23.34375 4.59375 -23.46875 C 4.320312 -23.59375 4.082031 -23.703125 3.875 -23.796875 C 3.664062 -23.890625 3.488281 -23.976562 3.34375 -24.0625 C 3.207031 -24.144531 3.140625 -24.25 3.140625 -24.375 C 3.140625 -26.34375 3.578125 -28.375 4.453125 -30.46875 C 5.328125 -32.5625 6.5 -34.472656 7.96875 -36.203125 C 9.445312 -37.929688 11.160156 -39.347656 13.109375 -40.453125 C 15.066406 -41.566406 17.140625 -42.125 19.328125 -42.125 C 21.097656 -42.125 22.632812 -41.851562 23.9375 -41.3125 C 25.238281 -40.769531 26.347656 -40.070312 27.265625 -39.21875 C 28.191406 -38.363281 28.945312 -37.410156 29.53125 -36.359375 C 30.125 -35.316406 30.585938 -34.265625 30.921875 -33.203125 C 31.253906 -32.140625 31.488281 -31.140625 31.625 -30.203125 C 31.769531 -29.265625 31.859375 -28.492188 31.890625 -27.890625 Z M 23.28125 -19.421875 C 22.320312 -19.066406 21.269531 -18.601562 20.125 -18.03125 C 18.988281 -17.46875 17.832031 -16.796875 16.65625 -16.015625 C 15.488281 -15.234375 14.316406 -14.335938 13.140625 -13.328125 C 11.960938 -12.316406 10.867188 -11.191406 9.859375 -9.953125 C 8.648438 -8.523438 7.773438 -7.253906 7.234375 -6.140625 C 6.691406 -5.023438 6.359375 -4.078125 6.234375 -3.296875 C 6.109375 -2.523438 6.140625 -1.914062 6.328125 -1.46875 C 6.515625 -1.03125 6.738281 -0.765625 7 -0.671875 C 7.976562 -0.285156 9 -0.242188 10.0625 -0.546875 C 11.125 -0.847656 12.1875 -1.382812 13.25 -2.15625 C 14.3125 -2.9375 15.34375 -3.875 16.34375 -4.96875 C 17.34375 -6.0625 18.285156 -7.1875 19.171875 -8.34375 C 20.066406 -9.507812 20.863281 -10.65625 21.5625 -11.78125 C 22.257812 -12.90625 22.832031 -13.878906 23.28125 -14.703125 Z M 23.28125 -19.421875 "/></g></g></g><g fill="#ff914d" fill-opacity="1"><g transform="translate(147.299795, 218.7492)"><g><path d="M 7.65625 -8.71875 C 7.675781 -8.675781 7.6875 -8.632812 7.6875 -8.59375 C 7.695312 -8.550781 7.703125 -8.5 7.703125 -8.4375 C 7.703125 -8.195312 7.578125 -7.945312 7.328125 -7.6875 C 7.078125 -7.425781 6.6875 -7.191406 6.15625 -6.984375 C 6.050781 -6.941406 5.953125 -6.921875 5.859375 -6.921875 C 5.742188 -6.921875 5.648438 -6.953125 5.578125 -7.015625 C 5.503906 -7.078125 5.46875 -7.140625 5.46875 -7.203125 C 5.46875 -7.242188 5.492188 -7.296875 5.546875 -7.359375 C 5.597656 -7.421875 5.65625 -7.476562 5.71875 -7.53125 C 5.78125 -7.59375 5.835938 -7.648438 5.890625 -7.703125 C 5.953125 -7.753906 5.984375 -7.796875 5.984375 -7.828125 C 5.984375 -7.890625 5.9375 -7.921875 5.84375 -7.921875 C 5.6875 -7.921875 5.492188 -7.875 5.265625 -7.78125 C 5.035156 -7.695312 4.789062 -7.585938 4.53125 -7.453125 C 4.28125 -7.316406 4.023438 -7.164062 3.765625 -7 C 3.503906 -6.84375 3.269531 -6.6875 3.0625 -6.53125 C 2.851562 -6.382812 2.679688 -6.253906 2.546875 -6.140625 C 2.421875 -6.023438 2.359375 -5.941406 2.359375 -5.890625 C 2.359375 -5.859375 2.390625 -5.84375 2.453125 -5.84375 L 2.78125 -5.84375 C 2.976562 -5.84375 3.234375 -5.828125 3.546875 -5.796875 C 3.859375 -5.773438 4.1875 -5.734375 4.53125 -5.671875 C 4.882812 -5.609375 5.234375 -5.519531 5.578125 -5.40625 C 5.929688 -5.289062 6.25 -5.132812 6.53125 -4.9375 C 6.8125 -4.75 7.039062 -4.519531 7.21875 -4.25 C 7.394531 -3.976562 7.484375 -3.65625 7.484375 -3.28125 C 7.484375 -3.082031 7.453125 -2.875 7.390625 -2.65625 C 7.328125 -2.4375 7.210938 -2.210938 7.046875 -1.984375 C 6.890625 -1.765625 6.675781 -1.535156 6.40625 -1.296875 C 6.132812 -1.066406 5.785156 -0.835938 5.359375 -0.609375 C 4.722656 -0.265625 4.128906 -0.015625 3.578125 0.140625 C 3.023438 0.304688 2.53125 0.390625 2.09375 0.390625 C 1.507812 0.390625 1.050781 0.257812 0.71875 0 C 0.382812 -0.257812 0.21875 -0.628906 0.21875 -1.109375 C 0.21875 -1.460938 0.285156 -1.765625 0.421875 -2.015625 C 0.554688 -2.265625 0.71875 -2.472656 0.90625 -2.640625 C 1.09375 -2.804688 1.28125 -2.925781 1.46875 -3 C 1.65625 -3.082031 1.796875 -3.128906 1.890625 -3.140625 C 1.929688 -3.140625 1.96875 -3.140625 2 -3.140625 C 2.03125 -3.148438 2.066406 -3.15625 2.109375 -3.15625 C 2.171875 -3.15625 2.203125 -3.117188 2.203125 -3.046875 L 2.203125 -2.9375 C 2.203125 -2.882812 2.210938 -2.84375 2.234375 -2.8125 C 2.265625 -2.78125 2.28125 -2.742188 2.28125 -2.703125 C 2.28125 -2.660156 2.222656 -2.59375 2.109375 -2.5 C 2.003906 -2.414062 1.890625 -2.3125 1.765625 -2.1875 C 1.640625 -2.070312 1.519531 -1.945312 1.40625 -1.8125 C 1.300781 -1.6875 1.25 -1.5625 1.25 -1.4375 C 1.25 -1.28125 1.367188 -1.203125 1.609375 -1.203125 C 1.898438 -1.203125 2.210938 -1.257812 2.546875 -1.375 C 2.878906 -1.488281 3.203125 -1.632812 3.515625 -1.8125 C 3.828125 -2 4.125 -2.203125 4.40625 -2.421875 C 4.695312 -2.648438 4.945312 -2.867188 5.15625 -3.078125 C 5.375 -3.296875 5.546875 -3.5 5.671875 -3.6875 C 5.796875 -3.875 5.859375 -4.023438 5.859375 -4.140625 C 5.859375 -4.273438 5.78125 -4.378906 5.625 -4.453125 C 5.476562 -4.535156 5.273438 -4.601562 5.015625 -4.65625 C 4.753906 -4.707031 4.445312 -4.742188 4.09375 -4.765625 C 3.75 -4.785156 3.382812 -4.796875 3 -4.796875 C 2.59375 -4.796875 2.257812 -4.773438 2 -4.734375 C 1.738281 -4.703125 1.578125 -4.6875 1.515625 -4.6875 C 1.472656 -4.6875 1.398438 -4.691406 1.296875 -4.703125 C 1.203125 -4.710938 1.101562 -4.742188 1 -4.796875 C 0.90625 -4.859375 0.816406 -4.941406 0.734375 -5.046875 C 0.660156 -5.160156 0.625 -5.320312 0.625 -5.53125 C 0.625 -5.664062 0.65625 -5.820312 0.71875 -6 C 0.789062 -6.175781 0.90625 -6.363281 1.0625 -6.5625 C 1.21875 -6.769531 1.429688 -6.992188 1.703125 -7.234375 C 1.984375 -7.472656 2.34375 -7.722656 2.78125 -7.984375 C 3.226562 -8.253906 3.648438 -8.472656 4.046875 -8.640625 C 4.441406 -8.816406 4.800781 -8.953125 5.125 -9.046875 C 5.445312 -9.148438 5.726562 -9.21875 5.96875 -9.25 C 6.21875 -9.28125 6.410156 -9.296875 6.546875 -9.296875 C 6.878906 -9.296875 7.125 -9.253906 7.28125 -9.171875 C 7.445312 -9.085938 7.570312 -8.9375 7.65625 -8.71875 Z M 7.65625 -8.71875 "/></g></g></g><g fill="#ff914d" fill-opacity="1"><g transform="translate(160.237537, 218.7492)"><g><path d="M 3.203125 -9.328125 C 3.191406 -9.273438 3.179688 -9.171875 3.171875 -9.015625 C 3.160156 -8.859375 3.148438 -8.664062 3.140625 -8.4375 C 3.460938 -8.519531 3.789062 -8.585938 4.125 -8.640625 C 4.457031 -8.691406 4.796875 -8.71875 5.140625 -8.71875 C 5.523438 -8.71875 5.910156 -8.675781 6.296875 -8.59375 C 6.679688 -8.507812 7.039062 -8.363281 7.375 -8.15625 C 7.632812 -8 7.851562 -7.75 8.03125 -7.40625 C 8.207031 -7.070312 8.359375 -6.707031 8.484375 -6.3125 C 8.546875 -6.082031 8.609375 -5.828125 8.671875 -5.546875 C 8.742188 -5.273438 8.78125 -4.972656 8.78125 -4.640625 C 8.78125 -4.359375 8.742188 -4.066406 8.671875 -3.765625 C 8.597656 -3.460938 8.472656 -3.148438 8.296875 -2.828125 C 8.117188 -2.503906 7.878906 -2.171875 7.578125 -1.828125 C 7.273438 -1.492188 6.890625 -1.160156 6.421875 -0.828125 C 5.960938 -0.492188 5.550781 -0.238281 5.1875 -0.0625 C 4.832031 0.113281 4.523438 0.234375 4.265625 0.296875 C 4.015625 0.367188 3.820312 0.398438 3.6875 0.390625 C 3.550781 0.390625 3.472656 0.378906 3.453125 0.359375 C 3.390625 0.316406 3.320312 0.234375 3.25 0.109375 C 3.1875 -0.00390625 3.09375 -0.132812 2.96875 -0.28125 C 2.9375 -0.320312 2.90625 -0.363281 2.875 -0.40625 C 2.84375 -0.457031 2.8125 -0.519531 2.78125 -0.59375 C 2.75 0.125 2.726562 0.820312 2.71875 1.5 C 2.707031 2.175781 2.703125 2.8125 2.703125 3.40625 C 2.703125 3.78125 2.707031 4.125 2.71875 4.4375 C 2.726562 4.757812 2.738281 5.050781 2.75 5.3125 C 2.75 5.414062 2.753906 5.507812 2.765625 5.59375 C 2.773438 5.6875 2.78125 5.769531 2.78125 5.84375 C 2.78125 5.925781 2.765625 5.988281 2.734375 6.03125 C 2.703125 6.070312 2.644531 6.09375 2.5625 6.09375 C 2.414062 6.09375 2.300781 6.128906 2.21875 6.203125 C 2.144531 6.273438 2.054688 6.382812 1.953125 6.53125 C 1.890625 6.59375 1.828125 6.640625 1.765625 6.671875 C 1.703125 6.710938 1.632812 6.710938 1.5625 6.671875 C 1.488281 6.640625 1.414062 6.570312 1.34375 6.46875 C 1.28125 6.363281 1.21875 6.203125 1.15625 5.984375 C 1.132812 5.890625 1.113281 5.769531 1.09375 5.625 C 1.070312 5.488281 1.054688 5.3125 1.046875 5.09375 C 1.035156 4.875 1.023438 4.609375 1.015625 4.296875 C 1.015625 3.992188 1.015625 3.628906 1.015625 3.203125 L 1.0625 -0.625 C 1.082031 -1.601562 1.117188 -2.550781 1.171875 -3.46875 C 1.234375 -4.382812 1.304688 -5.242188 1.390625 -6.046875 C 1.203125 -5.972656 1.03125 -5.914062 0.875 -5.875 C 0.71875 -5.84375 0.625 -5.835938 0.59375 -5.859375 C 0.519531 -5.890625 0.46875 -5.921875 0.4375 -5.953125 C 0.414062 -5.992188 0.398438 -6.03125 0.390625 -6.0625 C 0.390625 -6.09375 0.382812 -6.117188 0.375 -6.140625 C 0.363281 -6.171875 0.332031 -6.191406 0.28125 -6.203125 C 0.226562 -6.210938 0.179688 -6.234375 0.140625 -6.265625 C 0.109375 -6.304688 0.0859375 -6.34375 0.078125 -6.375 C 0.0664062 -6.414062 0.0664062 -6.453125 0.078125 -6.484375 C 0.0976562 -6.515625 0.140625 -6.535156 0.203125 -6.546875 C 0.253906 -6.554688 0.257812 -6.578125 0.21875 -6.609375 C 0.1875 -6.640625 0.148438 -6.679688 0.109375 -6.734375 C 0.078125 -6.796875 0.0664062 -6.867188 0.078125 -6.953125 C 0.0976562 -7.035156 0.191406 -7.132812 0.359375 -7.25 C 0.453125 -7.320312 0.609375 -7.414062 0.828125 -7.53125 C 1.054688 -7.644531 1.320312 -7.773438 1.625 -7.921875 C 1.707031 -8.492188 1.789062 -8.960938 1.875 -9.328125 C 1.96875 -9.691406 2.046875 -9.914062 2.109375 -10 C 2.148438 -10.039062 2.175781 -10.070312 2.1875 -10.09375 C 2.195312 -10.125 2.207031 -10.148438 2.21875 -10.171875 C 2.238281 -10.203125 2.257812 -10.222656 2.28125 -10.234375 C 2.300781 -10.242188 2.34375 -10.257812 2.40625 -10.28125 C 2.457031 -10.289062 2.5 -10.28125 2.53125 -10.25 C 2.570312 -10.21875 2.609375 -10.175781 2.640625 -10.125 C 2.679688 -10.082031 2.71875 -10.035156 2.75 -9.984375 C 2.789062 -9.941406 2.835938 -9.914062 2.890625 -9.90625 C 2.992188 -9.894531 3.078125 -9.84375 3.140625 -9.75 C 3.203125 -9.65625 3.222656 -9.515625 3.203125 -9.328125 Z M 5.34375 -7.15625 C 5.007812 -7.15625 4.648438 -7.117188 4.265625 -7.046875 C 3.890625 -6.972656 3.472656 -6.851562 3.015625 -6.6875 L 2.8125 -1.859375 C 2.882812 -1.835938 2.957031 -1.828125 3.03125 -1.828125 C 3.113281 -1.828125 3.207031 -1.828125 3.3125 -1.828125 C 3.5625 -1.828125 3.847656 -1.859375 4.171875 -1.921875 C 4.492188 -1.984375 4.820312 -2.082031 5.15625 -2.21875 C 5.488281 -2.363281 5.816406 -2.53125 6.140625 -2.71875 C 6.460938 -2.914062 6.75 -3.144531 7 -3.40625 C 7.257812 -3.664062 7.46875 -3.953125 7.625 -4.265625 C 7.78125 -4.585938 7.863281 -4.9375 7.875 -5.3125 C 7.875 -5.539062 7.820312 -5.765625 7.71875 -5.984375 C 7.613281 -6.203125 7.453125 -6.398438 7.234375 -6.578125 C 7.023438 -6.753906 6.757812 -6.894531 6.4375 -7 C 6.125 -7.101562 5.757812 -7.15625 5.34375 -7.15625 Z M 5.34375 -7.15625 "/></g></g></g><g fill="#ff914d" fill-opacity="1"><g transform="translate(174.351744, 218.7492)"><g><path d="M 3.625 -14.484375 C 3.625 -14.335938 3.613281 -14.171875 3.59375 -13.984375 C 3.582031 -13.804688 3.554688 -13.628906 3.515625 -13.453125 C 3.472656 -13.285156 3.414062 -13.132812 3.34375 -13 C 3.269531 -12.875 3.1875 -12.785156 3.09375 -12.734375 C 2.851562 -12.609375 2.640625 -12.546875 2.453125 -12.546875 C 2.304688 -12.546875 2.175781 -12.578125 2.0625 -12.640625 C 1.957031 -12.710938 1.851562 -12.796875 1.75 -12.890625 C 1.601562 -13.003906 1.476562 -13.15625 1.375 -13.34375 C 1.28125 -13.539062 1.234375 -13.726562 1.234375 -13.90625 C 1.234375 -14.050781 1.253906 -14.222656 1.296875 -14.421875 C 1.347656 -14.628906 1.410156 -14.828125 1.484375 -15.015625 C 1.554688 -15.210938 1.632812 -15.390625 1.71875 -15.546875 C 1.8125 -15.703125 1.894531 -15.8125 1.96875 -15.875 C 2.101562 -15.976562 2.222656 -16.035156 2.328125 -16.046875 C 2.429688 -16.054688 2.519531 -16.050781 2.59375 -16.03125 C 2.75 -15.988281 2.890625 -15.941406 3.015625 -15.890625 C 3.140625 -15.835938 3.242188 -15.753906 3.328125 -15.640625 C 3.421875 -15.523438 3.488281 -15.375 3.53125 -15.1875 C 3.570312 -15 3.601562 -14.765625 3.625 -14.484375 Z M 2.703125 -9.53125 C 2.742188 -9.488281 2.769531 -9.363281 2.78125 -9.15625 C 2.800781 -8.945312 2.8125 -8.675781 2.8125 -8.34375 C 2.8125 -8.125 2.804688 -7.882812 2.796875 -7.625 C 2.796875 -7.363281 2.789062 -7.097656 2.78125 -6.828125 C 2.769531 -6.554688 2.753906 -6.28125 2.734375 -6 C 2.722656 -5.71875 2.710938 -5.453125 2.703125 -5.203125 C 2.679688 -4.785156 2.671875 -4.398438 2.671875 -4.046875 C 2.671875 -3.703125 2.671875 -3.367188 2.671875 -3.046875 C 2.671875 -2.609375 2.671875 -2.210938 2.671875 -1.859375 C 2.679688 -1.503906 2.6875 -1.210938 2.6875 -0.984375 C 2.6875 -0.722656 2.675781 -0.519531 2.65625 -0.375 C 2.632812 -0.238281 2.597656 -0.164062 2.546875 -0.15625 C 2.472656 -0.144531 2.414062 -0.113281 2.375 -0.0625 C 2.332031 -0.0078125 2.289062 0.0351562 2.25 0.078125 C 2.21875 0.117188 2.175781 0.15625 2.125 0.1875 C 2.070312 0.226562 2.015625 0.238281 1.953125 0.21875 C 1.910156 0.207031 1.84375 0.171875 1.75 0.109375 C 1.664062 0.0546875 1.570312 -0.0078125 1.46875 -0.09375 C 1.375 -0.175781 1.28125 -0.273438 1.1875 -0.390625 C 1.101562 -0.503906 1.046875 -0.617188 1.015625 -0.734375 C 1.003906 -0.796875 0.992188 -0.914062 0.984375 -1.09375 C 0.972656 -1.269531 0.960938 -1.484375 0.953125 -1.734375 C 0.941406 -1.984375 0.929688 -2.257812 0.921875 -2.5625 C 0.921875 -2.875 0.914062 -3.1875 0.90625 -3.5 C 0.90625 -3.8125 0.90625 -4.117188 0.90625 -4.421875 C 0.90625 -4.734375 0.90625 -5.007812 0.90625 -5.25 C 0.90625 -5.625 0.914062 -6.007812 0.9375 -6.40625 C 0.96875 -6.800781 1 -7.164062 1.03125 -7.5 C 1.070312 -7.84375 1.109375 -8.140625 1.140625 -8.390625 C 1.171875 -8.648438 1.191406 -8.832031 1.203125 -8.9375 C 1.234375 -9.113281 1.265625 -9.25 1.296875 -9.34375 C 1.335938 -9.445312 1.375 -9.519531 1.40625 -9.5625 C 1.445312 -9.613281 1.488281 -9.644531 1.53125 -9.65625 C 1.570312 -9.664062 1.617188 -9.675781 1.671875 -9.6875 C 1.753906 -9.695312 1.851562 -9.695312 1.96875 -9.6875 C 2.082031 -9.6875 2.191406 -9.675781 2.296875 -9.65625 C 2.398438 -9.644531 2.488281 -9.625 2.5625 -9.59375 C 2.644531 -9.570312 2.691406 -9.550781 2.703125 -9.53125 Z M 2.703125 -9.53125 "/></g></g></g><g fill="#ff914d" fill-opacity="1"><g transform="translate(182.8056, 218.7492)"><g><path d="M 7.4375 -6.5 C 7.445312 -6.238281 7.425781 -5.921875 7.375 -5.546875 C 7.320312 -5.179688 7.257812 -4.785156 7.1875 -4.359375 C 7.125 -3.929688 7.0625 -3.492188 7 -3.046875 C 6.945312 -2.609375 6.921875 -2.191406 6.921875 -1.796875 C 6.921875 -1.535156 6.9375 -1.285156 6.96875 -1.046875 C 7.007812 -0.816406 7.070312 -0.617188 7.15625 -0.453125 C 7.207031 -0.359375 7.234375 -0.273438 7.234375 -0.203125 C 7.242188 -0.128906 7.238281 -0.0625 7.21875 0 C 7.207031 0.0507812 7.191406 0.0976562 7.171875 0.140625 C 7.160156 0.179688 7.164062 0.21875 7.1875 0.25 C 7.195312 0.289062 7.191406 0.332031 7.171875 0.375 C 7.148438 0.425781 7.113281 0.472656 7.0625 0.515625 C 7.019531 0.554688 6.972656 0.582031 6.921875 0.59375 C 6.867188 0.613281 6.816406 0.613281 6.765625 0.59375 C 6.691406 0.539062 6.628906 0.507812 6.578125 0.5 C 6.523438 0.488281 6.484375 0.488281 6.453125 0.5 C 6.421875 0.507812 6.390625 0.519531 6.359375 0.53125 C 6.335938 0.550781 6.304688 0.554688 6.265625 0.546875 C 6.140625 0.472656 6.003906 0.390625 5.859375 0.296875 C 5.710938 0.210938 5.617188 0.117188 5.578125 0.015625 C 5.546875 -0.0234375 5.515625 -0.0976562 5.484375 -0.203125 C 5.460938 -0.304688 5.441406 -0.425781 5.421875 -0.5625 C 5.398438 -0.707031 5.378906 -0.859375 5.359375 -1.015625 C 5.347656 -1.179688 5.34375 -1.34375 5.34375 -1.5 C 5.09375 -1.039062 4.828125 -0.660156 4.546875 -0.359375 C 4.273438 -0.0546875 4 0.179688 3.71875 0.359375 C 3.445312 0.546875 3.175781 0.675781 2.90625 0.75 C 2.632812 0.820312 2.390625 0.859375 2.171875 0.859375 C 1.941406 0.859375 1.738281 0.828125 1.5625 0.765625 C 1.382812 0.710938 1.25 0.644531 1.15625 0.5625 C 0.789062 0.195312 0.53125 -0.09375 0.375 -0.3125 C 0.226562 -0.539062 0.160156 -0.722656 0.171875 -0.859375 C 0.210938 -1.335938 0.328125 -1.773438 0.515625 -2.171875 C 0.710938 -2.578125 0.953125 -2.945312 1.234375 -3.28125 C 1.523438 -3.613281 1.847656 -3.914062 2.203125 -4.1875 C 2.566406 -4.457031 2.9375 -4.695312 3.3125 -4.90625 C 3.6875 -5.125 4.054688 -5.300781 4.421875 -5.4375 C 4.785156 -5.582031 5.113281 -5.703125 5.40625 -5.796875 C 5.394531 -6.191406 5.378906 -6.539062 5.359375 -6.84375 C 5.335938 -7.144531 5.304688 -7.363281 5.265625 -7.5 C 5.160156 -7.957031 4.992188 -8.300781 4.765625 -8.53125 C 4.535156 -8.757812 4.253906 -8.875 3.921875 -8.875 C 3.722656 -8.875 3.515625 -8.796875 3.296875 -8.640625 C 3.085938 -8.484375 2.894531 -8.269531 2.71875 -8 C 2.550781 -7.738281 2.414062 -7.429688 2.3125 -7.078125 C 2.207031 -6.734375 2.148438 -6.367188 2.140625 -5.984375 C 2.140625 -5.890625 2.144531 -5.796875 2.15625 -5.703125 C 2.164062 -5.617188 2.175781 -5.523438 2.1875 -5.421875 C 2.195312 -5.367188 2.179688 -5.332031 2.140625 -5.3125 C 2.097656 -5.289062 2.046875 -5.273438 1.984375 -5.265625 C 1.921875 -5.253906 1.859375 -5.242188 1.796875 -5.234375 C 1.734375 -5.234375 1.675781 -5.222656 1.625 -5.203125 C 1.59375 -5.191406 1.566406 -5.179688 1.546875 -5.171875 C 1.523438 -5.171875 1.5 -5.175781 1.46875 -5.1875 C 1.445312 -5.195312 1.421875 -5.21875 1.390625 -5.25 C 1.359375 -5.28125 1.3125 -5.316406 1.25 -5.359375 C 1.195312 -5.398438 1.140625 -5.4375 1.078125 -5.46875 C 1.015625 -5.5 0.957031 -5.523438 0.90625 -5.546875 C 0.851562 -5.566406 0.8125 -5.585938 0.78125 -5.609375 C 0.75 -5.628906 0.734375 -5.65625 0.734375 -5.6875 C 0.734375 -6.144531 0.832031 -6.617188 1.03125 -7.109375 C 1.238281 -7.597656 1.515625 -8.039062 1.859375 -8.4375 C 2.203125 -8.84375 2.597656 -9.175781 3.046875 -9.4375 C 3.503906 -9.695312 3.988281 -9.828125 4.5 -9.828125 C 4.914062 -9.828125 5.273438 -9.765625 5.578125 -9.640625 C 5.878906 -9.515625 6.140625 -9.347656 6.359375 -9.140625 C 6.578125 -8.941406 6.753906 -8.71875 6.890625 -8.46875 C 7.023438 -8.226562 7.128906 -7.984375 7.203125 -7.734375 C 7.285156 -7.492188 7.34375 -7.265625 7.375 -7.046875 C 7.40625 -6.828125 7.425781 -6.644531 7.4375 -6.5 Z M 5.421875 -4.53125 C 5.203125 -4.445312 4.957031 -4.335938 4.6875 -4.203125 C 4.425781 -4.066406 4.15625 -3.910156 3.875 -3.734375 C 3.601562 -3.554688 3.332031 -3.347656 3.0625 -3.109375 C 2.789062 -2.867188 2.535156 -2.601562 2.296875 -2.3125 C 2.015625 -1.988281 1.8125 -1.695312 1.6875 -1.4375 C 1.5625 -1.175781 1.484375 -0.953125 1.453125 -0.765625 C 1.421875 -0.585938 1.425781 -0.445312 1.46875 -0.34375 C 1.519531 -0.238281 1.570312 -0.175781 1.625 -0.15625 C 1.851562 -0.0625 2.09375 -0.0507812 2.34375 -0.125 C 2.59375 -0.195312 2.84375 -0.320312 3.09375 -0.5 C 3.34375 -0.6875 3.582031 -0.90625 3.8125 -1.15625 C 4.039062 -1.414062 4.257812 -1.679688 4.46875 -1.953125 C 4.675781 -2.222656 4.859375 -2.488281 5.015625 -2.75 C 5.179688 -3.007812 5.316406 -3.238281 5.421875 -3.4375 Z M 5.421875 -4.53125 "/></g></g></g><g fill="#ff914d" fill-opacity="1"><g transform="translate(195.854329, 218.7492)"><g><path d="M 4.703125 -0.5 C 5.148438 -0.5 5.59375 -0.457031 6.03125 -0.375 C 6.46875 -0.289062 6.863281 -0.15625 7.21875 0.03125 C 7.582031 0.226562 7.875 0.484375 8.09375 0.796875 C 8.3125 1.109375 8.421875 1.5 8.421875 1.96875 C 8.421875 2.320312 8.335938 2.675781 8.171875 3.03125 C 8.003906 3.382812 7.773438 3.726562 7.484375 4.0625 C 7.203125 4.394531 6.863281 4.707031 6.46875 5 C 6.082031 5.300781 5.664062 5.5625 5.21875 5.78125 C 4.769531 6 4.300781 6.171875 3.8125 6.296875 C 3.320312 6.421875 2.832031 6.484375 2.34375 6.484375 C 1.945312 6.484375 1.570312 6.441406 1.21875 6.359375 C 0.863281 6.273438 0.554688 6.144531 0.296875 5.96875 C 0.0351562 5.800781 -0.171875 5.585938 -0.328125 5.328125 C -0.484375 5.078125 -0.5625 4.773438 -0.5625 4.421875 C -0.5625 4.085938 -0.492188 3.769531 -0.359375 3.46875 C -0.234375 3.164062 -0.0625 2.890625 0.15625 2.640625 C 0.375 2.390625 0.625 2.160156 0.90625 1.953125 C 1.1875 1.753906 1.476562 1.585938 1.78125 1.453125 C 2.082031 1.316406 2.375 1.207031 2.65625 1.125 C 2.945312 1.050781 3.210938 1.015625 3.453125 1.015625 C 3.578125 1.035156 3.660156 1.050781 3.703125 1.0625 C 3.753906 1.082031 3.78125 1.101562 3.78125 1.125 C 3.78125 1.15625 3.765625 1.1875 3.734375 1.21875 C 3.710938 1.25 3.703125 1.273438 3.703125 1.296875 C 3.722656 1.335938 3.738281 1.390625 3.75 1.453125 C 3.769531 1.515625 3.78125 1.570312 3.78125 1.625 C 3.78125 1.707031 3.765625 1.773438 3.734375 1.828125 C 3.710938 1.878906 3.660156 1.914062 3.578125 1.9375 C 3.265625 2.007812 2.921875 2.132812 2.546875 2.3125 C 2.171875 2.488281 1.816406 2.695312 1.484375 2.9375 C 1.160156 3.175781 0.882812 3.429688 0.65625 3.703125 C 0.4375 3.984375 0.328125 4.265625 0.328125 4.546875 C 0.328125 4.679688 0.390625 4.773438 0.515625 4.828125 C 0.640625 4.890625 0.816406 4.921875 1.046875 4.921875 C 1.328125 4.921875 1.660156 4.878906 2.046875 4.796875 C 2.441406 4.722656 2.847656 4.609375 3.265625 4.453125 C 3.691406 4.304688 4.109375 4.125 4.515625 3.90625 C 4.929688 3.6875 5.300781 3.4375 5.625 3.15625 C 5.957031 2.882812 6.222656 2.585938 6.421875 2.265625 C 6.628906 1.953125 6.734375 1.613281 6.734375 1.25 C 6.734375 1.070312 6.695312 0.929688 6.625 0.828125 C 6.550781 0.734375 6.46875 0.660156 6.375 0.609375 C 6.28125 0.554688 6.179688 0.523438 6.078125 0.515625 C 5.984375 0.503906 5.90625 0.5 5.84375 0.5 C 5.3125 0.5 4.769531 0.53125 4.21875 0.59375 C 3.675781 0.65625 3.179688 0.722656 2.734375 0.796875 C 2.285156 0.867188 1.914062 0.9375 1.625 1 C 1.34375 1.0625 1.191406 1.09375 1.171875 1.09375 C 1.015625 1.09375 0.863281 1.054688 0.71875 0.984375 C 0.582031 0.921875 0.46875 0.835938 0.375 0.734375 C 0.28125 0.628906 0.203125 0.507812 0.140625 0.375 C 0.0859375 0.238281 0.0625 0.0976562 0.0625 -0.046875 C 0.0625 -0.148438 0.128906 -0.304688 0.265625 -0.515625 C 0.398438 -0.734375 0.570312 -0.960938 0.78125 -1.203125 C 1 -1.453125 1.242188 -1.691406 1.515625 -1.921875 C 1.796875 -2.160156 2.078125 -2.359375 2.359375 -2.515625 C 2.109375 -2.648438 1.882812 -2.8125 1.6875 -3 C 1.488281 -3.195312 1.320312 -3.40625 1.1875 -3.625 C 1.050781 -3.851562 0.941406 -4.085938 0.859375 -4.328125 C 0.785156 -4.578125 0.75 -4.832031 0.75 -5.09375 C 0.75 -5.59375 0.816406 -6.035156 0.953125 -6.421875 C 1.097656 -6.816406 1.285156 -7.15625 1.515625 -7.4375 C 1.742188 -7.726562 2 -7.96875 2.28125 -8.15625 C 2.570312 -8.351562 2.859375 -8.507812 3.140625 -8.625 C 3.421875 -8.75 3.6875 -8.832031 3.9375 -8.875 C 4.1875 -8.925781 4.398438 -8.953125 4.578125 -8.953125 C 4.660156 -8.953125 4.726562 -8.945312 4.78125 -8.9375 C 4.832031 -8.9375 4.878906 -8.925781 4.921875 -8.90625 C 5.109375 -9.207031 5.320312 -9.523438 5.5625 -9.859375 C 5.800781 -10.203125 6.046875 -10.535156 6.296875 -10.859375 C 6.554688 -11.191406 6.8125 -11.503906 7.0625 -11.796875 C 7.320312 -12.097656 7.554688 -12.363281 7.765625 -12.59375 C 7.984375 -12.832031 8.164062 -13.019531 8.3125 -13.15625 C 8.457031 -13.289062 8.554688 -13.359375 8.609375 -13.359375 C 8.679688 -13.359375 8.765625 -13.316406 8.859375 -13.234375 C 8.953125 -13.148438 9.039062 -13.050781 9.125 -12.9375 C 9.21875 -12.832031 9.296875 -12.726562 9.359375 -12.625 C 9.421875 -12.53125 9.453125 -12.46875 9.453125 -12.4375 C 9.453125 -12.394531 9.4375 -12.359375 9.40625 -12.328125 C 9.382812 -12.296875 9.375 -12.269531 9.375 -12.25 C 9.375 -12.21875 9.390625 -12.1875 9.421875 -12.15625 C 9.460938 -12.132812 9.523438 -12.101562 9.609375 -12.0625 C 9.628906 -12.050781 9.640625 -12.046875 9.640625 -12.046875 C 9.648438 -12.046875 9.65625 -12.035156 9.65625 -12.015625 C 9.65625 -11.992188 9.609375 -11.945312 9.515625 -11.875 C 9.421875 -11.800781 9.265625 -11.675781 9.046875 -11.5 C 8.828125 -11.332031 8.546875 -11.09375 8.203125 -10.78125 C 7.867188 -10.46875 7.453125 -10.054688 6.953125 -9.546875 C 6.835938 -9.429688 6.71875 -9.289062 6.59375 -9.125 C 6.46875 -8.96875 6.332031 -8.796875 6.1875 -8.609375 C 6.375 -8.503906 6.570312 -8.367188 6.78125 -8.203125 C 6.988281 -8.035156 7.175781 -7.835938 7.34375 -7.609375 C 7.507812 -7.378906 7.644531 -7.117188 7.75 -6.828125 C 7.863281 -6.546875 7.921875 -6.238281 7.921875 -5.90625 C 7.921875 -5.195312 7.800781 -4.597656 7.5625 -4.109375 C 7.320312 -3.628906 7.015625 -3.242188 6.640625 -2.953125 C 6.265625 -2.660156 5.84375 -2.453125 5.375 -2.328125 C 4.90625 -2.203125 4.445312 -2.140625 4 -2.140625 C 3.882812 -2.140625 3.773438 -2.144531 3.671875 -2.15625 C 3.578125 -2.164062 3.484375 -2.175781 3.390625 -2.1875 C 3.210938 -2.070312 3.015625 -1.929688 2.796875 -1.765625 C 2.585938 -1.609375 2.378906 -1.429688 2.171875 -1.234375 C 1.960938 -1.046875 1.769531 -0.851562 1.59375 -0.65625 C 1.425781 -0.457031 1.296875 -0.269531 1.203125 -0.09375 C 1.503906 -0.09375 1.789062 -0.113281 2.0625 -0.15625 C 2.332031 -0.195312 2.609375 -0.242188 2.890625 -0.296875 C 3.171875 -0.347656 3.457031 -0.394531 3.75 -0.4375 C 4.050781 -0.476562 4.367188 -0.5 4.703125 -0.5 Z M 4.359375 -7.59375 C 4.359375 -7.738281 4.445312 -7.988281 4.625 -8.34375 C 4.269531 -8.238281 3.957031 -8.070312 3.6875 -7.84375 C 3.414062 -7.625 3.179688 -7.375 2.984375 -7.09375 C 2.796875 -6.8125 2.648438 -6.507812 2.546875 -6.1875 C 2.441406 -5.863281 2.390625 -5.546875 2.390625 -5.234375 C 2.390625 -5.003906 2.414062 -4.78125 2.46875 -4.5625 C 2.519531 -4.351562 2.601562 -4.164062 2.71875 -4 C 2.84375 -3.832031 3 -3.695312 3.1875 -3.59375 C 3.375 -3.5 3.609375 -3.453125 3.890625 -3.453125 C 4.179688 -3.453125 4.441406 -3.503906 4.671875 -3.609375 C 4.910156 -3.722656 5.117188 -3.863281 5.296875 -4.03125 C 5.472656 -4.207031 5.617188 -4.398438 5.734375 -4.609375 C 5.859375 -4.828125 5.957031 -5.039062 6.03125 -5.25 C 6.113281 -5.46875 6.171875 -5.664062 6.203125 -5.84375 C 6.242188 -6.03125 6.265625 -6.179688 6.265625 -6.296875 C 6.265625 -6.734375 6.191406 -7.078125 6.046875 -7.328125 C 5.910156 -7.578125 5.742188 -7.765625 5.546875 -7.890625 C 5.441406 -7.765625 5.332031 -7.644531 5.21875 -7.53125 C 5.113281 -7.414062 5.003906 -7.300781 4.890625 -7.1875 C 4.867188 -7.164062 4.84375 -7.15625 4.8125 -7.15625 C 4.789062 -7.15625 4.769531 -7.164062 4.75 -7.1875 C 4.738281 -7.21875 4.71875 -7.234375 4.6875 -7.234375 C 4.664062 -7.234375 4.640625 -7.21875 4.609375 -7.1875 C 4.585938 -7.164062 4.5625 -7.15625 4.53125 -7.15625 C 4.476562 -7.15625 4.4375 -7.1875 4.40625 -7.25 C 4.375 -7.3125 4.359375 -7.425781 4.359375 -7.59375 Z M 4.359375 -7.59375 "/></g></g></g><g fill="#ff914d" fill-opacity="1"><g transform="translate(209.313711, 218.7492)"><g><path d="M 4.703125 -0.5 C 5.148438 -0.5 5.59375 -0.457031 6.03125 -0.375 C 6.46875 -0.289062 6.863281 -0.15625 7.21875 0.03125 C 7.582031 0.226562 7.875 0.484375 8.09375 0.796875 C 8.3125 1.109375 8.421875 1.5 8.421875 1.96875 C 8.421875 2.320312 8.335938 2.675781 8.171875 3.03125 C 8.003906 3.382812 7.773438 3.726562 7.484375 4.0625 C 7.203125 4.394531 6.863281 4.707031 6.46875 5 C 6.082031 5.300781 5.664062 5.5625 5.21875 5.78125 C 4.769531 6 4.300781 6.171875 3.8125 6.296875 C 3.320312 6.421875 2.832031 6.484375 2.34375 6.484375 C 1.945312 6.484375 1.570312 6.441406 1.21875 6.359375 C 0.863281 6.273438 0.554688 6.144531 0.296875 5.96875 C 0.0351562 5.800781 -0.171875 5.585938 -0.328125 5.328125 C -0.484375 5.078125 -0.5625 4.773438 -0.5625 4.421875 C -0.5625 4.085938 -0.492188 3.769531 -0.359375 3.46875 C -0.234375 3.164062 -0.0625 2.890625 0.15625 2.640625 C 0.375 2.390625 0.625 2.160156 0.90625 1.953125 C 1.1875 1.753906 1.476562 1.585938 1.78125 1.453125 C 2.082031 1.316406 2.375 1.207031 2.65625 1.125 C 2.945312 1.050781 3.210938 1.015625 3.453125 1.015625 C 3.578125 1.035156 3.660156 1.050781 3.703125 1.0625 C 3.753906 1.082031 3.78125 1.101562 3.78125 1.125 C 3.78125 1.15625 3.765625 1.1875 3.734375 1.21875 C 3.710938 1.25 3.703125 1.273438 3.703125 1.296875 C 3.722656 1.335938 3.738281 1.390625 3.75 1.453125 C 3.769531 1.515625 3.78125 1.570312 3.78125 1.625 C 3.78125 1.707031 3.765625 1.773438 3.734375 1.828125 C 3.710938 1.878906 3.660156 1.914062 3.578125 1.9375 C 3.265625 2.007812 2.921875 2.132812 2.546875 2.3125 C 2.171875 2.488281 1.816406 2.695312 1.484375 2.9375 C 1.160156 3.175781 0.882812 3.429688 0.65625 3.703125 C 0.4375 3.984375 0.328125 4.265625 0.328125 4.546875 C 0.328125 4.679688 0.390625 4.773438 0.515625 4.828125 C 0.640625 4.890625 0.816406 4.921875 1.046875 4.921875 C 1.328125 4.921875 1.660156 4.878906 2.046875 4.796875 C 2.441406 4.722656 2.847656 4.609375 3.265625 4.453125 C 3.691406 4.304688 4.109375 4.125 4.515625 3.90625 C 4.929688 3.6875 5.300781 3.4375 5.625 3.15625 C 5.957031 2.882812 6.222656 2.585938 6.421875 2.265625 C 6.628906 1.953125 6.734375 1.613281 6.734375 1.25 C 6.734375 1.070312 6.695312 0.929688 6.625 0.828125 C 6.550781 0.734375 6.46875 0.660156 6.375 0.609375 C 6.28125 0.554688 6.179688 0.523438 6.078125 0.515625 C 5.984375 0.503906 5.90625 0.5 5.84375 0.5 C 5.3125 0.5 4.769531 0.53125 4.21875 0.59375 C 3.675781 0.65625 3.179688 0.722656 2.734375 0.796875 C 2.285156 0.867188 1.914062 0.9375 1.625 1 C 1.34375 1.0625 1.191406 1.09375 1.171875 1.09375 C 1.015625 1.09375 0.863281 1.054688 0.71875 0.984375 C 0.582031 0.921875 0.46875 0.835938 0.375 0.734375 C 0.28125 0.628906 0.203125 0.507812 0.140625 0.375 C 0.0859375 0.238281 0.0625 0.0976562 0.0625 -0.046875 C 0.0625 -0.148438 0.128906 -0.304688 0.265625 -0.515625 C 0.398438 -0.734375 0.570312 -0.960938 0.78125 -1.203125 C 1 -1.453125 1.242188 -1.691406 1.515625 -1.921875 C 1.796875 -2.160156 2.078125 -2.359375 2.359375 -2.515625 C 2.109375 -2.648438 1.882812 -2.8125 1.6875 -3 C 1.488281 -3.195312 1.320312 -3.40625 1.1875 -3.625 C 1.050781 -3.851562 0.941406 -4.085938 0.859375 -4.328125 C 0.785156 -4.578125 0.75 -4.832031 0.75 -5.09375 C 0.75 -5.59375 0.816406 -6.035156 0.953125 -6.421875 C 1.097656 -6.816406 1.285156 -7.15625 1.515625 -7.4375 C 1.742188 -7.726562 2 -7.96875 2.28125 -8.15625 C 2.570312 -8.351562 2.859375 -8.507812 3.140625 -8.625 C 3.421875 -8.75 3.6875 -8.832031 3.9375 -8.875 C 4.1875 -8.925781 4.398438 -8.953125 4.578125 -8.953125 C 4.660156 -8.953125 4.726562 -8.945312 4.78125 -8.9375 C 4.832031 -8.9375 4.878906 -8.925781 4.921875 -8.90625 C 5.109375 -9.207031 5.320312 -9.523438 5.5625 -9.859375 C 5.800781 -10.203125 6.046875 -10.535156 6.296875 -10.859375 C 6.554688 -11.191406 6.8125 -11.503906 7.0625 -11.796875 C 7.320312 -12.097656 7.554688 -12.363281 7.765625 -12.59375 C 7.984375 -12.832031 8.164062 -13.019531 8.3125 -13.15625 C 8.457031 -13.289062 8.554688 -13.359375 8.609375 -13.359375 C 8.679688 -13.359375 8.765625 -13.316406 8.859375 -13.234375 C 8.953125 -13.148438 9.039062 -13.050781 9.125 -12.9375 C 9.21875 -12.832031 9.296875 -12.726562 9.359375 -12.625 C 9.421875 -12.53125 9.453125 -12.46875 9.453125 -12.4375 C 9.453125 -12.394531 9.4375 -12.359375 9.40625 -12.328125 C 9.382812 -12.296875 9.375 -12.269531 9.375 -12.25 C 9.375 -12.21875 9.390625 -12.1875 9.421875 -12.15625 C 9.460938 -12.132812 9.523438 -12.101562 9.609375 -12.0625 C 9.628906 -12.050781 9.640625 -12.046875 9.640625 -12.046875 C 9.648438 -12.046875 9.65625 -12.035156 9.65625 -12.015625 C 9.65625 -11.992188 9.609375 -11.945312 9.515625 -11.875 C 9.421875 -11.800781 9.265625 -11.675781 9.046875 -11.5 C 8.828125 -11.332031 8.546875 -11.09375 8.203125 -10.78125 C 7.867188 -10.46875 7.453125 -10.054688 6.953125 -9.546875 C 6.835938 -9.429688 6.71875 -9.289062 6.59375 -9.125 C 6.46875 -8.96875 6.332031 -8.796875 6.1875 -8.609375 C 6.375 -8.503906 6.570312 -8.367188 6.78125 -8.203125 C 6.988281 -8.035156 7.175781 -7.835938 7.34375 -7.609375 C 7.507812 -7.378906 7.644531 -7.117188 7.75 -6.828125 C 7.863281 -6.546875 7.921875 -6.238281 7.921875 -5.90625 C 7.921875 -5.195312 7.800781 -4.597656 7.5625 -4.109375 C 7.320312 -3.628906 7.015625 -3.242188 6.640625 -2.953125 C 6.265625 -2.660156 5.84375 -2.453125 5.375 -2.328125 C 4.90625 -2.203125 4.445312 -2.140625 4 -2.140625 C 3.882812 -2.140625 3.773438 -2.144531 3.671875 -2.15625 C 3.578125 -2.164062 3.484375 -2.175781 3.390625 -2.1875 C 3.210938 -2.070312 3.015625 -1.929688 2.796875 -1.765625 C 2.585938 -1.609375 2.378906 -1.429688 2.171875 -1.234375 C 1.960938 -1.046875 1.769531 -0.851562 1.59375 -0.65625 C 1.425781 -0.457031 1.296875 -0.269531 1.203125 -0.09375 C 1.503906 -0.09375 1.789062 -0.113281 2.0625 -0.15625 C 2.332031 -0.195312 2.609375 -0.242188 2.890625 -0.296875 C 3.171875 -0.347656 3.457031 -0.394531 3.75 -0.4375 C 4.050781 -0.476562 4.367188 -0.5 4.703125 -0.5 Z M 4.359375 -7.59375 C 4.359375 -7.738281 4.445312 -7.988281 4.625 -8.34375 C 4.269531 -8.238281 3.957031 -8.070312 3.6875 -7.84375 C 3.414062 -7.625 3.179688 -7.375 2.984375 -7.09375 C 2.796875 -6.8125 2.648438 -6.507812 2.546875 -6.1875 C 2.441406 -5.863281 2.390625 -5.546875 2.390625 -5.234375 C 2.390625 -5.003906 2.414062 -4.78125 2.46875 -4.5625 C 2.519531 -4.351562 2.601562 -4.164062 2.71875 -4 C 2.84375 -3.832031 3 -3.695312 3.1875 -3.59375 C 3.375 -3.5 3.609375 -3.453125 3.890625 -3.453125 C 4.179688 -3.453125 4.441406 -3.503906 4.671875 -3.609375 C 4.910156 -3.722656 5.117188 -3.863281 5.296875 -4.03125 C 5.472656 -4.207031 5.617188 -4.398438 5.734375 -4.609375 C 5.859375 -4.828125 5.957031 -5.039062 6.03125 -5.25 C 6.113281 -5.46875 6.171875 -5.664062 6.203125 -5.84375 C 6.242188 -6.03125 6.265625 -6.179688 6.265625 -6.296875 C 6.265625 -6.734375 6.191406 -7.078125 6.046875 -7.328125 C 5.910156 -7.578125 5.742188 -7.765625 5.546875 -7.890625 C 5.441406 -7.765625 5.332031 -7.644531 5.21875 -7.53125 C 5.113281 -7.414062 5.003906 -7.300781 4.890625 -7.1875 C 4.867188 -7.164062 4.84375 -7.15625 4.8125 -7.15625 C 4.789062 -7.15625 4.769531 -7.164062 4.75 -7.1875 C 4.738281 -7.21875 4.71875 -7.234375 4.6875 -7.234375 C 4.664062 -7.234375 4.640625 -7.21875 4.609375 -7.1875 C 4.585938 -7.164062 4.5625 -7.15625 4.53125 -7.15625 C 4.476562 -7.15625 4.4375 -7.1875 4.40625 -7.25 C 4.375 -7.3125 4.359375 -7.425781 4.359375 -7.59375 Z M 4.359375 -7.59375 "/></g></g></g><g fill="#ff914d" fill-opacity="1"><g transform="translate(222.773094, 218.7492)"><g><path d="M 8.03125 -4.046875 C 8.03125 -3.960938 8.03125 -3.863281 8.03125 -3.75 C 8.039062 -3.644531 8.046875 -3.523438 8.046875 -3.390625 C 8.046875 -3.210938 8.019531 -2.988281 7.96875 -2.71875 C 7.914062 -2.457031 7.832031 -2.179688 7.71875 -1.890625 C 7.601562 -1.609375 7.445312 -1.320312 7.25 -1.03125 C 7.0625 -0.738281 6.828125 -0.476562 6.546875 -0.25 C 6.265625 -0.0195312 5.929688 0.160156 5.546875 0.296875 C 5.171875 0.441406 4.738281 0.515625 4.25 0.515625 C 3.8125 0.515625 3.363281 0.429688 2.90625 0.265625 C 2.457031 0.0976562 2.046875 -0.15625 1.671875 -0.5 C 1.296875 -0.851562 0.988281 -1.300781 0.75 -1.84375 C 0.507812 -2.394531 0.390625 -3.046875 0.390625 -3.796875 C 0.390625 -4.265625 0.445312 -4.726562 0.5625 -5.1875 C 0.6875 -5.65625 0.847656 -6.09375 1.046875 -6.5 C 1.253906 -6.90625 1.5 -7.28125 1.78125 -7.625 C 2.0625 -7.96875 2.351562 -8.257812 2.65625 -8.5 C 2.96875 -8.75 3.285156 -8.941406 3.609375 -9.078125 C 3.941406 -9.222656 4.265625 -9.296875 4.578125 -9.296875 C 5.117188 -9.296875 5.5625 -9.210938 5.90625 -9.046875 C 6.257812 -8.878906 6.539062 -8.664062 6.75 -8.40625 C 6.957031 -8.15625 7.101562 -7.890625 7.1875 -7.609375 C 7.269531 -7.328125 7.3125 -7.070312 7.3125 -6.84375 C 7.3125 -6.613281 7.257812 -6.359375 7.15625 -6.078125 C 7.050781 -5.796875 6.875 -5.523438 6.625 -5.265625 C 6.382812 -5.015625 6.066406 -4.800781 5.671875 -4.625 C 5.273438 -4.445312 4.796875 -4.359375 4.234375 -4.359375 C 3.929688 -4.359375 3.65625 -4.398438 3.40625 -4.484375 C 3.164062 -4.578125 2.953125 -4.6875 2.765625 -4.8125 C 2.585938 -4.9375 2.429688 -5.078125 2.296875 -5.234375 C 2.171875 -5.390625 2.0625 -5.53125 1.96875 -5.65625 C 1.84375 -5.195312 1.78125 -4.660156 1.78125 -4.046875 C 1.78125 -3.628906 1.835938 -3.25 1.953125 -2.90625 C 2.078125 -2.570312 2.242188 -2.285156 2.453125 -2.046875 C 2.671875 -1.816406 2.925781 -1.640625 3.21875 -1.515625 C 3.519531 -1.390625 3.847656 -1.328125 4.203125 -1.328125 C 4.648438 -1.328125 5.039062 -1.398438 5.375 -1.546875 C 5.707031 -1.703125 5.992188 -1.894531 6.234375 -2.125 C 6.484375 -2.351562 6.695312 -2.601562 6.875 -2.875 C 7.0625 -3.144531 7.222656 -3.390625 7.359375 -3.609375 C 7.492188 -3.835938 7.609375 -4.023438 7.703125 -4.171875 C 7.804688 -4.316406 7.90625 -4.390625 8 -4.390625 C 8.039062 -4.390625 8.0625 -4.351562 8.0625 -4.28125 C 8.0625 -4.238281 8.054688 -4.195312 8.046875 -4.15625 C 8.046875 -4.125 8.039062 -4.085938 8.03125 -4.046875 Z M 4.6875 -8.1875 C 4.550781 -8.1875 4.378906 -8.15625 4.171875 -8.09375 C 3.960938 -8.039062 3.738281 -7.941406 3.5 -7.796875 C 3.269531 -7.660156 3.039062 -7.472656 2.8125 -7.234375 C 2.582031 -6.992188 2.378906 -6.6875 2.203125 -6.3125 C 2.304688 -6.363281 2.394531 -6.40625 2.46875 -6.4375 C 2.550781 -6.476562 2.609375 -6.5 2.640625 -6.5 C 2.660156 -6.5 2.679688 -6.484375 2.703125 -6.453125 C 2.878906 -6.171875 3.09375 -5.96875 3.34375 -5.84375 C 3.601562 -5.71875 3.890625 -5.65625 4.203125 -5.65625 C 4.453125 -5.65625 4.664062 -5.695312 4.84375 -5.78125 C 5.03125 -5.875 5.179688 -5.984375 5.296875 -6.109375 C 5.421875 -6.242188 5.507812 -6.390625 5.5625 -6.546875 C 5.613281 -6.710938 5.640625 -6.875 5.640625 -7.03125 C 5.640625 -7.363281 5.550781 -7.640625 5.375 -7.859375 C 5.207031 -8.078125 4.976562 -8.1875 4.6875 -8.1875 Z M 4.6875 -8.1875 "/></g></g></g></svg>